<?xml version="1.0" encoding="utf-8"?>
<!-- Generator: Adobe Illustrator 21.1.0, SVG Export Plug-In . SVG Version: 6.00 Build 0)  -->
<svg version="1.1" xmlns="http://www.w3.org/2000/svg" xmlns:xlink="http://www.w3.org/1999/xlink" x="0px" y="0px"
	 viewBox="0 0 500 500" style="enable-background:new 0 0 500 500;" xml:space="preserve">
<style type="text/css">
	.st0{display:none;}
	.st1{display:inline;fill:#A8CFF4;}
	.st2{opacity:0.54;}
	.st3{fill:#A8CFF4;}
	.st4{opacity:0.29;}
	.st5{opacity:0.5;}
	.st6{fill:#8DBCE2;}
	.st7{fill:#F7D9C9;}
	.st8{fill:#FFFFFF;}
	.st9{fill:#FD2C32;}
	.st10{fill:#303030;}
	.st11{font-family:'Montserrat-Bold';}
	.st12{font-size:18.5219px;}
	.st13{font-size:14.7238px;}
	.st14{fill:#FF6562;}
	.st15{fill:#EEC6AC;}
	.st16{fill:#FFCE00;}
	.st17{font-size:15.3675px;}
	.st18{fill:#DDDDDD;}
	.st19{fill:#FFB29C;}
	.st20{fill:#41C6AC;}
	.st21{fill:#EFEFEF;}
	.st22{fill:#202441;}
	.st23{fill:#1E1E1E;}
	.st24{fill:#32B29A;}
	.st25{fill:#F4A18E;}
	.st26{fill:#DBDBDB;}
	.st27{fill:#1FAAFF;}
</style>
<g id="BACKGROUND" class="st0">
	<rect class="st1" width="500" height="500"/>
</g>
<g id="OBJECTS">
	<g>
		<g class="st2">
			<g>
				<g>
					<g>
						<path class="st3" d="M379.9,307.4c0.7,0.1,1.2,0.8,1,1.5l-6.2,35.8c-0.1,0.7-0.8,1.2-1.5,1c-0.7-0.1-1.2-0.8-1-1.5l6.2-35.8
							C378.6,307.7,379.2,307.3,379.9,307.4z"/>
					</g>
					<g>
						
							<ellipse transform="matrix(0.1707 -0.9853 0.9853 0.1707 -32.8383 655.531)" class="st3" cx="373" cy="347.3" rx="7.7" ry="7.7"/>
					</g>
				</g>
				<g>
					<g>
						<path class="st3" d="M402,180.1c0.7,0.1,1.2,0.8,1,1.5l-6.2,35.8c-0.1,0.7-0.8,1.2-1.5,1c-0.7-0.1-1.2-0.8-1-1.5l6.2-35.8
							C400.6,180.4,401.3,180,402,180.1z"/>
					</g>
					<g>
						
							<ellipse transform="matrix(0.1707 -0.9853 0.9853 0.1707 157.6507 544.4277)" class="st3" cx="402.3" cy="178.6" rx="7.7" ry="7.7"/>
					</g>
				</g>
			</g>
			<g>
				<g>
					<g>
						<path class="st3" d="M403.9,305.2c0.4,0.1,0.8,0.4,1,0.8l12.5,34.1c0.2,0.7-0.1,1.4-0.8,1.6c-0.7,0.3-1.4-0.1-1.6-0.8
							l-12.5-34.1c-0.2-0.7,0.1-1.4,0.8-1.6C403.4,305.2,403.7,305.2,403.9,305.2z"/>
					</g>
					<g>
						
							<ellipse transform="matrix(0.9387 -0.3448 0.3448 0.9387 -92.7729 164.8658)" class="st3" cx="417.2" cy="343.3" rx="7.7" ry="7.7"/>
					</g>
				</g>
				<g>
					<g>
						<path class="st3" d="M359.3,183.9c0.4,0.1,0.8,0.4,1,0.8l12.5,34.1c0.2,0.7-0.1,1.4-0.8,1.6c-0.7,0.2-1.4-0.1-1.6-0.8
							l-12.5-34.1c-0.2-0.7,0.1-1.4,0.8-1.6C358.9,183.9,359.1,183.9,359.3,183.9z"/>
					</g>
					<g>
						
							<ellipse transform="matrix(0.9387 -0.3448 0.3448 0.9387 -40.9796 134.6752)" class="st3" cx="358.1" cy="182.5" rx="7.7" ry="7.7"/>
					</g>
				</g>
			</g>
			<g>
				<g>
					<g>
						<path class="st3" d="M423.5,291.4c0.2,0,0.4,0.1,0.6,0.3L452,315c0.5,0.5,0.6,1.3,0.2,1.8c-0.5,0.5-1.3,0.6-1.8,0.2
							l-27.9-23.3c-0.5-0.5-0.6-1.3-0.2-1.8C422.6,291.5,423.1,291.3,423.5,291.4z"/>
					</g>
					<g>
						
							<ellipse transform="matrix(0.6405 -0.7679 0.7679 0.6405 -81.0336 462.4002)" class="st3" cx="453.4" cy="317.8" rx="7.7" ry="7.7"/>
					</g>
				</g>
				<g>
					<g>
						<path class="st3" d="M324.3,208.6c0.2,0,0.4,0.1,0.6,0.3l27.9,23.3c0.5,0.5,0.6,1.3,0.2,1.8c-0.5,0.5-1.3,0.6-1.8,0.2
							l-27.9-23.3c-0.5-0.5-0.6-1.3-0.2-1.8C323.4,208.7,323.9,208.5,324.3,208.6z"/>
					</g>
					<g>
						
							<ellipse transform="matrix(0.6405 -0.7679 0.7679 0.6405 -44.071 321.9977)" class="st3" cx="321.9" cy="208.1" rx="7.7" ry="7.7"/>
					</g>
				</g>
			</g>
			<g>
				<g>
					<g>
						<path class="st3" d="M433.6,269.6l35.8,6.2c0.7,0.1,1.2,0.8,1,1.5c-0.1,0.7-0.8,1.2-1.5,1l-35.8-6.2c-0.7-0.1-1.2-0.8-1-1.5
							C432.2,269.9,432.9,269.5,433.6,269.6z"/>
					</g>
					<g>
						
							<ellipse transform="matrix(0.1707 -0.9853 0.9853 0.1707 117.956 695.2242)" class="st3" cx="472" cy="277.5" rx="7.7" ry="7.7"/>
					</g>
				</g>
				<g>
					<g>
						<path class="st3" d="M306.3,247.5l35.8,6.2c0.7,0.1,1.2,0.8,1,1.5c-0.1,0.7-0.8,1.2-1.5,1l-35.8-6.2c-0.7-0.1-1.2-0.8-1-1.5
							C304.9,247.9,305.6,247.4,306.3,247.5z"/>
					</g>
					<g>
						
							<ellipse transform="matrix(0.1708 -0.9853 0.9853 0.1708 6.8496 504.7269)" class="st3" cx="303.3" cy="248.3" rx="7.7" ry="7.7"/>
					</g>
				</g>
			</g>
			<g>
				<g>
					<g>
						<path class="st3" d="M465.6,233.1c0.4,0.1,0.8,0.4,1,0.8c0.2,0.7-0.1,1.4-0.8,1.6l-34.1,12.5c-0.7,0.3-1.4-0.1-1.6-0.8
							c-0.2-0.7,0.1-1.4,0.8-1.6l34.1-12.5C465.1,233.1,465.4,233.1,465.6,233.1z"/>
					</g>
					<g>
						
							<ellipse transform="matrix(0.9387 -0.3447 0.3447 0.9387 -51.7695 175.641)" class="st3" cx="468" cy="233.4" rx="7.7" ry="7.7"/>
					</g>
				</g>
				<g>
					<g>
						<path class="st3" d="M344.3,277.6c0.4,0.1,0.8,0.4,1,0.8c0.2,0.7-0.1,1.4-0.8,1.6l-34.1,12.5c-0.7,0.3-1.4-0.1-1.6-0.8
							c-0.2-0.7,0.1-1.4,0.8-1.6l34.1-12.5C343.9,277.6,344.1,277.6,344.3,277.6z"/>
					</g>
					<g>
						
							<ellipse transform="matrix(0.9387 -0.3448 0.3448 0.9387 -81.9848 123.8778)" class="st3" cx="307.3" cy="292.4" rx="7.7" ry="7.7"/>
					</g>
				</g>
			</g>
			<g>
				<g>
					<g>
						<path class="st3" d="M440.9,198.1c0.2,0,0.4,0.1,0.6,0.3c0.5,0.5,0.6,1.3,0.2,1.8l-23.3,27.9c-0.5,0.5-1.3,0.6-1.8,0.2
							c-0.5-0.5-0.6-1.3-0.2-1.8l23.3-27.9C440,198.2,440.5,198,440.9,198.1z"/>
					</g>
					<g>
						
							<ellipse transform="matrix(0.6405 -0.7679 0.7679 0.6405 7.6514 410.6783)" class="st3" cx="442.5" cy="197.2" rx="7.7" ry="7.7"/>
					</g>
				</g>
				<g>
					<g>
						<path class="st3" d="M358.1,297.3c0.2,0,0.4,0.1,0.6,0.3c0.5,0.5,0.6,1.3,0.2,1.8l-23.3,27.9c-0.5,0.5-1.3,0.6-1.8,0.2
							c-0.5-0.5-0.6-1.3-0.2-1.8l23.3-27.9C357.2,297.4,357.7,297.2,358.1,297.3z"/>
					</g>
					<g>
						
							<ellipse transform="matrix(0.6405 -0.7679 0.7679 0.6405 -132.7554 373.729)" class="st3" cx="332.8" cy="328.7" rx="7.7" ry="7.7"/>
					</g>
				</g>
			</g>
			<g>
				<ellipse transform="matrix(0.1708 -0.9853 0.9853 0.1708 63.3826 599.4014)" class="st3" cx="387.8" cy="262" rx="55" ry="55"/>
			</g>
			<g>
				
					<ellipse transform="matrix(0.9387 -0.3448 0.3448 0.9387 -89.4656 156.5377)" class="st3" cx="395.4" cy="329.8" rx="7.7" ry="7.7"/>
			</g>
			<g>
				
					<ellipse transform="matrix(0.9387 -0.3448 0.3448 0.9387 -80.4403 149.8329)" class="st3" cx="381" cy="301.1" rx="7.7" ry="7.7"/>
			</g>
			<g>
				
					<ellipse transform="matrix(0.9387 -0.3448 0.3448 0.9387 -68.2846 149.7901)" class="st3" cx="387" cy="266.9" rx="9.2" ry="9.2"/>
			</g>
			<g>
				
					<ellipse transform="matrix(0.9387 -0.3448 0.3448 0.9387 -77.0465 157.0908)" class="st3" cx="403.1" cy="295.2" rx="7.7" ry="7.7"/>
			</g>
			<g>
				
					<ellipse transform="matrix(0.9387 -0.3448 0.3448 0.9387 -69.088 160.062)" class="st3" cx="415.4" cy="274.3" rx="7.7" ry="7.7"/>
			</g>
			<g>
				
					<ellipse transform="matrix(0.9387 -0.3448 0.3448 0.9387 -61.2649 157.3377)" class="st3" cx="411.7" cy="250.9" rx="7.7" ry="7.7"/>
			</g>
			<g>
				
					<ellipse transform="matrix(0.9387 -0.3447 0.3447 0.9387 -61.3227 142.679)" class="st3" cx="370.5" cy="243.8" rx="7.7" ry="7.7"/>
			</g>
			<g>
				
					<ellipse transform="matrix(0.9387 -0.3447 0.3447 0.9387 -69.9766 140.0218)" class="st3" cx="358.7" cy="266.8" rx="7.7" ry="7.7"/>
			</g>
			<g>
				
					<ellipse transform="matrix(0.9387 -0.3447 0.3447 0.9387 -76.5171 142.7455)" class="st3" cx="363.1" cy="286.5" rx="7.7" ry="7.7"/>
			</g>
			<g>
				
					<ellipse transform="matrix(0.9387 -0.3448 0.3448 0.9387 -56.2299 149.7348)" class="st3" cx="392.8" cy="232.9" rx="7.7" ry="7.7"/>
			</g>
			<g>
				
					<ellipse transform="matrix(0.9387 -0.3448 0.3448 0.9387 -82.3839 167.0424)" class="st3" cx="428.4" cy="315.1" rx="7.7" ry="7.7"/>
			</g>
			<g>
				
					<ellipse transform="matrix(0.9387 -0.3447 0.3447 0.9387 -72.2103 172.187)" class="st3" cx="448.1" cy="289.1" rx="7.7" ry="7.7"/>
			</g>
			<g>
				
					<ellipse transform="matrix(0.9387 -0.3448 0.3448 0.9387 -60.1979 170.3327)" class="st3" cx="448.8" cy="254.4" rx="7.7" ry="7.7"/>
			</g>
			<g>
				
					<ellipse transform="matrix(0.9387 -0.3448 0.3448 0.9387 -50.5553 165.9483)" class="st3" cx="441.3" cy="225.1" rx="7.7" ry="7.7"/>
			</g>
			<g>
				
					<ellipse transform="matrix(0.9387 -0.3448 0.3448 0.9387 -44.2279 156.3402)" class="st3" cx="417.5" cy="202.5" rx="7.7" ry="7.7"/>
			</g>
			<g>
				
					<ellipse transform="matrix(0.9387 -0.3448 0.3448 0.9387 -44.2874 143.3201)" class="st3" cx="380.8" cy="196.2" rx="7.7" ry="7.7"/>
			</g>
			<g>
				
					<ellipse transform="matrix(0.9387 -0.3448 0.3448 0.9387 -50.7083 132.0393)" class="st3" cx="345.8" cy="208.6" rx="7.7" ry="7.7"/>
			</g>
			<g>
				
					<ellipse transform="matrix(0.9387 -0.3447 0.3447 0.9387 -61.5983 126.6771)" class="st3" cx="325.4" cy="236.5" rx="7.7" ry="7.7"/>
			</g>
			<g>
				
					<ellipse transform="matrix(0.9387 -0.3448 0.3448 0.9387 -72.4159 126.517)" class="st3" cx="319.5" cy="266.9" rx="7.7" ry="7.7"/>
			</g>
			<g>
				
					<ellipse transform="matrix(0.9387 -0.3448 0.3448 0.9387 -83.8541 132.1617)" class="st3" cx="329.7" cy="301.8" rx="7.7" ry="7.7"/>
			</g>
			<g>
				
					<ellipse transform="matrix(0.9387 -0.3447 0.3447 0.9387 -91.4925 143.4718)" class="st3" cx="357.7" cy="329" rx="7.7" ry="7.7"/>
			</g>
			<g>
				<path class="st3" d="M391.6,295.1c0.5,0.1,1,0.5,1.1,1.1l4.3,31.5c0.1,0.7-0.4,1.3-1.1,1.4c-0.7,0.1-1.4-0.4-1.4-1.1l-4.3-31.5
					c-0.1-0.7,0.4-1.3,1.1-1.4C391.4,295.1,391.5,295.1,391.6,295.1z"/>
			</g>
			<g>
				<path class="st3" d="M408.2,291c0.3,0,0.5,0.2,0.7,0.4l20.6,22c0.5,0.5,0.5,1.3-0.1,1.8c-0.5,0.5-1.3,0.5-1.8-0.1l-20.6-22
					c-0.5-0.5-0.5-1.3,0.1-1.8C407.4,291,407.8,290.9,408.2,291z"/>
			</g>
			<g>
				<path class="st3" d="M415.4,274.4c0.1,0,0.2,0,0.3,0.1l30.3,13c0.7,0.3,1,1,0.7,1.7c-0.3,0.7-1,1-1.7,0.7l-30.3-13
					c-0.7-0.3-1-1-0.7-1.7C414.3,274.6,414.8,274.3,415.4,274.4z"/>
			</g>
			<g>
				<path class="st3" d="M447,252.8c0.5,0.1,1,0.5,1,1.1c0.1,0.7-0.4,1.4-1.1,1.5l-31.3,5c-0.7,0.1-1.4-0.4-1.5-1.1
					c-0.1-0.7,0.4-1.4,1.1-1.5l31.3-5C446.7,252.8,446.9,252.8,447,252.8z"/>
			</g>
			<g>
				<path class="st3" d="M440.2,225.1c0.3,0.1,0.7,0.3,0.9,0.6c0.4,0.6,0.2,1.4-0.4,1.8L414.4,244c-0.6,0.4-1.4,0.2-1.8-0.4
					c-0.4-0.6-0.2-1.4,0.4-1.8l26.3-16.5C439.6,225.1,439.9,225,440.2,225.1z"/>
			</g>
			<g>
				<path class="st3" d="M417.3,203.3c0.1,0,0.3,0.1,0.4,0.1c0.6,0.3,0.9,1.1,0.5,1.7L402.4,235c-0.3,0.6-1.1,0.9-1.7,0.5
					c-0.6-0.3-0.9-1.1-0.5-1.7L416,204C416.2,203.5,416.8,203.2,417.3,203.3z"/>
			</g>
			<g>
				<path class="st3" d="M380.6,197c0.6,0.1,1,0.6,1.1,1.2l2.7,37c0.1,0.7-0.5,1.3-1.2,1.4c-0.7,0.1-1.3-0.5-1.4-1.2l-2.7-37
					c-0.1-0.7,0.5-1.3,1.2-1.4C380.4,196.9,380.5,196.9,380.6,197z"/>
			</g>
			<g>
				<path class="st3" d="M359.1,282.5c0.3,0.1,0.7,0.3,0.9,0.6c0.4,0.6,0.2,1.4-0.4,1.8l-28,17.5c-0.6,0.4-1.4,0.2-1.8-0.4
					c-0.4-0.6-0.2-1.4,0.4-1.8l28-17.5C358.4,282.5,358.8,282.4,359.1,282.5z"/>
			</g>
			<g>
				<path class="st3" d="M371.5,294.5c0.1,0,0.2,0,0.3,0.1c0.7,0.3,1,1,0.7,1.7l-13.1,30.5c-0.3,0.7-1,1-1.7,0.7
					c-0.7-0.3-1-1-0.7-1.7l13.1-30.5C370.4,294.7,371,294.4,371.5,294.5z"/>
			</g>
			<g>
				<path class="st3" d="M356,265c0.6,0.1,1.1,0.6,1.1,1.2c0,0.7-0.5,1.3-1.3,1.3l-35.7,0.7c-0.7,0-1.3-0.6-1.3-1.3
					c0-0.7,0.5-1.3,1.3-1.3l35.7-0.7C355.9,265,355.9,265,356,265z"/>
			</g>
			<g>
				<path class="st3" d="M326.8,235.5c0.1,0,0.2,0.1,0.3,0.1l34.4,16.7c0.6,0.3,0.9,1.1,0.6,1.7c-0.3,0.6-1.1,0.9-1.7,0.6
					l-34.4-16.7c-0.6-0.3-0.9-1.1-0.6-1.7C325.7,235.7,326.3,235.4,326.8,235.5z"/>
			</g>
			<g>
				<path class="st3" d="M346.8,208.9c0.3,0.1,0.6,0.2,0.8,0.5l22.7,28.3c0.4,0.6,0.4,1.4-0.2,1.8c-0.6,0.4-1.4,0.4-1.8-0.2
					L345.6,211c-0.4-0.6-0.4-1.4,0.2-1.8C346.1,208.9,346.5,208.8,346.8,208.9z"/>
			</g>
			<g>
				<path class="st3" d="M383.9,284.5c0.7,0.1,1.2,0.8,1,1.5l-2,11.8c-0.1,0.7-0.8,1.2-1.5,1c-0.7-0.1-1.2-0.8-1-1.5l2-11.8
					C382.5,284.9,383.2,284.4,383.9,284.5z"/>
			</g>
			<g>
				<path class="st3" d="M394.3,279.4c0.3,0.1,0.6,0.2,0.8,0.5l7.1,10.4c0.4,0.6,0.3,1.4-0.3,1.8c-0.6,0.4-1.4,0.3-1.8-0.3
					l-7.1-10.4c-0.4-0.6-0.3-1.4,0.3-1.8C393.7,279.4,394,279.4,394.3,279.4z"/>
			</g>
			<g>
				<path class="st3" d="M396.3,268.4C396.3,268.4,396.3,268.4,396.3,268.4l16.9,4.2c0.7,0.2,1.1,0.9,0.9,1.6
					c-0.2,0.7-0.8,1.1-1.6,0.9l-16.9-4.2c-0.7-0.2-1.1-0.9-0.9-1.6C395,268.7,395.6,268.3,396.3,268.4z"/>
			</g>
			<g>
				<path class="st3" d="M408.1,251.3c0.4,0.1,0.8,0.4,1,0.8c0.2,0.7-0.1,1.4-0.8,1.6l-11.4,4.1c-0.7,0.2-1.4-0.1-1.6-0.8
					c-0.2-0.7,0.1-1.4,0.8-1.6l11.4-4.1C407.7,251.2,407.9,251.2,408.1,251.3z"/>
			</g>
			<g>
				<path class="st3" d="M392.4,235.5c0.7,0.1,1.2,0.8,1,1.5l-2.2,12.6c-0.1,0.7-0.8,1.2-1.5,1c-0.7-0.1-1.2-0.8-1-1.5l2.2-12.6
					C391,235.9,391.7,235.4,392.4,235.5z"/>
			</g>
			<g>
				<path class="st3" d="M372.3,245c0.3,0.1,0.6,0.2,0.8,0.4l9.5,11.6c0.4,0.5,0.4,1.4-0.2,1.8c-0.5,0.5-1.4,0.4-1.8-0.2l-9.5-11.6
					c-0.4-0.5-0.4-1.4,0.2-1.8C371.6,245.1,371.9,245,372.3,245z"/>
			</g>
			<g>
				<path class="st3" d="M374.6,276.7c0.3,0.1,0.6,0.2,0.8,0.5c0.4,0.6,0.3,1.4-0.2,1.8l-9,6.9c-0.6,0.4-1.4,0.3-1.8-0.2
					c-0.4-0.6-0.3-1.4,0.2-1.8l9-6.9C373.9,276.7,374.3,276.6,374.6,276.7z"/>
			</g>
			<g>
				<path class="st3" d="M376.2,267.4c0.7,0.1,1.1,0.7,1.1,1.4c-0.1,0.7-0.7,1.2-1.4,1.2l-14.3-1.4c-0.7-0.1-1.2-0.7-1.2-1.4
					c0.1-0.7,0.7-1.2,1.4-1.2L376.2,267.4C376.2,267.4,376.2,267.4,376.2,267.4z"/>
			</g>
		</g>
		<g class="st4">
			<g>
				<g>
					<g>
						<path class="st3" d="M130.4,383.7c0.9,0.2,1.5,1,1.4,1.9l-8.1,46.8c-0.2,0.9-1,1.5-1.9,1.4c-0.9-0.2-1.5-1-1.4-1.9l8.1-46.8
							C128.6,384.1,129.5,383.5,130.4,383.7z"/>
					</g>
					<g>
						
							<ellipse transform="matrix(0.1707 -0.9853 0.9853 0.1707 -328.7301 480.9516)" class="st3" cx="121.4" cy="435.8" rx="10" ry="10"/>
					</g>
				</g>
				<g>
					<g>
						<path class="st3" d="M159.2,217.5c0.9,0.2,1.5,1,1.4,1.9l-8.1,46.8c-0.2,0.9-1,1.5-1.9,1.4c-0.9-0.2-1.5-1-1.4-1.9l8.1-46.8
							C157.4,218,158.3,217.4,159.2,217.5z"/>
					</g>
					<g>
						
							<ellipse transform="matrix(0.1707 -0.9853 0.9853 0.1707 -80.0852 335.9302)" class="st3" cx="159.5" cy="215.5" rx="10" ry="10"/>
					</g>
				</g>
			</g>
			<g>
				<g>
					<g>
						<path class="st3" d="M161.6,380.9c0.6,0.1,1.1,0.5,1.3,1.1l16.4,44.6c0.3,0.9-0.1,1.8-1,2.2c-0.9,0.3-1.8-0.1-2.2-1
							l-16.4-44.6c-0.3-0.9,0.1-1.8,1-2.1C161,380.8,161.3,380.8,161.6,380.9z"/>
					</g>
					<g>
						
							<ellipse transform="matrix(0.9387 -0.3448 0.3448 0.9387 -137.4663 88.1011)" class="st3" cx="179" cy="430.6" rx="10" ry="10"/>
					</g>
				</g>
				<g>
					<g>
						<path class="st3" d="M103.5,222.6c0.6,0.1,1.1,0.5,1.3,1.1l16.4,44.6c0.3,0.9-0.1,1.8-1,2.1c-0.9,0.3-1.8-0.1-2.2-1
							l-16.4-44.6c-0.3-0.9,0.1-1.8,1-2.1C102.9,222.6,103.2,222.5,103.5,222.6z"/>
					</g>
					<g>
						
							<ellipse transform="matrix(0.9387 -0.3448 0.3448 0.9387 -69.8649 48.6782)" class="st3" cx="101.9" cy="220.8" rx="10" ry="10"/>
					</g>
				</g>
			</g>
			<g>
				<g>
					<g>
						<path class="st3" d="M187.3,362.8c0.3,0,0.6,0.2,0.8,0.4l36.5,30.4c0.7,0.6,0.8,1.6,0.2,2.4c-0.6,0.7-1.7,0.8-2.4,0.2
							l-36.5-30.4c-0.7-0.6-0.8-1.6-0.2-2.4C186.1,362.9,186.7,362.7,187.3,362.8z"/>
					</g>
					<g>
						
							<ellipse transform="matrix(0.6405 -0.7679 0.7679 0.6405 -223.7185 316.5546)" class="st3" cx="226.3" cy="397.2" rx="10" ry="10"/>
					</g>
				</g>
				<g>
					<g>
						<path class="st3" d="M57.8,254.8c0.3,0,0.6,0.2,0.8,0.4L95,285.6c0.7,0.6,0.8,1.6,0.2,2.4c-0.6,0.7-1.7,0.8-2.4,0.2
							l-36.5-30.4c-0.7-0.6-0.8-1.6-0.2-2.4C56.6,254.9,57.2,254.7,57.8,254.8z"/>
					</g>
					<g>
						
							<ellipse transform="matrix(0.6405 -0.7679 0.7679 0.6405 -175.4754 133.2858)" class="st3" cx="54.6" cy="254.1" rx="10" ry="10"/>
					</g>
				</g>
			</g>
			<g>
				<g>
					<g>
						<path class="st3" d="M200.4,334.4l46.8,8.1c0.9,0.2,1.5,1,1.4,1.9c-0.2,0.9-1,1.5-1.9,1.4l-46.8-8.1c-0.9-0.2-1.5-1-1.4-1.9
							C198.6,334.8,199.5,334.2,200.4,334.4z"/>
					</g>
					<g>
						
							<ellipse transform="matrix(0.1707 -0.9853 0.9853 0.1707 -131.8987 532.7629)" class="st3" cx="250.6" cy="344.7" rx="10" ry="10"/>
					</g>
				</g>
				<g>
					<g>
						<path class="st3" d="M34.3,305.6l46.8,8.1c0.9,0.2,1.5,1,1.4,1.9c-0.2,0.9-1,1.5-1.9,1.4l-46.8-8.1c-0.9-0.2-1.5-1-1.4-1.9
							C32.5,306,33.4,305.4,34.3,305.6z"/>
					</g>
					<g>
						
							<ellipse transform="matrix(0.1708 -0.9853 0.9853 0.1708 -276.917 284.1114)" class="st3" cx="30.3" cy="306.6" rx="10" ry="10"/>
					</g>
				</g>
			</g>
			<g>
				<g>
					<g>
						<path class="st3" d="M242.2,286.8c0.6,0.1,1.1,0.5,1.3,1.1c0.3,0.9-0.1,1.8-1,2.1l-44.6,16.4c-0.9,0.3-1.8-0.1-2.2-1
							c-0.3-0.9,0.1-1.8,1-2.1l44.6-16.4C241.6,286.7,241.9,286.7,242.2,286.8z"/>
					</g>
					<g>
						
							<ellipse transform="matrix(0.9387 -0.3447 0.3447 0.9387 -83.9405 102.1781)" class="st3" cx="245.4" cy="287.1" rx="10" ry="10"/>
					</g>
				</g>
				<g>
					<g>
						<path class="st3" d="M83.9,344.9c0.6,0.1,1.1,0.5,1.3,1.1c0.3,0.9-0.1,1.8-1,2.1l-44.6,16.4c-0.9,0.3-1.8-0.1-2.2-1
							c-0.3-0.9,0.1-1.8,1-2.1L83,345C83.3,344.9,83.6,344.8,83.9,344.9z"/>
					</g>
					<g>
						
							<ellipse transform="matrix(0.9387 -0.3448 0.3448 0.9387 -123.3862 34.5866)" class="st3" cx="35.5" cy="364.2" rx="10" ry="10"/>
					</g>
				</g>
			</g>
			<g>
				<g>
					<g>
						<path class="st3" d="M209.9,241c0.3,0,0.6,0.2,0.8,0.4c0.7,0.6,0.8,1.6,0.2,2.4l-30.4,36.5c-0.6,0.7-1.6,0.8-2.4,0.2
							c-0.7-0.6-0.8-1.6-0.2-2.4l30.4-36.5C208.8,241.1,209.4,240.9,209.9,241z"/>
					</g>
					<g>
						
							<ellipse transform="matrix(0.6405 -0.7679 0.7679 0.6405 -107.9601 249.0407)" class="st3" cx="212" cy="239.8" rx="10" ry="10"/>
					</g>
				</g>
				<g>
					<g>
						<path class="st3" d="M101.9,370.5c0.3,0,0.6,0.2,0.8,0.4c0.7,0.6,0.8,1.6,0.2,2.4l-30.4,36.5c-0.6,0.7-1.7,0.8-2.4,0.2
							c-0.7-0.6-0.8-1.6-0.2-2.4l30.4-36.5C100.8,370.6,101.4,370.4,101.9,370.5z"/>
					</g>
					<g>
						
							<ellipse transform="matrix(0.6405 -0.7679 0.7679 0.6405 -291.2377 200.806)" class="st3" cx="68.9" cy="411.5" rx="10" ry="10"/>
					</g>
				</g>
			</g>
			<g>
				
					<ellipse transform="matrix(0.1708 -0.9853 0.9853 0.1708 -203.1277 407.6877)" class="st3" cx="140.6" cy="324.5" rx="71.8" ry="71.8"/>
			</g>
			<g>
				
					<ellipse transform="matrix(0.9387 -0.3448 0.3448 0.9387 -133.1479 77.2262)" class="st3" cx="150.6" cy="413" rx="10" ry="10"/>
			</g>
			<g>
				
					<ellipse transform="matrix(0.9387 -0.3448 0.3448 0.9387 -121.3709 68.4698)" class="st3" cx="131.8" cy="375.5" rx="10" ry="10"/>
			</g>
			<g>
				
					<ellipse transform="matrix(0.9387 -0.3448 0.3448 0.9387 -105.5065 68.4056)" class="st3" cx="139.6" cy="330.8" rx="12" ry="12"/>
			</g>
			<g>
				
					<ellipse transform="matrix(0.9387 -0.3448 0.3448 0.9387 -116.9419 77.9403)" class="st3" cx="160.7" cy="367.7" rx="10" ry="10"/>
			</g>
			<g>
				
					<ellipse transform="matrix(0.9387 -0.3448 0.3448 0.9387 -106.5559 81.8122)" class="st3" cx="176.7" cy="340.5" rx="10" ry="10"/>
			</g>
			<g>
				<ellipse transform="matrix(0.9387 -0.3448 0.3448 0.9387 -96.3433 78.2559)" class="st3" cx="171.8" cy="310" rx="10" ry="10"/>
			</g>
			<g>
				
					<ellipse transform="matrix(0.9387 -0.3447 0.3447 0.9387 -96.4128 59.1461)" class="st3" cx="118.1" cy="300.7" rx="10" ry="10"/>
			</g>
			<g>
				
					<ellipse transform="matrix(0.9387 -0.3447 0.3447 0.9387 -107.7068 55.683)" class="st3" cx="102.7" cy="330.7" rx="10" ry="10"/>
			</g>
			<g>
				
					<ellipse transform="matrix(0.9387 -0.3447 0.3447 0.9387 -116.2446 59.2319)" class="st3" cx="108.4" cy="356.5" rx="10" ry="10"/>
			</g>
			<g>
				
					<ellipse transform="matrix(0.9387 -0.3448 0.3448 0.9387 -89.7714 68.3354)" class="st3" cx="147.2" cy="286.5" rx="10" ry="10"/>
			</g>
			<g>
				
					<ellipse transform="matrix(0.9387 -0.3448 0.3448 0.9387 -123.9112 90.9209)" class="st3" cx="193.6" cy="393.8" rx="10" ry="10"/>
			</g>
			<g>
				
					<ellipse transform="matrix(0.9387 -0.3447 0.3447 0.9387 -110.6225 97.6663)" class="st3" cx="219.3" cy="359.9" rx="10" ry="10"/>
			</g>
			<g>
				
					<ellipse transform="matrix(0.9387 -0.3448 0.3448 0.9387 -94.9487 95.2277)" class="st3" cx="220.3" cy="314.6" rx="10" ry="10"/>
			</g>
			<g>
				
					<ellipse transform="matrix(0.9387 -0.3448 0.3448 0.9387 -82.3612 89.508)" class="st3" cx="210.5" cy="276.3" rx="10" ry="10"/>
			</g>
			<g>
				
					<ellipse transform="matrix(0.9387 -0.3448 0.3448 0.9387 -74.1006 76.9677)" class="st3" cx="179.4" cy="246.8" rx="10" ry="10"/>
			</g>
			<g>
				
					<ellipse transform="matrix(0.9387 -0.3448 0.3448 0.9387 -74.1826 59.9587)" class="st3" cx="131.5" cy="238.5" rx="10" ry="10"/>
			</g>
			<g>
				<ellipse transform="matrix(0.9387 -0.3448 0.3448 0.9387 -82.5667 45.229)" class="st3" cx="85.9" cy="254.7" rx="10" ry="10"/>
			</g>
			<g>
				<ellipse transform="matrix(0.9387 -0.3447 0.3447 0.9387 -96.771 38.258)" class="st3" cx="59.2" cy="291.2" rx="10" ry="10"/>
			</g>
			<g>
				
					<ellipse transform="matrix(0.9387 -0.3448 0.3448 0.9387 -110.8955 38.0387)" class="st3" cx="51.5" cy="330.8" rx="10" ry="10"/>
			</g>
			<g>
				
					<ellipse transform="matrix(0.9387 -0.3448 0.3448 0.9387 -125.8253 45.4092)" class="st3" cx="64.8" cy="376.5" rx="10" ry="10"/>
			</g>
			<g>
				<ellipse transform="matrix(0.9387 -0.3447 0.3447 0.9387 -135.787 60.2024)" class="st3" cx="101.4" cy="412" rx="10" ry="10"/>
			</g>
			<g>
				<path class="st3" d="M145.6,367.6c0.7,0.1,1.3,0.7,1.4,1.4l5.6,41.1c0.1,0.9-0.5,1.8-1.4,1.9c-0.9,0.1-1.8-0.5-1.9-1.4
					l-5.7-41.1c-0.1-0.9,0.5-1.8,1.4-1.9C145.3,367.6,145.5,367.6,145.6,367.6z"/>
			</g>
			<g>
				<path class="st3" d="M167.3,362.3c0.3,0.1,0.7,0.2,0.9,0.5l26.9,28.7c0.6,0.7,0.6,1.7-0.1,2.4c-0.7,0.6-1.7,0.6-2.4-0.1
					l-26.9-28.7c-0.6-0.7-0.6-1.7,0.1-2.4C166.2,362.4,166.8,362.2,167.3,362.3z"/>
			</g>
			<g>
				<path class="st3" d="M176.7,340.6c0.1,0,0.3,0.1,0.4,0.1l39.6,17c0.8,0.4,1.2,1.4,0.9,2.2c-0.4,0.9-1.4,1.2-2.2,0.9l-39.6-17
					c-0.9-0.4-1.2-1.4-0.9-2.2C175.2,340.9,175.9,340.5,176.7,340.6z"/>
			</g>
			<g>
				<path class="st3" d="M217.9,312.5c0.7,0.1,1.3,0.7,1.4,1.4c0.1,0.9-0.5,1.8-1.4,1.9l-40.9,6.5c-0.9,0.1-1.8-0.5-1.9-1.4
					c-0.1-0.9,0.5-1.8,1.4-1.9l40.9-6.5C217.6,312.4,217.7,312.4,217.9,312.5z"/>
			</g>
			<g>
				<path class="st3" d="M209.1,276.3c0.5,0.1,0.9,0.3,1.1,0.8c0.5,0.8,0.3,1.8-0.5,2.3l-34.3,21.5c-0.8,0.5-1.8,0.3-2.3-0.5
					c-0.5-0.8-0.3-1.8,0.5-2.3l34.3-21.5C208.3,276.3,208.7,276.2,209.1,276.3z"/>
			</g>
			<g>
				<path class="st3" d="M179.2,247.9c0.2,0,0.3,0.1,0.5,0.2c0.8,0.4,1.1,1.4,0.7,2.3l-20.7,38.9c-0.4,0.8-1.5,1.1-2.3,0.7
					c-0.8-0.4-1.1-1.4-0.7-2.3l20.7-38.9C177.8,248.1,178.5,247.7,179.2,247.9z"/>
			</g>
			<g>
				<path class="st3" d="M131.3,239.6c0.7,0.1,1.3,0.7,1.4,1.5l3.5,48.3c0.1,0.9-0.6,1.7-1.5,1.8c-0.9,0.1-1.7-0.6-1.8-1.5
					l-3.5-48.3c-0.1-0.9,0.6-1.7,1.5-1.8C131,239.5,131.2,239.5,131.3,239.6z"/>
			</g>
			<g>
				<path class="st3" d="M103.1,351.2c0.5,0.1,0.9,0.3,1.1,0.8c0.5,0.8,0.2,1.8-0.5,2.3l-36.6,22.8c-0.8,0.5-1.8,0.2-2.3-0.5
					c-0.5-0.8-0.3-1.8,0.5-2.3l36.6-22.8C102.3,351.2,102.7,351.1,103.1,351.2z"/>
			</g>
			<g>
				<path class="st3" d="M119.4,366.8c0.1,0,0.3,0.1,0.4,0.1c0.9,0.4,1.2,1.3,0.9,2.2l-17.1,39.8c-0.4,0.9-1.4,1.2-2.2,0.9
					c-0.9-0.4-1.2-1.4-0.9-2.2l17.1-39.8C117.9,367.1,118.7,366.7,119.4,366.8z"/>
			</g>
			<g>
				<path class="st3" d="M99.2,328.4c0.8,0.1,1.4,0.8,1.4,1.6c0,0.9-0.7,1.7-1.6,1.7l-46.6,0.9c-0.9,0-1.7-0.7-1.7-1.6
					c0-0.9,0.7-1.7,1.6-1.7l46.6-0.9C98.9,328.4,99.1,328.4,99.2,328.4z"/>
			</g>
			<g>
				<path class="st3" d="M61.1,289.9c0.2,0,0.3,0.1,0.4,0.1l44.9,21.9c0.8,0.4,1.2,1.4,0.8,2.2c-0.4,0.8-1.4,1.2-2.2,0.8L60.1,293
					c-0.8-0.4-1.2-1.4-0.8-2.2C59.6,290.1,60.4,289.7,61.1,289.9z"/>
			</g>
			<g>
				<path class="st3" d="M87.2,255.2c0.4,0.1,0.8,0.3,1,0.6l29.6,36.9c0.6,0.7,0.5,1.8-0.3,2.4c-0.7,0.6-1.8,0.5-2.4-0.3l-29.6-36.9
					c-0.6-0.7-0.5-1.8,0.3-2.4C86.2,255.2,86.7,255.1,87.2,255.2z"/>
			</g>
			<g>
				<path class="st3" d="M135.6,353.8c0.9,0.2,1.5,1,1.4,1.9l-2.7,15.3c-0.2,0.9-1,1.5-1.9,1.4c-0.9-0.2-1.5-1-1.4-1.9l2.7-15.3
					C133.8,354.3,134.7,353.7,135.6,353.8z"/>
			</g>
			<g>
				<path class="st3" d="M149.2,347.2c0.4,0.1,0.8,0.3,1.1,0.7l9.3,13.5c0.5,0.8,0.3,1.8-0.4,2.3c-0.8,0.5-1.8,0.3-2.3-0.4
					l-9.3-13.5c-0.5-0.8-0.3-1.8,0.4-2.3C148.3,347.2,148.8,347.2,149.2,347.2z"/>
			</g>
			<g>
				<path class="st3" d="M151.7,332.8c0,0,0.1,0,0.1,0l22,5.4c0.9,0.2,1.4,1.1,1.2,2c-0.2,0.9-1.1,1.5-2,1.2l-22-5.4
					c-0.9-0.2-1.4-1.1-1.2-2C150,333.2,150.8,332.7,151.7,332.8z"/>
			</g>
			<g>
				<path class="st3" d="M167.2,310.4c0.6,0.1,1.1,0.5,1.3,1.1c0.3,0.9-0.1,1.8-1,2.1l-14.9,5.4c-0.9,0.3-1.8-0.1-2.1-1
					c-0.3-0.9,0.1-1.8,1-2.1l14.9-5.4C166.6,310.4,166.9,310.4,167.2,310.4z"/>
			</g>
			<g>
				<path class="st3" d="M146.6,289.9c0.9,0.2,1.5,1,1.4,1.9l-2.9,16.5c-0.2,0.9-1,1.5-1.9,1.4c-0.9-0.2-1.5-1-1.4-1.9l2.9-16.5
					C144.9,290.4,145.7,289.8,146.6,289.9z"/>
			</g>
			<g>
				<path class="st3" d="M120.4,302.3c0.4,0.1,0.7,0.3,1,0.6l12.4,15.1c0.6,0.7,0.5,1.8-0.2,2.4c-0.7,0.6-1.8,0.5-2.4-0.2
					l-12.4-15.1c-0.6-0.7-0.5-1.8,0.2-2.4C119.5,302.4,120,302.3,120.4,302.3z"/>
			</g>
			<g>
				<path class="st3" d="M123.4,343.6c0.4,0.1,0.8,0.3,1,0.6c0.6,0.7,0.4,1.8-0.3,2.4l-11.7,9c-0.7,0.6-1.8,0.4-2.3-0.3
					c-0.6-0.7-0.4-1.8,0.3-2.4l11.7-9C122.5,343.7,123,343.6,123.4,343.6z"/>
			</g>
			<g>
				<path class="st3" d="M125.5,331.5c0.9,0.1,1.5,0.9,1.4,1.8c-0.1,0.9-0.9,1.6-1.8,1.5l-18.7-1.8c-0.9-0.1-1.6-0.9-1.5-1.8
					c0.1-0.9,0.9-1.6,1.8-1.5l18.7,1.8C125.4,331.5,125.5,331.5,125.5,331.5z"/>
			</g>
		</g>
		<g class="st5">
			<g>
				<g>
					<g>
						<path class="st3" d="M210.9,85.9c0.3,0,0.5,0.3,0.4,0.6l-2.5,14.4c0,0.3-0.3,0.5-0.6,0.4c-0.3,0-0.5-0.3-0.4-0.6l2.5-14.4
							C210.3,86.1,210.6,85.9,210.9,85.9z"/>
					</g>
					<g>
						
							<ellipse transform="matrix(0.1707 -0.9853 0.9853 0.1707 72.1112 289.5575)" class="st3" cx="208.1" cy="101.9" rx="3.1" ry="3.1"/>
					</g>
				</g>
				<g>
					<g>
						<path class="st3" d="M219.7,34.9c0.3,0,0.5,0.3,0.4,0.6l-2.5,14.4c0,0.3-0.3,0.5-0.6,0.4c-0.3,0-0.5-0.3-0.4-0.6l2.5-14.4
							C219.2,35,219.4,34.8,219.7,34.9z"/>
					</g>
					<g>
						
							<ellipse transform="matrix(0.1708 -0.9853 0.9853 0.1708 148.4927 245.0068)" class="st3" cx="219.8" cy="34.3" rx="3.1" ry="3.1"/>
					</g>
				</g>
			</g>
			<g>
				<g>
					<g>
						<path class="st3" d="M220.4,85.1c0.2,0,0.3,0.2,0.4,0.3l5,13.7c0.1,0.3,0,0.6-0.3,0.7c-0.3,0.1-0.6,0-0.7-0.3l-5-13.7
							c-0.1-0.3,0-0.6,0.3-0.7C220.3,85.1,220.4,85.1,220.4,85.1z"/>
					</g>
					<g>
						
							<ellipse transform="matrix(0.9387 -0.3448 0.3448 0.9387 -20.7498 83.989)" class="st3" cx="225.8" cy="100.3" rx="3.1" ry="3.1"/>
					</g>
				</g>
				<g>
					<g>
						<path class="st3" d="M202.6,36.4c0.2,0,0.3,0.2,0.4,0.3l5,13.7c0.1,0.3,0,0.6-0.3,0.7c-0.3,0.1-0.6,0-0.7-0.3l-5-13.7
							c-0.1-0.3,0-0.6,0.3-0.7C202.4,36.4,202.5,36.4,202.6,36.4z"/>
					</g>
					<g>
						
							<ellipse transform="matrix(0.9387 -0.3448 0.3448 0.9387 2.073674e-02 71.8856)" class="st3" cx="202.1" cy="35.9" rx="3.1" ry="3.1"/>
					</g>
				</g>
			</g>
			<g>
				<g>
					<g>
						<path class="st3" d="M228.3,79.5c0.1,0,0.2,0.1,0.2,0.1l11.2,9.3c0.2,0.2,0.2,0.5,0.1,0.7c-0.2,0.2-0.5,0.2-0.7,0.1l-11.2-9.3
							c-0.2-0.2-0.2-0.5-0.1-0.7C228,79.6,228.1,79.5,228.3,79.5z"/>
					</g>
					<g>
						
							<ellipse transform="matrix(0.6405 -0.7679 0.7679 0.6405 17.1908 216.9276)" class="st3" cx="240.3" cy="90.1" rx="3.1" ry="3.1"/>
					</g>
				</g>
				<g>
					<g>
						<path class="st3" d="M188.5,46.3c0.1,0,0.2,0.1,0.2,0.1l11.2,9.3c0.2,0.2,0.2,0.5,0.1,0.7c-0.2,0.2-0.5,0.2-0.7,0.1l-11.2-9.3
							c-0.2-0.2-0.2-0.5-0.1-0.7C188.2,46.4,188.4,46.3,188.5,46.3z"/>
					</g>
					<g>
						
							<ellipse transform="matrix(0.6405 -0.7679 0.7679 0.6405 32.0122 160.6275)" class="st3" cx="187.6" cy="46.1" rx="3.1" ry="3.1"/>
					</g>
				</g>
			</g>
			<g>
				<g>
					<g>
						<path class="st3" d="M232.4,70.8l14.4,2.5c0.3,0,0.5,0.3,0.4,0.6c0,0.3-0.3,0.5-0.6,0.4l-14.4-2.5c-0.3,0-0.5-0.3-0.4-0.6
							C231.8,70.9,232.1,70.7,232.4,70.8z"/>
					</g>
					<g>
						
							<ellipse transform="matrix(0.1707 -0.9853 0.9853 0.1707 132.5775 305.4742)" class="st3" cx="247.8" cy="74" rx="3.1" ry="3.1"/>
					</g>
				</g>
				<g>
					<g>
						<path class="st3" d="M181.3,61.9l14.4,2.5c0.3,0,0.5,0.3,0.4,0.6c0,0.3-0.3,0.5-0.6,0.4l-14.4-2.5c-0.3,0-0.5-0.3-0.4-0.6
							C180.8,62.1,181,61.9,181.3,61.9z"/>
					</g>
					<g>
						
							<ellipse transform="matrix(0.1708 -0.9853 0.9853 0.1708 88.0243 229.0886)" class="st3" cx="180.1" cy="62.2" rx="3.1" ry="3.1"/>
					</g>
				</g>
			</g>
			<g>
				<g>
					<g>
						<path class="st3" d="M245.2,56.2c0.2,0,0.3,0.2,0.4,0.3c0.1,0.3,0,0.6-0.3,0.7l-13.7,5c-0.3,0.1-0.6,0-0.7-0.3
							c-0.1-0.3,0-0.6,0.3-0.7l13.7-5C245,56.2,245.1,56.1,245.2,56.2z"/>
					</g>
					<g>
						
							<ellipse transform="matrix(0.9387 -0.3447 0.3447 0.9387 -4.3102 88.3083)" class="st3" cx="246.2" cy="56.3" rx="3.1" ry="3.1"/>
					</g>
				</g>
				<g>
					<g>
						<path class="st3" d="M196.6,74c0.2,0,0.3,0.2,0.4,0.3c0.1,0.3,0,0.6-0.3,0.7L183,80c-0.3,0.1-0.6,0-0.7-0.3
							c-0.1-0.3,0-0.6,0.3-0.7l13.7-5C196.4,74,196.5,74,196.6,74z"/>
					</g>
					<g>
						
							<ellipse transform="matrix(0.9387 -0.3448 0.3448 0.9387 -16.4222 67.5561)" class="st3" cx="181.7" cy="79.9" rx="3.1" ry="3.1"/>
					</g>
				</g>
			</g>
			<g>
				<g>
					<g>
						<path class="st3" d="M235.3,42.1c0.1,0,0.2,0.1,0.2,0.1c0.2,0.2,0.2,0.5,0.1,0.7l-9.3,11.2c-0.2,0.2-0.5,0.2-0.7,0.1
							c-0.2-0.2-0.2-0.5-0.1-0.7l9.3-11.2C234.9,42.1,235.1,42.1,235.3,42.1z"/>
					</g>
					<g>
						
							<ellipse transform="matrix(0.6405 -0.7679 0.7679 0.6405 52.7504 196.1859)" class="st3" cx="235.9" cy="41.7" rx="3.1" ry="3.1"/>
					</g>
				</g>
				<g>
					<g>
						<path class="st3" d="M202.1,81.9c0.1,0,0.2,0.1,0.2,0.1c0.2,0.2,0.2,0.5,0.1,0.7l-9.3,11.2c-0.2,0.2-0.5,0.2-0.7,0.1
							c-0.2-0.2-0.2-0.5-0.1-0.7l9.3-11.2C201.7,81.9,201.9,81.9,202.1,81.9z"/>
					</g>
					<g>
						
							<ellipse transform="matrix(0.6405 -0.7679 0.7679 0.6405 -3.5479 181.37)" class="st3" cx="192" cy="94.5" rx="3.1" ry="3.1"/>
					</g>
				</g>
			</g>
			<g>
				
					<ellipse transform="matrix(0.1708 -0.9853 0.9853 0.1708 110.6926 267.0508)" class="st3" cx="214" cy="67.8" rx="22.1" ry="22.1"/>
			</g>
			<g>
				
					<ellipse transform="matrix(0.9387 -0.3448 0.3448 0.9387 -19.4232 80.6494)" class="st3" cx="217" cy="94.9" rx="3.1" ry="3.1"/>
			</g>
			<g>
				
					<ellipse transform="matrix(0.9387 -0.3448 0.3448 0.9387 -15.8033 77.9646)" class="st3" cx="211.3" cy="83.4" rx="3.1" ry="3.1"/>
			</g>
			<g>
				
					<ellipse transform="matrix(0.9387 -0.3448 0.3448 0.9387 -10.9278 77.9473)" class="st3" cx="213.7" cy="69.7" rx="3.7" ry="3.7"/>
			</g>
			<g>
				<ellipse transform="matrix(0.9387 -0.3448 0.3448 0.9387 -14.442 80.8746)" class="st3" cx="220.1" cy="81" rx="3.1" ry="3.1"/>
			</g>
			<g>
				
					<ellipse transform="matrix(0.9387 -0.3448 0.3448 0.9387 -11.2497 82.066)" class="st3" cx="225.1" cy="72.7" rx="3.1" ry="3.1"/>
			</g>
			<g>
				
					<ellipse transform="matrix(0.9387 -0.3448 0.3448 0.9387 -8.1127 80.9756)" class="st3" cx="223.6" cy="63.3" rx="3.1" ry="3.1"/>
			</g>
			<g>
				
					<ellipse transform="matrix(0.9387 -0.3447 0.3447 0.9387 -8.1396 75.0942)" class="st3" cx="207.1" cy="60.4" rx="3.1" ry="3.1"/>
			</g>
			<g>
				
					<ellipse transform="matrix(0.9387 -0.3447 0.3447 0.9387 -11.6106 74.0279)" class="st3" cx="202.4" cy="69.7" rx="3.1" ry="3.1"/>
			</g>
			<g>
				
					<ellipse transform="matrix(0.9387 -0.3447 0.3447 0.9387 -14.2323 75.1176)" class="st3" cx="204.1" cy="77.6" rx="3.1" ry="3.1"/>
			</g>
			<g>
				<ellipse transform="matrix(0.9387 -0.3448 0.3448 0.9387 -6.0946 77.9219)" class="st3" cx="216" cy="56.1" rx="3.1" ry="3.1"/>
			</g>
			<g>
				
					<ellipse transform="matrix(0.9387 -0.3448 0.3448 0.9387 -16.5808 84.8641)" class="st3" cx="230.3" cy="89" rx="3.1" ry="3.1"/>
			</g>
			<g>
				
					<ellipse transform="matrix(0.9387 -0.3447 0.3447 0.9387 -12.506 86.925)" class="st3" cx="238.2" cy="78.6" rx="3.1" ry="3.1"/>
			</g>
			<g>
				
					<ellipse transform="matrix(0.9387 -0.3448 0.3448 0.9387 -7.6865 86.1823)" class="st3" cx="238.5" cy="64.7" rx="3.1" ry="3.1"/>
			</g>
			<g>
				<ellipse transform="matrix(0.9387 -0.3448 0.3448 0.9387 -3.8205 84.4239)" class="st3" cx="235.5" cy="53" rx="3.1" ry="3.1"/>
			</g>
			<g>
				
					<ellipse transform="matrix(0.9387 -0.3448 0.3448 0.9387 -1.2837 80.5711)" class="st3" cx="225.9" cy="43.9" rx="3.1" ry="3.1"/>
			</g>
			<g>
				
					<ellipse transform="matrix(0.9387 -0.3448 0.3448 0.9387 -1.3051 75.3531)" class="st3" cx="211.2" cy="41.3" rx="3.1" ry="3.1"/>
			</g>
			<g>
				
					<ellipse transform="matrix(0.9387 -0.3448 0.3448 0.9387 -3.8793 70.826)" class="st3" cx="197.2" cy="46.3" rx="3.1" ry="3.1"/>
			</g>
			<g>
				<ellipse transform="matrix(0.9387 -0.3447 0.3447 0.9387 -8.2502 68.6762)" class="st3" cx="189" cy="57.5" rx="3.1" ry="3.1"/>
			</g>
			<g>
				
					<ellipse transform="matrix(0.9387 -0.3448 0.3448 0.9387 -12.5862 68.6143)" class="st3" cx="186.6" cy="69.7" rx="3.1" ry="3.1"/>
			</g>
			<g>
				
					<ellipse transform="matrix(0.9387 -0.3448 0.3448 0.9387 -17.173 70.8756)" class="st3" cx="190.7" cy="83.7" rx="3.1" ry="3.1"/>
			</g>
			<g>
				
					<ellipse transform="matrix(0.9387 -0.3447 0.3447 0.9387 -20.2406 75.4079)" class="st3" cx="202" cy="94.6" rx="3.1" ry="3.1"/>
			</g>
			<g>
				<path class="st3" d="M215.5,81c0.2,0,0.4,0.2,0.4,0.4l1.7,12.6c0,0.3-0.2,0.5-0.4,0.6c-0.3,0-0.5-0.2-0.6-0.4l-1.7-12.6
					c0-0.3,0.2-0.5,0.4-0.6C215.4,81,215.5,81,215.5,81z"/>
			</g>
			<g>
				<path class="st3" d="M222.2,79.4c0.1,0,0.2,0.1,0.3,0.2l8.3,8.8c0.2,0.2,0.2,0.5,0,0.7c-0.2,0.2-0.5,0.2-0.7,0l-8.2-8.8
					c-0.2-0.2-0.2-0.5,0-0.7C221.9,79.4,222,79.3,222.2,79.4z"/>
			</g>
			<g>
				<path class="st3" d="M225.1,72.7c0,0,0.1,0,0.1,0l12.2,5.2c0.3,0.1,0.4,0.4,0.3,0.7c-0.1,0.3-0.4,0.4-0.7,0.3l-12.2-5.2
					c-0.3-0.1-0.4-0.4-0.3-0.7C224.6,72.8,224.8,72.7,225.1,72.7z"/>
			</g>
			<g>
				<path class="st3" d="M237.7,64.1c0.2,0,0.4,0.2,0.4,0.4c0,0.3-0.1,0.5-0.4,0.6l-12.6,2c-0.3,0-0.5-0.1-0.6-0.4
					c0-0.3,0.1-0.5,0.4-0.6l12.6-2C237.6,64,237.7,64,237.7,64.1z"/>
			</g>
			<g>
				<path class="st3" d="M235,52.9c0.1,0,0.3,0.1,0.3,0.2c0.2,0.2,0.1,0.6-0.2,0.7l-10.6,6.6c-0.2,0.2-0.6,0.1-0.7-0.2
					c-0.2-0.2-0.1-0.6,0.2-0.7l10.6-6.6C234.8,52.9,234.9,52.9,235,52.9z"/>
			</g>
			<g>
				<path class="st3" d="M225.8,44.2c0.1,0,0.1,0,0.2,0.1c0.3,0.1,0.3,0.4,0.2,0.7l-6.3,12c-0.1,0.3-0.4,0.3-0.7,0.2
					c-0.3-0.1-0.3-0.4-0.2-0.7l6.3-12C225.4,44.3,225.6,44.2,225.8,44.2z"/>
			</g>
			<g>
				<path class="st3" d="M211.1,41.7c0.2,0,0.4,0.2,0.4,0.5l1.1,14.8c0,0.3-0.2,0.5-0.5,0.6c-0.3,0-0.5-0.2-0.6-0.5l-1.1-14.8
					c0-0.3,0.2-0.5,0.5-0.6C211,41.7,211.1,41.7,211.1,41.7z"/>
			</g>
			<g>
				<path class="st3" d="M202.5,76c0.1,0,0.3,0.1,0.3,0.2c0.2,0.2,0.1,0.6-0.2,0.7l-11.2,7c-0.2,0.1-0.6,0.1-0.7-0.2
					c-0.2-0.2-0.1-0.6,0.2-0.7l11.2-7C202.2,76,202.4,75.9,202.5,76z"/>
			</g>
			<g>
				<path class="st3" d="M207.5,80.8c0,0,0.1,0,0.1,0c0.3,0.1,0.4,0.4,0.3,0.7l-5.2,12.2c-0.1,0.3-0.4,0.4-0.7,0.3
					c-0.3-0.1-0.4-0.4-0.3-0.7l5.2-12.2C207,80.8,207.2,80.7,207.5,80.8z"/>
			</g>
			<g>
				<path class="st3" d="M201.3,68.9c0.2,0,0.4,0.2,0.4,0.5c0,0.3-0.2,0.5-0.5,0.5l-14.3,0.3c-0.3,0-0.5-0.2-0.5-0.5
					c0-0.3,0.2-0.5,0.5-0.5L201.3,68.9C201.2,68.9,201.2,68.9,201.3,68.9z"/>
			</g>
			<g>
				<path class="st3" d="M189.6,57.1c0,0,0.1,0,0.1,0l13.8,6.7c0.3,0.1,0.4,0.4,0.2,0.7c-0.1,0.3-0.4,0.4-0.7,0.2l-13.8-6.7
					c-0.3-0.1-0.4-0.4-0.2-0.7C189.1,57.2,189.3,57.1,189.6,57.1z"/>
			</g>
			<g>
				<path class="st3" d="M197.6,46.5c0.1,0,0.2,0.1,0.3,0.2L207,58c0.2,0.2,0.1,0.5-0.1,0.7c-0.2,0.2-0.5,0.1-0.7-0.1l-9.1-11.3
					c-0.2-0.2-0.1-0.5,0.1-0.7C197.3,46.5,197.4,46.4,197.6,46.5z"/>
			</g>
			<g>
				<path class="st3" d="M212.4,76.8c0.3,0,0.5,0.3,0.4,0.6l-0.8,4.7c0,0.3-0.3,0.5-0.6,0.4c-0.3,0-0.5-0.3-0.4-0.6l0.8-4.7
					C211.9,76.9,212.2,76.7,212.4,76.8z"/>
			</g>
			<g>
				<path class="st3" d="M216.6,74.7c0.1,0,0.3,0.1,0.3,0.2l2.8,4.2c0.2,0.2,0.1,0.6-0.1,0.7c-0.2,0.2-0.6,0.1-0.7-0.1l-2.8-4.2
					c-0.2-0.2-0.1-0.6,0.1-0.7C216.4,74.7,216.5,74.7,216.6,74.7z"/>
			</g>
			<g>
				<path class="st3" d="M217.4,70.3C217.4,70.3,217.4,70.3,217.4,70.3l6.8,1.7c0.3,0.1,0.4,0.3,0.4,0.6c-0.1,0.3-0.3,0.4-0.6,0.4
					l-6.8-1.7c-0.3-0.1-0.4-0.3-0.4-0.6C216.9,70.4,217.1,70.3,217.4,70.3z"/>
			</g>
			<g>
				<path class="st3" d="M222.2,63.4c0.2,0,0.3,0.2,0.4,0.3c0.1,0.3,0,0.6-0.3,0.7l-4.6,1.7c-0.3,0.1-0.6,0-0.7-0.3
					c-0.1-0.3,0-0.6,0.3-0.7l4.6-1.7C222,63.4,222.1,63.4,222.2,63.4z"/>
			</g>
			<g>
				<path class="st3" d="M215.8,57.1c0.3,0,0.5,0.3,0.4,0.6l-0.9,5.1c0,0.3-0.3,0.5-0.6,0.4c-0.3,0-0.5-0.3-0.4-0.6l0.9-5.1
					C215.3,57.3,215.6,57.1,215.8,57.1z"/>
			</g>
			<g>
				<path class="st3" d="M207.8,60.9c0.1,0,0.2,0.1,0.3,0.2l3.8,4.6c0.2,0.2,0.1,0.5-0.1,0.7c-0.2,0.2-0.5,0.1-0.7-0.1l-3.8-4.6
					c-0.2-0.2-0.1-0.5,0.1-0.7C207.5,61,207.6,60.9,207.8,60.9z"/>
			</g>
			<g>
				<path class="st3" d="M208.7,73.6c0.1,0,0.2,0.1,0.3,0.2c0.2,0.2,0.1,0.5-0.1,0.7l-3.6,2.8c-0.2,0.2-0.5,0.1-0.7-0.1
					c-0.2-0.2-0.1-0.5,0.1-0.7l3.6-2.8C208.4,73.6,208.6,73.6,208.7,73.6z"/>
			</g>
			<g>
				<path class="st3" d="M209.4,69.9c0.3,0,0.5,0.3,0.4,0.6c0,0.3-0.3,0.5-0.6,0.5l-5.7-0.6c-0.3,0-0.5-0.3-0.5-0.6
					c0-0.3,0.3-0.5,0.6-0.5L209.4,69.9C209.3,69.9,209.3,69.9,209.4,69.9z"/>
			</g>
		</g>
		<g>
			<ellipse class="st6" cx="251.5" cy="436" rx="178.3" ry="18.2"/>
			<g>
				<g>
					<path class="st7" d="M328.9,410.6c0,10.1-8.2,18.2-18.2,18.2L167,428.9c-10.1,0-18.2-8.1-18.2-18.2l-0.2-304.1
						c0-10.1,8.1-18.2,18.2-18.2l143.6-0.1c10.1,0,18.2,8.2,18.2,18.2L328.9,410.6z"/>
					<g>
						<g>
							<path class="st8" d="M307.5,329.7h-52c-2.2,0-4.1-1.8-4.1-4.1v-32.4c0-2.2,1.8-4.1,4.1-4.1h52c2.2,0,4.1,1.8,4.1,4.1v32.4
								C311.5,327.8,309.7,329.7,307.5,329.7z"/>
							<g>
								<path class="st9" d="M300.8,317.8c0,2-1.7,3.6-3.9,3.6H266c-2.1,0-3.9-1.6-3.9-3.6v-16.9c0-2,1.7-3.6,3.9-3.6h30.9
									c2.1,0,3.9,1.6,3.9,3.6V317.8z"/>
								<polygon class="st8" points="274.9,304.4 288,309.4 274.9,314.4 								"/>
							</g>
						</g>
						<g>
							<path class="st8" d="M305.1,163.3H172.3c-3.8,0-6.8-3.1-6.8-6.8V121c0-3.8,3.1-6.8,6.8-6.8h132.8c3.8,0,6.8,3.1,6.8,6.8v35.4
								C311.9,160.2,308.9,163.3,305.1,163.3z"/>
							<text transform="matrix(1 0 0 1 193.8746 137.6447)" class="st10 st11 st12">COVID-19</text>
							<text transform="matrix(1 0 0 1 206.7584 152.7516)" class="st10 st11 st13">UPDATE</text>
						</g>
						<g>
							<rect x="165.5" y="173.4" class="st14" width="71.3" height="129.7"/>
							<g>
								<g>
									<rect x="171.3" y="201.5" class="st15" width="59.7" height="1.2"/>
								</g>
							</g>
							<g>
								<g>
									<rect x="171.3" y="210.8" class="st15" width="59.7" height="1.2"/>
								</g>
							</g>
							<g>
								<g>
									<rect x="171.3" y="220.2" class="st15" width="59.7" height="1.2"/>
								</g>
							</g>
							<g>
								<g>
									<rect x="171.3" y="229.5" class="st15" width="59.7" height="1.2"/>
								</g>
							</g>
							<g>
								<g>
									<rect x="171.3" y="238.9" class="st15" width="59.7" height="1.2"/>
								</g>
							</g>
							<g>
								<g>
									<rect x="171.3" y="248.2" class="st15" width="59.7" height="1.2"/>
								</g>
							</g>
							<g>
								<g>
									<rect x="171.3" y="257.6" class="st15" width="59.7" height="1.2"/>
								</g>
							</g>
							<g>
								<g>
									<rect x="171.3" y="266.9" class="st15" width="59.7" height="1.2"/>
								</g>
							</g>
							<g>
								<g>
									<rect x="171.3" y="276.3" class="st15" width="59.7" height="1.2"/>
								</g>
							</g>
							<g>
								<g>
									<rect x="171.3" y="285.6" class="st15" width="59.7" height="1.2"/>
								</g>
							</g>
						</g>
						<g>
							<rect x="241.6" y="173.4" class="st14" width="71.3" height="89.1"/>
							<g>
								<g>
									<rect x="247.4" y="201.5" class="st15" width="59.7" height="1.2"/>
								</g>
							</g>
							<g>
								<g>
									<rect x="247.4" y="210.8" class="st15" width="59.7" height="1.2"/>
								</g>
							</g>
							<g>
								<g>
									<rect x="247.4" y="220.2" class="st15" width="59.7" height="1.2"/>
								</g>
							</g>
							<g>
								<g>
									<rect x="247.4" y="229.5" class="st15" width="59.7" height="1.2"/>
								</g>
							</g>
							<g>
								<g>
									<rect x="247.4" y="238.9" class="st15" width="59.7" height="1.2"/>
								</g>
							</g>
							<g>
								<g>
									<rect x="247.4" y="248.2" class="st15" width="59.7" height="1.2"/>
								</g>
							</g>
						</g>
					</g>
					<g>
						<g>
							<g>
								<g>
									<g>
										<path class="st16" d="M295.8,152.6c0.1,0,0.1,0.1,0.1,0.2l-0.7,4.2c0,0.1-0.1,0.1-0.2,0.1c-0.1,0-0.1-0.1-0.1-0.2l0.7-4.2
											C295.6,152.6,295.7,152.5,295.8,152.6z"/>
									</g>
									<g>
										
											<ellipse transform="matrix(0.1707 -0.9853 0.9853 0.1707 89.6686 421.0424)" class="st16" cx="295" cy="157.3" rx="0.9" ry="0.9"/>
									</g>
								</g>
								<g>
									<g>
										<path class="st16" d="M298.4,137.6c0.1,0,0.1,0.1,0.1,0.2l-0.7,4.2c0,0.1-0.1,0.1-0.2,0.1c-0.1,0-0.1-0.1-0.1-0.2l0.7-4.2
											C298.2,137.6,298.3,137.6,298.4,137.6z"/>
									</g>
									<g>
										
											<ellipse transform="matrix(0.1707 -0.9853 0.9853 0.1707 112.0469 407.9778)" class="st16" cx="298.4" cy="137.4" rx="0.9" ry="0.9"/>
									</g>
								</g>
							</g>
							<g>
								<g>
									<g>
										<path class="st16" d="M298.6,152.3c0.1,0,0.1,0,0.1,0.1l1.5,4c0,0.1,0,0.2-0.1,0.2c-0.1,0-0.2,0-0.2-0.1l-1.5-4
											C298.4,152.4,298.4,152.3,298.6,152.3C298.5,152.3,298.6,152.3,298.6,152.3z"/>
									</g>
									<g>
										
											<ellipse transform="matrix(0.9387 -0.3448 0.3448 0.9387 -35.6501 113.0941)" class="st16" cx="300.2" cy="156.8" rx="0.9" ry="0.9"/>
									</g>
								</g>
								<g>
									<g>
										<path class="st16" d="M293.4,138.1c0.1,0,0.1,0,0.1,0.1l1.5,4c0,0.1,0,0.2-0.1,0.2c-0.1,0-0.2,0-0.2-0.1l-1.5-4
											C293.2,138.2,293.2,138.1,293.4,138.1C293.3,138.1,293.3,138.1,293.4,138.1z"/>
									</g>
									<g>
										
											<ellipse transform="matrix(0.9387 -0.3448 0.3448 0.9387 -29.5641 109.5606)" class="st16" cx="293.2" cy="137.9" rx="0.9" ry="0.9"/>
									</g>
								</g>
							</g>
							<g>
								<g>
									<g>
										<path class="st16" d="M300.9,150.7C300.9,150.7,300.9,150.7,300.9,150.7l3.4,2.8c0.1,0.1,0.1,0.1,0,0.2
											c-0.1,0.1-0.1,0.1-0.2,0l-3.3-2.7c-0.1-0.1-0.1-0.1,0-0.2C300.8,150.7,300.8,150.7,300.9,150.7z"/>
									</g>
									<g>
										
											<ellipse transform="matrix(0.6405 -0.7679 0.7679 0.6405 -8.666 289.051)" class="st16" cx="304.4" cy="153.8" rx="0.9" ry="0.9"/>
									</g>
								</g>
								<g>
									<g>
										<path class="st16" d="M289.2,141C289.3,141,289.3,141,289.2,141l3.4,2.8c0.1,0.1,0.1,0.1,0,0.2c-0.1,0.1-0.1,0.1-0.2,0
											l-3.3-2.7c-0.1-0.1-0.1-0.1,0-0.2C289.1,141,289.2,140.9,289.2,141z"/>
									</g>
									<g>
										
											<ellipse transform="matrix(0.6405 -0.7679 0.7679 0.6405 -4.323 272.547)" class="st16" cx="289" cy="140.9" rx="0.9" ry="0.9"/>
									</g>
								</g>
							</g>
							<g>
								<g>
									<g>
										<path class="st16" d="M302.1,148.1l4.2,0.7c0.1,0,0.1,0.1,0.1,0.2c0,0.1-0.1,0.1-0.2,0.1l-4.2-0.7c-0.1,0-0.1-0.1-0.1-0.2
											C301.9,148.2,302,148.1,302.1,148.1z"/>
									</g>
									<g>
										
											<ellipse transform="matrix(0.1708 -0.9853 0.9853 0.1708 107.3692 425.6914)" class="st16" cx="306.6" cy="149.1" rx="0.9" ry="0.9"/>
									</g>
								</g>
								<g>
									<g>
										<path class="st16" d="M287.1,145.5l4.2,0.7c0.1,0,0.1,0.1,0.1,0.2c0,0.1-0.1,0.1-0.2,0.1l-4.2-0.7c-0.1,0-0.1-0.1-0.1-0.2
											C287,145.6,287,145.5,287.1,145.5z"/>
									</g>
									<g>
										
											<ellipse transform="matrix(0.1708 -0.9853 0.9853 0.1708 94.3213 403.3103)" class="st16" cx="286.8" cy="145.6" rx="0.9" ry="0.9"/>
									</g>
								</g>
							</g>
							<g>
								<g>
									<g>
										<path class="st16" d="M305.8,143.8c0.1,0,0.1,0,0.1,0.1c0,0.1,0,0.2-0.1,0.2l-4,1.5c-0.1,0-0.2,0-0.2-0.1
											c0-0.1,0-0.2,0.1-0.2L305.8,143.8C305.8,143.8,305.8,143.8,305.8,143.8z"/>
									</g>
									<g>
										
											<ellipse transform="matrix(0.9387 -0.3447 0.3447 0.9387 -30.8288 114.335)" class="st16" cx="306.1" cy="143.9" rx="0.9" ry="0.9"/>
									</g>
								</g>
								<g>
									<g>
										<path class="st16" d="M291.6,149.1c0.1,0,0.1,0,0.1,0.1c0,0.1,0,0.2-0.1,0.2l-4,1.5c-0.1,0-0.2,0-0.2-0.1
											c0-0.1,0-0.2,0.1-0.2L291.6,149.1C291.5,149.1,291.6,149.1,291.6,149.1z"/>
									</g>
									<g>
										
											<ellipse transform="matrix(0.9387 -0.3448 0.3448 0.9387 -34.3837 108.292)" class="st16" cx="287.2" cy="150.8" rx="0.9" ry="0.9"/>
									</g>
								</g>
							</g>
							<g>
								<g>
									<g>
										<path class="st16" d="M302.9,139.7C303,139.7,303,139.7,302.9,139.7c0.1,0.1,0.1,0.2,0.1,0.2l-2.7,3.3
											c-0.1,0.1-0.1,0.1-0.2,0c-0.1-0.1-0.1-0.1,0-0.2l2.7-3.3C302.8,139.7,302.9,139.7,302.9,139.7z"/>
									</g>
									<g>
										
											<ellipse transform="matrix(0.6405 -0.7679 0.7679 0.6405 1.7569 282.972)" class="st16" cx="303.1" cy="139.6" rx="0.9" ry="0.9"/>
									</g>
								</g>
								<g>
									<g>
										<path class="st16" d="M293.2,151.4C293.2,151.4,293.3,151.4,293.2,151.4c0.1,0.1,0.1,0.2,0.1,0.2l-2.7,3.3
											c-0.1,0.1-0.1,0.1-0.2,0c-0.1-0.1-0.1-0.1,0-0.2l2.7-3.3C293.1,151.4,293.2,151.4,293.2,151.4z"/>
									</g>
									<g>
										
											<ellipse transform="matrix(0.6405 -0.7679 0.7679 0.6405 -14.7458 278.6259)" class="st16" cx="290.2" cy="155.1" rx="0.9" ry="0.9"/>
									</g>
								</g>
							</g>
							<g>
								
									<ellipse transform="matrix(0.1708 -0.9853 0.9853 0.1708 100.9667 414.4379)" class="st16" cx="296.7" cy="147.2" rx="6.5" ry="6.5"/>
							</g>
							<g>
								
									<ellipse transform="matrix(0.9387 -0.3448 0.3448 0.9387 -35.2621 112.1213)" class="st16" cx="297.6" cy="155.2" rx="0.9" ry="0.9"/>
							</g>
							<g>
								
									<ellipse transform="matrix(0.9387 -0.3448 0.3448 0.9387 -34.2002 111.326)" class="st16" cx="295.9" cy="151.8" rx="0.9" ry="0.9"/>
							</g>
							<g>
								
									<ellipse transform="matrix(0.9387 -0.3448 0.3448 0.9387 -32.7737 111.3407)" class="st16" cx="296.6" cy="147.8" rx="1.1" ry="1.1"/>
							</g>
							<g>
								
									<ellipse transform="matrix(0.9387 -0.3448 0.3448 0.9387 -33.802 112.1848)" class="st16" cx="298.5" cy="151.1" rx="0.9" ry="0.9"/>
							</g>
							<g>
								
									<ellipse transform="matrix(0.9387 -0.3448 0.3448 0.9387 -32.8683 112.5503)" class="st16" cx="300" cy="148.7" rx="0.9" ry="0.9"/>
							</g>
							<g>
								
									<ellipse transform="matrix(0.9387 -0.3448 0.3448 0.9387 -31.9477 112.2192)" class="st16" cx="299.5" cy="145.9" rx="0.9" ry="0.9"/>
							</g>
							<g>
								
									<ellipse transform="matrix(0.9387 -0.3447 0.3447 0.9387 -31.9528 110.4765)" class="st16" cx="294.7" cy="145.1" rx="0.9" ry="0.9"/>
							</g>
							<g>
								
									<ellipse transform="matrix(0.9387 -0.3448 0.3448 0.9387 -32.9714 110.1761)" class="st16" cx="293.3" cy="147.8" rx="0.9" ry="0.9"/>
							</g>
							<g>
								
									<ellipse transform="matrix(0.9387 -0.3448 0.3448 0.9387 -33.7406 110.5014)" class="st16" cx="293.8" cy="150.1" rx="0.9" ry="0.9"/>
							</g>
							<g>
								
									<ellipse transform="matrix(0.9387 -0.3448 0.3448 0.9387 -31.3571 111.3369)" class="st16" cx="297.3" cy="143.8" rx="0.9" ry="0.9"/>
							</g>
							<g>
								
									<ellipse transform="matrix(0.9387 -0.3448 0.3448 0.9387 -34.4309 113.37)" class="st16" cx="301.5" cy="153.5" rx="0.9" ry="0.9"/>
							</g>
							<g>
								
									<ellipse transform="matrix(0.9387 -0.3447 0.3447 0.9387 -33.2319 113.939)" class="st16" cx="303.8" cy="150.4" rx="0.9" ry="0.9"/>
							</g>
							<g>
								
									<ellipse transform="matrix(0.9387 -0.3448 0.3448 0.9387 -31.8219 113.7415)" class="st16" cx="303.9" cy="146.3" rx="0.9" ry="0.9"/>
							</g>
							<g>
								
									<ellipse transform="matrix(0.9387 -0.3448 0.3448 0.9387 -30.6888 113.2271)" class="st16" cx="303" cy="142.9" rx="0.9" ry="0.9"/>
							</g>
							<g>
								
									<ellipse transform="matrix(0.9387 -0.3448 0.3448 0.9387 -29.9457 112.1045)" class="st16" cx="300.2" cy="140.2" rx="0.9" ry="0.9"/>
							</g>
							<g>
								
									<ellipse transform="matrix(0.9387 -0.3448 0.3448 0.9387 -29.9528 110.5763)" class="st16" cx="295.9" cy="139.5" rx="0.9" ry="0.9"/>
							</g>
							<g>
								
									<ellipse transform="matrix(0.9387 -0.3448 0.3448 0.9387 -30.7069 109.2452)" class="st16" cx="291.8" cy="140.9" rx="0.9" ry="0.9"/>
							</g>
							<g>
								
									<ellipse transform="matrix(0.9387 -0.3447 0.3447 0.9387 -31.9845 108.5898)" class="st16" cx="289.4" cy="144.2" rx="0.9" ry="0.9"/>
							</g>
							<g>
								
									<ellipse transform="matrix(0.9387 -0.3448 0.3448 0.9387 -33.2573 108.5863)" class="st16" cx="288.7" cy="147.8" rx="0.9" ry="0.9"/>
							</g>
							<g>
								
									<ellipse transform="matrix(0.9387 -0.3448 0.3448 0.9387 -34.6017 109.25)" class="st16" cx="289.9" cy="151.9" rx="0.9" ry="0.9"/>
							</g>
							<g>
								
									<ellipse transform="matrix(0.9387 -0.3447 0.3447 0.9387 -35.499 110.5666)" class="st16" cx="293.2" cy="155.1" rx="0.9" ry="0.9"/>
							</g>
							<g>
								<path class="st16" d="M297.2,151.1c0.1,0,0.1,0.1,0.1,0.1l0.5,3.7c0,0.1,0,0.2-0.1,0.2c-0.1,0-0.2,0-0.2-0.1l-0.5-3.7
									C297,151.2,297,151.1,297.2,151.1C297.1,151.1,297.1,151.1,297.2,151.1z"/>
							</g>
							<g>
								<path class="st16" d="M299.1,150.6C299.1,150.6,299.2,150.7,299.1,150.6l2.5,2.6c0.1,0.1,0.1,0.2,0,0.2
									c-0.1,0.1-0.2,0.1-0.2,0l-2.4-2.6c-0.1-0.1-0.1-0.2,0-0.2C299,150.6,299.1,150.6,299.1,150.6z"/>
							</g>
							<g>
								<path class="st16" d="M299.9,148.7C300,148.7,300,148.7,299.9,148.7l3.6,1.5c0.1,0,0.1,0.1,0.1,0.2c0,0.1-0.1,0.1-0.2,0.1
									l-3.6-1.5c-0.1,0-0.1-0.1-0.1-0.2C299.8,148.7,299.9,148.7,299.9,148.7z"/>
							</g>
							<g>
								<path class="st16" d="M303.7,146.1c0.1,0,0.1,0.1,0.1,0.1c0,0.1,0,0.2-0.1,0.2L300,147c-0.1,0-0.2,0-0.2-0.1
									c0-0.1,0-0.2,0.1-0.2L303.7,146.1C303.6,146.1,303.6,146.1,303.7,146.1z"/>
							</g>
							<g>
								<path class="st16" d="M302.9,142.9c0,0,0.1,0,0.1,0.1c0,0.1,0,0.2,0,0.2l-3.1,1.9c-0.1,0-0.2,0-0.2,0c0-0.1,0-0.2,0-0.2
									l3.1-1.9C302.8,142.9,302.8,142.9,302.9,142.9z"/>
							</g>
							<g>
								<path class="st16" d="M300.2,140.3C300.2,140.3,300.2,140.3,300.2,140.3c0.1,0.1,0.1,0.1,0.1,0.2l-1.9,3.5
									c0,0.1-0.1,0.1-0.2,0.1c-0.1,0-0.1-0.1-0.1-0.2l1.9-3.5C300,140.4,300.1,140.3,300.2,140.3z"/>
							</g>
							<g>
								<path class="st16" d="M295.9,139.6c0.1,0,0.1,0.1,0.1,0.1l0.3,4.4c0,0.1-0.1,0.2-0.1,0.2c-0.1,0-0.2-0.1-0.2-0.1l-0.3-4.4
									C295.7,139.7,295.7,139.6,295.9,139.6C295.8,139.6,295.8,139.6,295.9,139.6z"/>
							</g>
							<g>
								<path class="st16" d="M293.3,149.6c0,0,0.1,0,0.1,0.1c0,0.1,0,0.2,0,0.2l-3.3,2.1c-0.1,0-0.2,0-0.2,0c0-0.1,0-0.2,0-0.2
									l3.3-2.1C293.3,149.6,293.3,149.6,293.3,149.6z"/>
							</g>
							<g>
								<path class="st16" d="M294.8,151C294.8,151,294.8,151.1,294.8,151c0.1,0,0.1,0.1,0.1,0.2l-1.5,3.6c0,0.1-0.1,0.1-0.2,0.1
									c-0.1,0-0.1-0.1-0.1-0.2l1.5-3.6C294.7,151.1,294.7,151,294.8,151z"/>
							</g>
							<g>
								<path class="st16" d="M293,147.6c0.1,0,0.1,0.1,0.1,0.1c0,0.1-0.1,0.2-0.1,0.2l-4.2,0.1c-0.1,0-0.2-0.1-0.2-0.1
									c0-0.1,0.1-0.2,0.1-0.2L293,147.6C292.9,147.6,293,147.6,293,147.6z"/>
							</g>
							<g>
								<path class="st16" d="M289.5,144.1C289.6,144.1,289.6,144.1,289.5,144.1l4.1,2c0.1,0,0.1,0.1,0.1,0.2c0,0.1-0.1,0.1-0.2,0.1
									l-4-2c-0.1,0-0.1-0.1-0.1-0.2C289.4,144.1,289.5,144.1,289.5,144.1z"/>
							</g>
							<g>
								<path class="st16" d="M291.9,141C291.9,141,292,141,291.9,141l2.8,3.4c0.1,0.1,0,0.2,0,0.2c-0.1,0.1-0.2,0-0.2,0l-2.7-3.3
									c-0.1-0.1,0-0.2,0-0.2C291.8,141,291.8,141,291.9,141z"/>
							</g>
							<g>
								<path class="st16" d="M296.2,149.9c0.1,0,0.1,0.1,0.1,0.2l-0.2,1.4c0,0.1-0.1,0.1-0.2,0.1c-0.1,0-0.1-0.1-0.1-0.2l0.2-1.4
									C296.1,149.9,296.2,149.9,296.2,149.9z"/>
							</g>
							<g>
								<path class="st16" d="M297.5,149.3C297.5,149.3,297.5,149.3,297.5,149.3l0.9,1.3c0,0.1,0,0.2,0,0.2c-0.1,0-0.2,0-0.2,0
									l-0.8-1.2c0-0.1,0-0.2,0-0.2C297.4,149.3,297.4,149.3,297.5,149.3z"/>
							</g>
							<g>
								<path class="st16" d="M297.7,148C297.7,148,297.7,148,297.7,148l2,0.5c0.1,0,0.1,0.1,0.1,0.2c0,0.1-0.1,0.1-0.2,0.1l-2-0.5
									c-0.1,0-0.1-0.1-0.1-0.2C297.5,148,297.6,148,297.7,148z"/>
							</g>
							<g>
								<path class="st16" d="M299.1,146c0.1,0,0.1,0,0.1,0.1c0,0.1,0,0.2-0.1,0.2l-1.3,0.5c-0.1,0-0.2,0-0.2-0.1
									c0-0.1,0-0.2,0.1-0.2L299.1,146C299,146,299.1,146,299.1,146z"/>
							</g>
							<g>
								<path class="st16" d="M297.2,144.1c0.1,0,0.1,0.1,0.1,0.2l-0.3,1.5c0,0.1-0.1,0.1-0.2,0.1c-0.1,0-0.1-0.1-0.1-0.2l0.3-1.5
									C297.1,144.2,297.2,144.1,297.2,144.1z"/>
							</g>
							<g>
								<path class="st16" d="M294.9,145.2C294.9,145.2,294.9,145.3,294.9,145.2l1.2,1.4c0.1,0.1,0,0.2,0,0.2c-0.1,0.1-0.2,0-0.2,0
									l-1.1-1.4c-0.1-0.1,0-0.2,0-0.2C294.8,145.2,294.8,145.2,294.9,145.2z"/>
							</g>
							<g>
								<path class="st16" d="M295.2,149C295.2,149,295.2,149,295.2,149c0.1,0.1,0.1,0.2,0.1,0.3l-1.1,0.8c-0.1,0.1-0.2,0-0.2,0
									c-0.1-0.1,0-0.2,0-0.2l1.1-0.8C295.1,149,295.1,148.9,295.2,149z"/>
							</g>
							<g>
								<path class="st16" d="M295.3,147.9c0.1,0,0.1,0.1,0.1,0.2c0,0.1-0.1,0.1-0.2,0.1l-1.7-0.2c-0.1,0-0.1-0.1-0.1-0.2
									c0-0.1,0.1-0.1,0.2-0.1L295.3,147.9C295.3,147.9,295.3,147.9,295.3,147.9z"/>
							</g>
						</g>
						<g>
							<g>
								<g>
									<g>
										<path class="st16" d="M179.9,152.6c0.1,0,0.1,0.1,0.1,0.2l-0.7,4.2c0,0.1-0.1,0.1-0.2,0.1c-0.1,0-0.1-0.1-0.1-0.2l0.7-4.2
											C179.7,152.6,179.8,152.5,179.9,152.6z"/>
									</g>
									<g>
										
											<ellipse transform="matrix(0.1707 -0.9853 0.9853 0.1707 -6.4247 306.8687)" class="st16" cx="179.1" cy="157.3" rx="0.9" ry="0.9"/>
									</g>
								</g>
								<g>
									<g>
										<path class="st16" d="M182.5,137.6c0.1,0,0.1,0.1,0.1,0.2l-0.7,4.2c0,0.1-0.1,0.1-0.2,0.1c-0.1,0-0.1-0.1-0.1-0.2l0.7-4.2
											C182.3,137.6,182.4,137.6,182.5,137.6z"/>
									</g>
									<g>
										
											<ellipse transform="matrix(0.1707 -0.9853 0.9853 0.1707 15.9578 293.8048)" class="st16" cx="182.5" cy="137.4" rx="0.9" ry="0.9"/>
									</g>
								</g>
							</g>
							<g>
								<g>
									<g>
										<path class="st16" d="M182.7,152.3c0.1,0,0.1,0,0.1,0.1l1.5,4c0,0.1,0,0.2-0.1,0.2c-0.1,0-0.2,0-0.2-0.1l-1.5-4
											C182.5,152.4,182.6,152.3,182.7,152.3C182.7,152.3,182.7,152.3,182.7,152.3z"/>
									</g>
									<g>
										
											<ellipse transform="matrix(0.9387 -0.3448 0.3448 0.9387 -42.7544 73.1448)" class="st16" cx="184.3" cy="156.8" rx="0.9" ry="0.9"/>
									</g>
								</g>
								<g>
									<g>
										<path class="st16" d="M177.5,138.1c0.1,0,0.1,0,0.1,0.1l1.5,4c0,0.1,0,0.2-0.1,0.2c-0.1,0-0.2,0-0.2-0.1l-1.5-4
											C177.3,138.2,177.3,138.1,177.5,138.1C177.4,138.1,177.5,138.1,177.5,138.1z"/>
									</g>
									<g>
										
											<ellipse transform="matrix(0.9387 -0.3448 0.3448 0.9387 -36.6705 69.6057)" class="st16" cx="177.3" cy="137.9" rx="0.9" ry="0.9"/>
									</g>
								</g>
							</g>
							<g>
								<g>
									<g>
										<path class="st16" d="M185,150.7C185,150.7,185.1,150.7,185,150.7l3.4,2.8c0.1,0.1,0.1,0.1,0,0.2c-0.1,0.1-0.1,0.1-0.2,0
											l-3.3-2.7c-0.1-0.1-0.1-0.1,0-0.2C184.9,150.7,185,150.7,185,150.7z"/>
									</g>
									<g>
										
											<ellipse transform="matrix(0.6405 -0.7679 0.7679 0.6405 -50.3204 200.0661)" class="st16" cx="188.5" cy="153.8" rx="0.9" ry="0.9"/>
									</g>
								</g>
								<g>
									<g>
										<path class="st16" d="M173.4,141C173.4,141,173.4,141,173.4,141l3.4,2.8c0.1,0.1,0.1,0.1,0,0.2c-0.1,0.1-0.1,0.1-0.2,0
											l-3.3-2.7c-0.1-0.1-0.1-0.1,0-0.2C173.3,141,173.3,140.9,173.4,141z"/>
									</g>
									<g>
										
											<ellipse transform="matrix(0.6405 -0.7679 0.7679 0.6405 -45.9768 183.5627)" class="st16" cx="173.1" cy="140.9" rx="0.9" ry="0.9"/>
									</g>
								</g>
							</g>
							<g>
								<g>
									<g>
										<path class="st16" d="M186.2,148.1l4.2,0.7c0.1,0,0.1,0.1,0.1,0.2c0,0.1-0.1,0.1-0.2,0.1l-4.2-0.7c-0.1,0-0.1-0.1-0.1-0.2
											C186,148.2,186.1,148.1,186.2,148.1z"/>
									</g>
									<g>
										
											<ellipse transform="matrix(0.1708 -0.9853 0.9853 0.1708 11.2851 311.5192)" class="st16" cx="190.7" cy="149.1" rx="0.9" ry="0.9"/>
									</g>
								</g>
								<g>
									<g>
										<path class="st16" d="M171.2,145.5l4.2,0.7c0.1,0,0.1,0.1,0.1,0.2c0,0.1-0.1,0.1-0.2,0.1l-4.2-0.7c-0.1,0-0.1-0.1-0.1-0.2
											C171.1,145.6,171.2,145.5,171.2,145.5z"/>
									</g>
									<g>
										
											<ellipse transform="matrix(0.1708 -0.9853 0.9853 0.1708 -1.7662 289.1378)" class="st16" cx="170.9" cy="145.6" rx="0.9" ry="0.9"/>
									</g>
								</g>
							</g>
							<g>
								<g>
									<g>
										<path class="st16" d="M190,143.8c0.1,0,0.1,0,0.1,0.1c0,0.1,0,0.2-0.1,0.2l-4,1.5c-0.1,0-0.2,0-0.2-0.1
											c0-0.1,0-0.2,0.1-0.2L190,143.8C189.9,143.8,189.9,143.8,190,143.8z"/>
									</g>
									<g>
										
											<ellipse transform="matrix(0.9387 -0.3447 0.3447 0.9387 -37.9296 74.394)" class="st16" cx="190.3" cy="143.9" rx="0.9" ry="0.9"/>
									</g>
								</g>
								<g>
									<g>
										<path class="st16" d="M175.7,149.1c0.1,0,0.1,0,0.1,0.1c0,0.1,0,0.2-0.1,0.2l-4,1.5c-0.1,0-0.2,0-0.2-0.1
											c0-0.1,0-0.2,0.1-0.2L175.7,149.1C175.7,149.1,175.7,149.1,175.7,149.1z"/>
									</g>
									<g>
										
											<ellipse transform="matrix(0.9387 -0.3448 0.3448 0.9387 -41.4901 68.337)" class="st16" cx="171.4" cy="150.8" rx="0.9" ry="0.9"/>
									</g>
								</g>
							</g>
							<g>
								<g>
									<g>
										<path class="st16" d="M187.1,139.7C187.1,139.7,187.1,139.7,187.1,139.7c0.1,0.1,0.1,0.2,0.1,0.2l-2.7,3.3
											c-0.1,0.1-0.1,0.1-0.2,0c-0.1-0.1-0.1-0.1,0-0.2l2.7-3.3C187,139.7,187,139.7,187.1,139.7z"/>
									</g>
									<g>
										
											<ellipse transform="matrix(0.6405 -0.7679 0.7679 0.6405 -39.8975 193.9871)" class="st16" cx="187.3" cy="139.6" rx="0.9" ry="0.9"/>
									</g>
								</g>
								<g>
									<g>
										<path class="st16" d="M177.3,151.4C177.4,151.4,177.4,151.4,177.3,151.4c0.1,0.1,0.1,0.2,0.1,0.2l-2.7,3.3
											c-0.1,0.1-0.1,0.1-0.2,0c-0.1-0.1-0.1-0.1,0-0.2l2.7-3.3C177.2,151.4,177.3,151.4,177.3,151.4z"/>
									</g>
									<g>
										
											<ellipse transform="matrix(0.6405 -0.7679 0.7679 0.6405 -56.3996 189.6416)" class="st16" cx="174.4" cy="155.1" rx="0.9" ry="0.9"/>
									</g>
								</g>
							</g>
							<g>
								
									<ellipse transform="matrix(0.1708 -0.9853 0.9853 0.1708 4.8784 300.2651)" class="st16" cx="180.8" cy="147.2" rx="6.5" ry="6.5"/>
							</g>
							<g>
								
									<ellipse transform="matrix(0.9387 -0.3448 0.3448 0.9387 -42.3655 72.1656)" class="st16" cx="181.7" cy="155.2" rx="0.9" ry="0.9"/>
							</g>
							<g>
								
									<ellipse transform="matrix(0.9387 -0.3448 0.3448 0.9387 -41.3045 71.3767)" class="st16" cx="180" cy="151.8" rx="0.9" ry="0.9"/>
							</g>
							<g>
								
									<ellipse transform="matrix(0.9387 -0.3448 0.3448 0.9387 -39.8817 71.388)" class="st16" cx="180.7" cy="147.8" rx="1.1" ry="1.1"/>
							</g>
							<g>
								
									<ellipse transform="matrix(0.9387 -0.3448 0.3448 0.9387 -40.907 72.2334)" class="st16" cx="182.6" cy="151.1" rx="0.9" ry="0.9"/>
							</g>
							<g>
								
									<ellipse transform="matrix(0.9387 -0.3448 0.3448 0.9387 -39.9754 72.5932)" class="st16" cx="184.1" cy="148.7" rx="0.9" ry="0.9"/>
							</g>
							<g>
								
									<ellipse transform="matrix(0.9387 -0.3448 0.3448 0.9387 -39.0535 72.2658)" class="st16" cx="183.6" cy="145.9" rx="0.9" ry="0.9"/>
							</g>
							<g>
								
									<ellipse transform="matrix(0.9387 -0.3447 0.3447 0.9387 -39.0558 70.5308)" class="st16" cx="178.8" cy="145.1" rx="0.9" ry="0.9"/>
							</g>
							<g>
								
									<ellipse transform="matrix(0.9387 -0.3448 0.3448 0.9387 -40.0756 70.2265)" class="st16" cx="177.4" cy="147.8" rx="0.9" ry="0.9"/>
							</g>
							<g>
								
									<ellipse transform="matrix(0.9387 -0.3448 0.3448 0.9387 -40.8456 70.55)" class="st16" cx="177.9" cy="150.1" rx="0.9" ry="0.9"/>
							</g>
							<g>
								
									<ellipse transform="matrix(0.9387 -0.3448 0.3448 0.9387 -38.4628 71.3756)" class="st16" cx="181.4" cy="143.8" rx="0.9" ry="0.9"/>
							</g>
							<g>
								
									<ellipse transform="matrix(0.9387 -0.3448 0.3448 0.9387 -41.538 73.4133)" class="st16" cx="185.6" cy="153.5" rx="0.9" ry="0.9"/>
							</g>
							<g>
								
									<ellipse transform="matrix(0.9387 -0.3447 0.3447 0.9387 -40.3341 73.9951)" class="st16" cx="187.9" cy="150.4" rx="0.9" ry="0.9"/>
							</g>
							<g>
								
									<ellipse transform="matrix(0.9387 -0.3448 0.3448 0.9387 -38.927 73.7902)" class="st16" cx="188" cy="146.3" rx="0.9" ry="0.9"/>
							</g>
							<g>
								
									<ellipse transform="matrix(0.9387 -0.3448 0.3448 0.9387 -37.7938 73.2754)" class="st16" cx="187.1" cy="142.9" rx="0.9" ry="0.9"/>
							</g>
							<g>
								
									<ellipse transform="matrix(0.9387 -0.3448 0.3448 0.9387 -37.0502 72.1465)" class="st16" cx="184.3" cy="140.2" rx="0.9" ry="0.9"/>
							</g>
							<g>
								
									<ellipse transform="matrix(0.9387 -0.3448 0.3448 0.9387 -37.0592 70.6214)" class="st16" cx="180" cy="139.5" rx="0.9" ry="0.9"/>
							</g>
							<g>
								
									<ellipse transform="matrix(0.9387 -0.3448 0.3448 0.9387 -37.8127 69.2917)" class="st16" cx="175.9" cy="140.9" rx="0.9" ry="0.9"/>
							</g>
							<g>
								
									<ellipse transform="matrix(0.9387 -0.3447 0.3447 0.9387 -39.0867 68.6462)" class="st16" cx="173.5" cy="144.2" rx="0.9" ry="0.9"/>
							</g>
							<g>
								
									<ellipse transform="matrix(0.9387 -0.3448 0.3448 0.9387 -40.3616 68.637)" class="st16" cx="172.8" cy="147.8" rx="0.9" ry="0.9"/>
							</g>
							<g>
								
									<ellipse transform="matrix(0.9387 -0.3448 0.3448 0.9387 -41.706 69.3007)" class="st16" cx="174" cy="151.9" rx="0.9" ry="0.9"/>
							</g>
							<g>
								
									<ellipse transform="matrix(0.9387 -0.3447 0.3447 0.9387 -42.5996 70.6188)" class="st16" cx="177.3" cy="155.1" rx="0.9" ry="0.9"/>
							</g>
							<g>
								<path class="st16" d="M181.3,151.1c0.1,0,0.1,0.1,0.1,0.1l0.5,3.7c0,0.1,0,0.2-0.1,0.2c-0.1,0-0.2,0-0.2-0.1l-0.5-3.7
									C181.1,151.2,181.1,151.1,181.3,151.1C181.2,151.1,181.3,151.1,181.3,151.1z"/>
							</g>
							<g>
								<path class="st16" d="M183.2,150.6C183.3,150.6,183.3,150.7,183.2,150.6l2.5,2.6c0.1,0.1,0.1,0.2,0,0.2
									c-0.1,0.1-0.2,0.1-0.2,0l-2.4-2.6c-0.1-0.1-0.1-0.2,0-0.2C183.1,150.6,183.2,150.6,183.2,150.6z"/>
							</g>
							<g>
								<path class="st16" d="M184.1,148.7C184.1,148.7,184.1,148.7,184.1,148.7l3.6,1.5c0.1,0,0.1,0.1,0.1,0.2
									c0,0.1-0.1,0.1-0.2,0.1L184,149c-0.1,0-0.1-0.1-0.1-0.2C183.9,148.7,184,148.7,184.1,148.7z"/>
							</g>
							<g>
								<path class="st16" d="M187.8,146.1c0.1,0,0.1,0.1,0.1,0.1c0,0.1,0,0.2-0.1,0.2l-3.7,0.6c-0.1,0-0.2,0-0.2-0.1
									c0-0.1,0-0.2,0.1-0.2L187.8,146.1C187.8,146.1,187.8,146.1,187.8,146.1z"/>
							</g>
							<g>
								<path class="st16" d="M187,142.9c0,0,0.1,0,0.1,0.1c0,0.1,0,0.2,0,0.2l-3.1,1.9c-0.1,0-0.2,0-0.2,0c0-0.1,0-0.2,0-0.2
									l3.1-1.9C186.9,142.9,187,142.9,187,142.9z"/>
							</g>
							<g>
								<path class="st16" d="M184.3,140.3C184.3,140.3,184.3,140.3,184.3,140.3c0.1,0.1,0.1,0.1,0.1,0.2l-1.9,3.5
									c0,0.1-0.1,0.1-0.2,0.1c-0.1,0-0.1-0.1-0.1-0.2l1.9-3.5C184.2,140.4,184.2,140.3,184.3,140.3z"/>
							</g>
							<g>
								<path class="st16" d="M180,139.6c0.1,0,0.1,0.1,0.1,0.1l0.3,4.4c0,0.1-0.1,0.2-0.1,0.2c-0.1,0-0.2-0.1-0.2-0.1l-0.3-4.4
									C179.8,139.7,179.9,139.6,180,139.6C180,139.6,180,139.6,180,139.6z"/>
							</g>
							<g>
								<path class="st16" d="M177.5,149.6c0,0,0.1,0,0.1,0.1c0,0.1,0,0.2,0,0.2l-3.3,2.1c-0.1,0-0.2,0-0.2,0c0-0.1,0-0.2,0-0.2
									l3.3-2.1C177.4,149.6,177.4,149.6,177.5,149.6z"/>
							</g>
							<g>
								<path class="st16" d="M178.9,151C178.9,151,178.9,151.1,178.9,151c0.1,0,0.1,0.1,0.1,0.2l-1.5,3.6c0,0.1-0.1,0.1-0.2,0.1
									c-0.1,0-0.1-0.1-0.1-0.2l1.5-3.6C178.8,151.1,178.8,151,178.9,151z"/>
							</g>
							<g>
								<path class="st16" d="M177.1,147.6c0.1,0,0.1,0.1,0.1,0.1c0,0.1-0.1,0.2-0.1,0.2l-4.2,0.1c-0.1,0-0.2-0.1-0.2-0.1
									c0-0.1,0.1-0.2,0.1-0.2L177.1,147.6C177.1,147.6,177.1,147.6,177.1,147.6z"/>
							</g>
							<g>
								<path class="st16" d="M173.7,144.1C173.7,144.1,173.7,144.1,173.7,144.1l4.1,2c0.1,0,0.1,0.1,0.1,0.2c0,0.1-0.1,0.1-0.2,0.1
									l-4-2c-0.1,0-0.1-0.1-0.1-0.2C173.5,144.1,173.6,144.1,173.7,144.1z"/>
							</g>
							<g>
								<path class="st16" d="M176,141C176,141,176.1,141,176,141l2.8,3.4c0.1,0.1,0,0.2,0,0.2c-0.1,0.1-0.2,0-0.2,0l-2.7-3.3
									c-0.1-0.1,0-0.2,0-0.2C175.9,141,176,141,176,141z"/>
							</g>
							<g>
								<path class="st16" d="M180.4,149.9c0.1,0,0.1,0.1,0.1,0.2l-0.2,1.4c0,0.1-0.1,0.1-0.2,0.1c-0.1,0-0.1-0.1-0.1-0.2l0.2-1.4
									C180.2,149.9,180.3,149.9,180.4,149.9z"/>
							</g>
							<g>
								<path class="st16" d="M181.6,149.3C181.6,149.3,181.7,149.3,181.6,149.3l0.9,1.3c0,0.1,0,0.2,0,0.2c-0.1,0-0.2,0-0.2,0
									l-0.8-1.2c0-0.1,0-0.2,0-0.2C181.5,149.3,181.6,149.3,181.6,149.3z"/>
							</g>
							<g>
								<path class="st16" d="M181.8,148C181.8,148,181.8,148,181.8,148l2,0.5c0.1,0,0.1,0.1,0.1,0.2c0,0.1-0.1,0.1-0.2,0.1l-2-0.5
									c-0.1,0-0.1-0.1-0.1-0.2C181.7,148,181.7,148,181.8,148z"/>
							</g>
							<g>
								<path class="st16" d="M183.2,146c0.1,0,0.1,0,0.1,0.1c0,0.1,0,0.2-0.1,0.2l-1.3,0.5c-0.1,0-0.2,0-0.2-0.1
									c0-0.1,0-0.2,0.1-0.2L183.2,146C183.2,146,183.2,146,183.2,146z"/>
							</g>
							<g>
								<path class="st16" d="M181.4,144.1c0.1,0,0.1,0.1,0.1,0.2l-0.3,1.5c0,0.1-0.1,0.1-0.2,0.1c-0.1,0-0.1-0.1-0.1-0.2l0.3-1.5
									C181.2,144.2,181.3,144.1,181.4,144.1z"/>
							</g>
							<g>
								<path class="st16" d="M179,145.2C179,145.2,179.1,145.3,179,145.2l1.2,1.4c0.1,0.1,0,0.2,0,0.2c-0.1,0.1-0.2,0-0.2,0
									l-1.1-1.4c-0.1-0.1,0-0.2,0-0.2C178.9,145.2,179,145.2,179,145.2z"/>
							</g>
							<g>
								<path class="st16" d="M179.3,149C179.3,149,179.3,149,179.3,149c0.1,0.1,0.1,0.2,0.1,0.3l-1.1,0.8c-0.1,0.1-0.2,0-0.2,0
									c-0.1-0.1,0-0.2,0-0.2l1.1-0.8C179.2,149,179.2,148.9,179.3,149z"/>
							</g>
							<g>
								<path class="st16" d="M179.5,147.9c0.1,0,0.1,0.1,0.1,0.2c0,0.1-0.1,0.1-0.2,0.1l-1.7-0.2c-0.1,0-0.1-0.1-0.1-0.2
									c0-0.1,0.1-0.1,0.2-0.1L179.5,147.9C179.5,147.9,179.5,147.9,179.5,147.9z"/>
							</g>
						</g>
					</g>
					<g>
						<g>
							<g>
								<g>
									<g>
										<path class="st9" d="M281.9,399.4c0.2,0,0.3,0.2,0.2,0.3l-1.3,7.8c0,0.2-0.2,0.3-0.3,0.2c-0.2,0-0.3-0.2-0.2-0.3l1.3-7.8
											C281.6,399.5,281.8,399.4,281.9,399.4z"/>
									</g>
									<g>
										
											<ellipse transform="matrix(0.1708 -0.9853 0.9853 0.1708 -169.5585 614.7147)" class="st9" cx="280.4" cy="408.1" rx="1.7" ry="1.7"/>
									</g>
								</g>
								<g>
									<g>
										<path class="st9" d="M286.7,371.8c0.2,0,0.3,0.2,0.2,0.3l-1.3,7.8c0,0.2-0.2,0.3-0.3,0.2c-0.2,0-0.3-0.2-0.2-0.3l1.3-7.8
											C286.4,371.9,286.6,371.8,286.7,371.8z"/>
									</g>
									<g>
										
											<ellipse transform="matrix(0.1707 -0.9853 0.9853 0.1707 -128.2502 590.631)" class="st9" cx="286.8" cy="371.5" rx="1.7" ry="1.7"/>
									</g>
								</g>
							</g>
							<g>
								<g>
									<g>
										<path class="st9" d="M287.1,399c0.1,0,0.2,0.1,0.2,0.2l2.7,7.4c0.1,0.1,0,0.3-0.2,0.4c-0.1,0.1-0.3,0-0.4-0.2l-2.7-7.4
											c-0.1-0.1,0-0.3,0.2-0.4C287,399,287.1,399,287.1,399z"/>
									</g>
									<g>
										
											<ellipse transform="matrix(0.9387 -0.3448 0.3448 0.9387 -122.6159 124.9448)" class="st9" cx="290" cy="407.2" rx="1.7" ry="1.7"/>
									</g>
								</g>
								<g>
									<g>
										<path class="st9" d="M277.5,372.7c0.1,0,0.2,0.1,0.2,0.2l2.7,7.4c0.1,0.1,0,0.3-0.2,0.4c-0.1,0.1-0.3,0-0.4-0.2l-2.7-7.4
											c-0.1-0.1,0-0.3,0.2-0.4C277.4,372.7,277.4,372.7,277.5,372.7z"/>
									</g>
									<g>
										
											<ellipse transform="matrix(0.9387 -0.3448 0.3448 0.9387 -111.399 118.4164)" class="st9" cx="277.2" cy="372.4" rx="1.7" ry="1.7"/>
									</g>
								</g>
							</g>
							<g>
								<g>
									<g>
										<path class="st9" d="M291.4,396c0,0,0.1,0,0.1,0.1l6.1,5.1c0.1,0.1,0.1,0.3,0,0.4c-0.1,0.1-0.3,0.1-0.4,0l-6.1-5.1
											c-0.1-0.1-0.1-0.3,0-0.4C291.2,396,291.3,396,291.4,396z"/>
									</g>
									<g>
										
											<ellipse transform="matrix(0.6406 -0.7679 0.7679 0.6406 -201.4034 373.1118)" class="st9" cx="297.9" cy="401.7" rx="1.7" ry="1.7"/>
									</g>
								</g>
								<g>
									<g>
										<path class="st9" d="M269.9,378c0,0,0.1,0,0.1,0.1l6.1,5.1c0.1,0.1,0.1,0.3,0,0.4c-0.1,0.1-0.3,0.1-0.4,0l-6.1-5.1
											c-0.1-0.1-0.1-0.3,0-0.4C269.7,378,269.8,378,269.9,378z"/>
									</g>
									<g>
										
											<ellipse transform="matrix(0.6405 -0.7679 0.7679 0.6405 -193.3902 342.6853)" class="st9" cx="269.3" cy="377.9" rx="1.7" ry="1.7"/>
									</g>
								</g>
							</g>
							<g>
								<g>
									<g>
										<path class="st9" d="M293.6,391.2l7.8,1.3c0.2,0,0.3,0.2,0.2,0.3c0,0.2-0.2,0.3-0.3,0.2l-7.8-1.3c-0.2,0-0.3-0.2-0.2-0.3
											C293.3,391.3,293.4,391.2,293.6,391.2z"/>
									</g>
									<g>
										
											<ellipse transform="matrix(0.1708 -0.9853 0.9853 0.1708 -136.8607 623.3227)" class="st9" cx="301.9" cy="393" rx="1.7" ry="1.7"/>
									</g>
								</g>
								<g>
									<g>
										<path class="st9" d="M266,386.5l7.8,1.3c0.2,0,0.3,0.2,0.2,0.3c0,0.2-0.2,0.3-0.3,0.2l-7.8-1.3c-0.2,0-0.3-0.2-0.2-0.3
											C265.7,386.5,265.8,386.4,266,386.5z"/>
									</g>
									<g>
										
											<ellipse transform="matrix(0.1708 -0.9853 0.9853 0.1708 -160.956 582.0068)" class="st9" cx="265.3" cy="386.6" rx="1.7" ry="1.7"/>
									</g>
								</g>
							</g>
							<g>
								<g>
									<g>
										<path class="st9" d="M300.5,383.3c0.1,0,0.2,0.1,0.2,0.2c0.1,0.1,0,0.3-0.2,0.4l-7.4,2.7c-0.1,0.1-0.3,0-0.4-0.2
											c-0.1-0.1,0-0.3,0.2-0.4l7.4-2.7C300.4,383.3,300.4,383.3,300.5,383.3z"/>
									</g>
									<g>
										
											<ellipse transform="matrix(0.9387 -0.3447 0.3447 0.9387 -113.7107 127.2617)" class="st9" cx="301" cy="383.4" rx="1.7" ry="1.7"/>
									</g>
								</g>
								<g>
									<g>
										<path class="st9" d="M274.2,393c0.1,0,0.2,0.1,0.2,0.2c0.1,0.1,0,0.3-0.2,0.4l-7.4,2.7c-0.1,0.1-0.3,0-0.4-0.2
											c-0.1-0.1,0-0.3,0.2-0.4l7.4-2.7C274.1,393,274.1,393,274.2,393z"/>
									</g>
									<g>
										
											<ellipse transform="matrix(0.9387 -0.3448 0.3448 0.9387 -120.2803 116.0609)" class="st9" cx="266.2" cy="396.2" rx="1.7" ry="1.7"/>
									</g>
								</g>
							</g>
							<g>
								<g>
									<g>
										<path class="st9" d="M295.1,375.7c0,0,0.1,0,0.1,0.1c0.1,0.1,0.1,0.3,0,0.4l-5.1,6.1c-0.1,0.1-0.3,0.1-0.4,0
											c-0.1-0.1-0.1-0.3,0-0.4l5.1-6.1C294.9,375.8,295,375.7,295.1,375.7z"/>
									</g>
									<g>
										
											<ellipse transform="matrix(0.6405 -0.7679 0.7679 0.6405 -182.1746 361.919)" class="st9" cx="295.5" cy="375.5" rx="1.7" ry="1.7"/>
									</g>
								</g>
								<g>
									<g>
										<path class="st9" d="M277.2,397.3c0,0,0.1,0,0.1,0.1c0.1,0.1,0.1,0.3,0,0.4l-5.1,6.1c-0.1,0.1-0.3,0.1-0.4,0
											c-0.1-0.1-0.1-0.3,0-0.4l5.1-6.1C277,397.3,277.1,397.2,277.2,397.3z"/>
									</g>
									<g>
										
											<ellipse transform="matrix(0.6405 -0.768 0.768 0.6405 -212.6213 353.9117)" class="st9" cx="271.7" cy="404.1" rx="1.7" ry="1.7"/>
									</g>
								</g>
							</g>
							<g>
								
									<ellipse transform="matrix(0.1708 -0.9853 0.9853 0.1708 -148.6942 602.5435)" class="st9" cx="283.6" cy="389.6" rx="11.9" ry="11.9"/>
							</g>
							<g>
								
									<ellipse transform="matrix(0.9387 -0.3448 0.3448 0.9387 -121.8984 123.138)" class="st9" cx="285.3" cy="404.3" rx="1.7" ry="1.7"/>
							</g>
							<g>
								
									<ellipse transform="matrix(0.9387 -0.3447 0.3447 0.9387 -119.9379 121.6783)" class="st9" cx="282.2" cy="398.1" rx="1.7" ry="1.7"/>
							</g>
							<g>
								
									<ellipse transform="matrix(0.9387 -0.3448 0.3448 0.9387 -117.3129 121.6833)" class="st9" cx="283.4" cy="390.7" rx="2" ry="2"/>
							</g>
							<g>
								
									<ellipse transform="matrix(0.9387 -0.3448 0.3448 0.9387 -119.2152 123.2709)" class="st9" cx="286.9" cy="396.8" rx="1.7" ry="1.7"/>
							</g>
							<g>
								
									<ellipse transform="matrix(0.9387 -0.3448 0.3448 0.9387 -117.4911 123.9162)" class="st9" cx="289.6" cy="392.3" rx="1.7" ry="1.7"/>
							</g>
							<g>
								
									<ellipse transform="matrix(0.9387 -0.3448 0.3448 0.9387 -115.7955 123.3269)" class="st9" cx="288.8" cy="387.2" rx="1.7" ry="1.7"/>
							</g>
							<g>
								
									<ellipse transform="matrix(0.9387 -0.3448 0.3448 0.9387 -115.7994 120.1394)" class="st9" cx="279.9" cy="385.6" rx="1.7" ry="1.7"/>
							</g>
							<g>
								
									<ellipse transform="matrix(0.9387 -0.3447 0.3447 0.9387 -117.6603 119.5411)" class="st9" cx="277.3" cy="390.6" rx="1.7" ry="1.7"/>
							</g>
							<g>
								
									<ellipse transform="matrix(0.9387 -0.3447 0.3447 0.9387 -119.0836 120.1384)" class="st9" cx="278.3" cy="394.9" rx="1.7" ry="1.7"/>
							</g>
							<g>
								
									<ellipse transform="matrix(0.9387 -0.3448 0.3448 0.9387 -114.7059 121.682)" class="st9" cx="284.7" cy="383.3" rx="1.7" ry="1.7"/>
							</g>
							<g>
								
									<ellipse transform="matrix(0.9387 -0.3448 0.3448 0.9387 -120.3766 125.4331)" class="st9" cx="292.4" cy="401.1" rx="1.7" ry="1.7"/>
							</g>
							<g>
								
									<ellipse transform="matrix(0.9387 -0.3447 0.3447 0.9387 -118.1549 126.5309)" class="st9" cx="296.7" cy="395.5" rx="1.7" ry="1.7"/>
							</g>
							<g>
								
									<ellipse transform="matrix(0.9387 -0.3448 0.3448 0.9387 -115.5592 126.1388)" class="st9" cx="296.9" cy="388" rx="1.7" ry="1.7"/>
							</g>
							<g>
								
									<ellipse transform="matrix(0.9387 -0.3448 0.3448 0.9387 -113.4665 125.1861)" class="st9" cx="295.2" cy="381.6" rx="1.7" ry="1.7"/>
							</g>
							<g>
								
									<ellipse transform="matrix(0.9387 -0.3448 0.3448 0.9387 -112.0919 123.0992)" class="st9" cx="290.1" cy="376.7" rx="1.7" ry="1.7"/>
							</g>
							<g>
								
									<ellipse transform="matrix(0.9387 -0.3448 0.3448 0.9387 -112.1089 120.2792)" class="st9" cx="282.1" cy="375.3" rx="1.7" ry="1.7"/>
							</g>
							<g>
								
									<ellipse transform="matrix(0.9387 -0.3448 0.3448 0.9387 -113.5135 117.8507)" class="st9" cx="274.5" cy="378" rx="1.7" ry="1.7"/>
							</g>
							<g>
								
									<ellipse transform="matrix(0.9387 -0.3447 0.3447 0.9387 -115.8508 116.6572)" class="st9" cx="270.1" cy="384.1" rx="1.7" ry="1.7"/>
							</g>
							<g>
								
									<ellipse transform="matrix(0.9387 -0.3447 0.3447 0.9387 -118.1983 116.6238)" class="st9" cx="268.8" cy="390.7" rx="1.7" ry="1.7"/>
							</g>
							<g>
								
									<ellipse transform="matrix(0.9387 -0.3448 0.3448 0.9387 -120.6865 117.8593)" class="st9" cx="271" cy="398.2" rx="1.7" ry="1.7"/>
							</g>
							<g>
								
									<ellipse transform="matrix(0.9387 -0.3447 0.3447 0.9387 -122.3193 120.2822)" class="st9" cx="277.1" cy="404.1" rx="1.7" ry="1.7"/>
							</g>
							<g>
								<path class="st9" d="M284.5,396.8c0.1,0,0.2,0.1,0.2,0.2l0.9,6.8c0,0.2-0.1,0.3-0.2,0.3c-0.2,0-0.3-0.1-0.3-0.2l-0.9-6.8
									C284.1,396.9,284.2,396.8,284.5,396.8C284.4,396.8,284.4,396.8,284.5,396.8z"/>
							</g>
							<g>
								<path class="st9" d="M288,395.9c0.1,0,0.1,0,0.2,0.1l4.5,4.8c0.1,0.1,0.1,0.3,0,0.4c-0.1,0.1-0.3,0.1-0.4,0l-4.5-4.8
									c-0.1-0.1-0.1-0.3,0-0.4C287.9,395.9,288,395.9,288,395.9z"/>
							</g>
							<g>
								<path class="st9" d="M289.6,392.3C289.6,392.3,289.7,392.3,289.6,392.3l6.6,2.8c0.1,0.1,0.2,0.2,0.1,0.4
									c-0.1,0.1-0.2,0.2-0.4,0.1l-6.6-2.8c-0.1-0.1-0.2-0.2-0.1-0.4C289.4,392.3,289.5,392.3,289.6,392.3z"/>
							</g>
							<g>
								<path class="st9" d="M296.5,387.6c0.1,0,0.2,0.1,0.2,0.2c0,0.2-0.1,0.3-0.2,0.3l-6.8,1.1c-0.2,0-0.3-0.1-0.3-0.2
									c0-0.2,0.1-0.3,0.2-0.3L296.5,387.6C296.4,387.6,296.4,387.6,296.5,387.6z"/>
							</g>
							<g>
								<path class="st9" d="M295,381.6c0.1,0,0.1,0.1,0.2,0.1c0.1,0.1,0,0.3-0.1,0.4l-5.7,3.6c-0.1,0.1-0.3,0-0.4-0.1
									c-0.1-0.1,0-0.3,0.1-0.4l5.7-3.6C294.9,381.6,294.9,381.6,295,381.6z"/>
							</g>
							<g>
								<path class="st9" d="M290,376.9C290.1,376.9,290.1,376.9,290,376.9c0.2,0.1,0.3,0.3,0.2,0.4l-3.4,6.5
									c-0.1,0.1-0.2,0.2-0.4,0.1c-0.1-0.1-0.2-0.2-0.1-0.4l3.4-6.5C289.8,376.9,289.9,376.9,290,376.9z"/>
							</g>
							<g>
								<path class="st9" d="M282.1,375.5c0.1,0,0.2,0.1,0.2,0.3l0.6,8c0,0.2-0.1,0.3-0.3,0.3c-0.2,0-0.3-0.1-0.3-0.3l-0.6-8
									C281.7,375.6,281.9,375.5,282.1,375.5C282,375.5,282.1,375.5,282.1,375.5z"/>
							</g>
							<g>
								<path class="st9" d="M277.4,394c0.1,0,0.1,0.1,0.2,0.1c0.1,0.1,0,0.3-0.1,0.4l-6.1,3.8c-0.1,0.1-0.3,0-0.4-0.1
									c-0.1-0.1,0-0.3,0.1-0.4l6.1-3.8C277.3,394,277.3,394,277.4,394z"/>
							</g>
							<g>
								<path class="st9" d="M280.1,396.6C280.1,396.6,280.1,396.7,280.1,396.6c0.2,0.1,0.3,0.2,0.2,0.4l-2.8,6.6
									c-0.1,0.1-0.2,0.2-0.4,0.1c-0.1-0.1-0.2-0.2-0.1-0.4l2.8-6.6C279.8,396.7,280,396.6,280.1,396.6z"/>
							</g>
							<g>
								<path class="st9" d="M276.7,390.3c0.1,0,0.2,0.1,0.2,0.3c0,0.2-0.1,0.3-0.3,0.3L269,391c-0.2,0-0.3-0.1-0.3-0.3
									c0-0.2,0.1-0.3,0.3-0.3L276.7,390.3C276.7,390.2,276.7,390.3,276.7,390.3z"/>
							</g>
							<g>
								<path class="st9" d="M270.4,383.9C270.4,383.9,270.5,383.9,270.4,383.9l7.5,3.7c0.1,0.1,0.2,0.2,0.1,0.4
									c-0.1,0.1-0.2,0.2-0.4,0.1l-7.5-3.6c-0.1-0.1-0.2-0.2-0.1-0.4C270.2,383.9,270.3,383.8,270.4,383.9z"/>
							</g>
							<g>
								<path class="st9" d="M274.7,378.1c0.1,0,0.1,0,0.2,0.1l4.9,6.1c0.1,0.1,0.1,0.3,0,0.4c-0.1,0.1-0.3,0.1-0.4,0l-4.9-6.1
									c-0.1-0.1-0.1-0.3,0-0.4C274.6,378.1,274.7,378.1,274.7,378.1z"/>
							</g>
							<g>
								<path class="st9" d="M282.8,394.5c0.2,0,0.3,0.2,0.2,0.3l-0.4,2.5c0,0.2-0.2,0.3-0.3,0.2c-0.2,0-0.3-0.2-0.2-0.3l0.4-2.5
									C282.5,394.6,282.6,394.5,282.8,394.5z"/>
							</g>
							<g>
								<path class="st9" d="M285,393.4c0.1,0,0.1,0.1,0.2,0.1l1.5,2.3c0.1,0.1,0.1,0.3-0.1,0.4c-0.1,0.1-0.3,0.1-0.4-0.1l-1.5-2.3
									c-0.1-0.1-0.1-0.3,0.1-0.4C284.9,393.4,285,393.4,285,393.4z"/>
							</g>
							<g>
								<path class="st9" d="M285.5,391C285.5,391,285.5,391,285.5,391l3.7,0.9c0.1,0,0.2,0.2,0.2,0.3c0,0.1-0.2,0.2-0.3,0.2
									l-3.7-0.9c-0.1,0-0.2-0.2-0.2-0.3C285.2,391.1,285.3,391,285.5,391z"/>
							</g>
							<g>
								<path class="st9" d="M288,387.3c0.1,0,0.2,0.1,0.2,0.2c0.1,0.1,0,0.3-0.2,0.4l-2.5,0.9c-0.1,0.1-0.3,0-0.4-0.2
									c-0.1-0.1,0-0.3,0.2-0.4l2.5-0.9C287.9,387.3,288,387.3,288,387.3z"/>
							</g>
							<g>
								<path class="st9" d="M284.6,383.9c0.2,0,0.3,0.2,0.2,0.3l-0.5,2.7c0,0.2-0.2,0.3-0.3,0.2c-0.2,0-0.3-0.2-0.2-0.3l0.5-2.7
									C284.3,383.9,284.5,383.8,284.6,383.9z"/>
							</g>
							<g>
								<path class="st9" d="M280.3,385.9c0.1,0,0.1,0,0.2,0.1l2.1,2.5c0.1,0.1,0.1,0.3,0,0.4c-0.1,0.1-0.3,0.1-0.4,0l-2.1-2.5
									c-0.1-0.1-0.1-0.3,0-0.4C280.1,385.9,280.2,385.9,280.3,385.9z"/>
							</g>
							<g>
								<path class="st9" d="M280.8,392.8c0.1,0,0.1,0,0.2,0.1c0.1,0.1,0.1,0.3-0.1,0.4l-1.9,1.5c-0.1,0.1-0.3,0.1-0.4-0.1
									c-0.1-0.1-0.1-0.3,0.1-0.4l1.9-1.5C280.6,392.8,280.7,392.8,280.8,392.8z"/>
							</g>
							<g>
								<path class="st9" d="M281.1,390.8c0.1,0,0.2,0.2,0.2,0.3c0,0.2-0.2,0.3-0.3,0.3l-3.1-0.3c-0.2,0-0.3-0.2-0.2-0.3
									c0-0.2,0.2-0.3,0.3-0.3L281.1,390.8C281.1,390.8,281.1,390.8,281.1,390.8z"/>
							</g>
						</g>
					</g>
					<g>
						<rect x="165.8" y="381.4" class="st8" width="75.7" height="9.8"/>
						<rect x="165.8" y="398.7" class="st8" width="75.7" height="9.8"/>
					</g>
					<text transform="matrix(1 0 0 1 170.2762 190.4253)" class="st8 st11 st17">NEWS</text>
					<text transform="matrix(1 0 0 1 245.8595 190.4253)" class="st8 st11 st17">NEWS</text>
					<text transform="matrix(1 0 0 1 262.7556 284.7487)" class="st10 st11 st17">LIVE</text>
					<circle class="st9" cx="255.6" cy="278.7" r="4.2"/>
					<g>
						<g>
							<path class="st8" d="M195.8,375.8c-17.3,0-31.3-14.1-31.3-31.4c0-17.3,14.1-31.3,31.4-31.3c17.3,0,31.3,14.1,31.3,31.4
								C227.2,361.8,213.1,375.9,195.8,375.8z M196,315.7c-15.9,0-28.8,12.9-28.9,28.8c0,15.9,12.9,28.8,28.8,28.9
								c15.9,0,28.8-12.9,28.9-28.8C224.7,328.7,211.8,315.7,196,315.7z"/>
						</g>
						<g>
							
								<rect x="165.8" y="343.2" transform="matrix(1.691113e-03 -1 1 1.691113e-03 -148.9158 539.8179)" class="st8" width="60.2" height="2.5"/>
						</g>
						<g>
							<path class="st8" d="M188.9,374.9c-0.5-0.4-11.1-10.3-11.1-30.4c0-20.2,12.1-30,12.6-30.4l1.6,2c-0.1,0.1-11.6,9.5-11.6,28.4
								c0,19,10.2,28.4,10.3,28.5L188.9,374.9z"/>
						</g>
						<g>
							<path class="st8" d="M203.7,374.9L202,373c0.1-0.1,10.3-9.5,10.4-28.5c0-18.9-11.4-28.4-11.5-28.5l1.6-2
								c0.5,0.4,12.5,10.3,12.5,30.5C214.8,364.7,204.1,374.5,203.7,374.9z"/>
						</g>
						<g>
							
								<rect x="194.6" y="314.4" transform="matrix(1.893272e-03 -1 1 1.893272e-03 -148.9552 539.7479)" class="st8" width="2.5" height="60.2"/>
						</g>
						<g>
							<path class="st8" d="M195.9,331.9c-15.2,0-21.1-8.6-21.3-8.9l2.1-1.4c0.2,0.3,5.4,7.8,19.2,7.8c13.9,0,19.2-7.6,19.3-7.7
								l2.1,1.4C217.1,323.4,211.2,331.9,195.9,331.9z"/>
						</g>
						<g>
							<path class="st8" d="M176.6,367.9l-2.1-1.4c0.2-0.4,6.2-8.9,21.4-8.8c15.2,0,21.1,8.6,21.3,8.9l-2.1,1.4
								c-0.2-0.3-5.4-7.8-19.2-7.8C182.1,360.2,176.8,367.6,176.6,367.9z"/>
						</g>
					</g>
					<g>
						<path class="st10" d="M310.6,436.1L167,436.2c-14.1,0-25.5-11.4-25.5-25.5l-0.2-304.1c0-14.1,11.4-25.5,25.5-25.5L310.4,81
							c14.1,0,25.5,11.4,25.5,25.5l0.2,304.1C336.1,424.6,324.7,436.1,310.6,436.1z M166.8,89.8c-9.3,0-16.8,7.5-16.8,16.8
							l0.2,304.1c0,9.3,7.5,16.8,16.8,16.8l143.6-0.1c9.2,0,16.8-7.5,16.8-16.8l-0.2-304.1c0-9.2-7.5-16.8-16.8-16.8L166.8,89.8z"/>
					</g>
					<path class="st10" d="M253.5,99.5h-26.3c-2.8,0-5.1-2.3-5.1-5.1v-8.8h36.5v8.8C258.6,97.2,256.3,99.5,253.5,99.5z"/>
				</g>
				<g>
					<g>
						<g>
							<path class="st18" d="M339.2,304.7c0,0,18.3-11.2,68.5,2.6c-1-35-7.8-66.8-7.8-66.8l-47.8-11.6L339.2,304.7z"/>
							<g>
								<path class="st19" d="M298,211.7c0,0-2.6,0.6-4.9,0.2c-2.3-0.4-7.2-2-8.6-1.6c-1.5,0.4-0.4,2.3,1.4,2.9
									c1.9,0.6,2.9,1.1,2.9,1.1s-9.4,1.8-13.2,1.6c-2.7,0.4-1.3,2.3,0.7,2.4c2,0.1,9-0.4,9-0.4s-7.5,1.4-10.1,1.5
									c-2.6,0.1-2.6,1-2.2,1.9c0.4,1,11.8-0.2,12.5-0.4c-4.2,2.3-10.1,2.8-10.8,3.2c-0.8,0.4-1,1.7,0.4,2
									c1.4,0.3,9.9-1.4,10.8-1.8c-2.6,1.6-6.6,2.6-7.3,3.1c-0.7,0.5-0.1,1.9,2.3,1.2c2.4-0.6,10.9-3.4,13.4-5.1
									c2.5-1.7,6.2-3,6.2-3L298,211.7z"/>
								<path class="st20" d="M338.4,192.4c-8.4,3.8-42.2,19-42.2,19l3.7,11.1c0,0,21.1-3.7,38.5-11.2V192.4z"/>
								<path class="st8" d="M377.8,152.4c0,0-7.6,24.8-15.9,43.2c-8.3,18.3-56,28.3-56,28.3l-5.2-14.4c0,0,36.7-18.2,39.7-19.6
									c5.5-2.4,13.9-21.7,17.1-29.9C360.9,151.2,376.2,142.1,377.8,152.4z"/>
								<path class="st21" d="M375.5,148.5c-0.9,3-8.1,25.7-15.8,42.8c-7.8,17.2-50.1,27-55.4,28.1l1.6,4.4c0,0,47.7-9.9,56-28.3
									c8.3-18.3,15.9-43.2,15.9-43.2C377.5,150.4,376.6,149.2,375.5,148.5z"/>
								<g>
									<g>
										<g>
											<g>
												<path class="st19" d="M411.2,240.9c0,0-0.7,53.1-3.7,71.5c-3,18.4,0.2,35.5-2.6,52.2c-2.8,16.7-9.5,51.7-9.5,51.7h-8.7
													c0,0-2.3-68.5-1.6-83.4c0.7-14.8-4.3-75.1-4.3-76c0-0.8,2-19.7,2-19.7L411.2,240.9z"/>
												<path class="st22" d="M396.4,415.9c0.2,2.9,0.8,7.6,2.7,10.1c3,3.9,8.6,8.4,6,10.9c-2.6,2.5-22.3,2.6-23.3,0
													c-0.8-2.3,3.1-17.8,4-21H396.4z"/>
												<path class="st8" d="M405,433.1c0.9,1.5,1.2,2.8,0.1,3.8c-2.6,2.5-22.3,2.6-23.3,0c-0.2-0.6-0.1-1.9,0.1-3.7
													C383.9,435.5,402,435.4,405,433.1z"/>
											</g>
											<g>
												<path class="st19" d="M355.7,241.3c0,0-4.7,52.7-1.7,71.1c3,18.4-0.2,35.5,2.6,52.2c2.8,16.7,8.1,51.9,8.1,51.9l8.9-0.2
													c0,0,3.6-68.5,3-83.4c-0.7-14.8,0.5-75.1,0.5-76c0-0.8-2-19.7-2-19.7L355.7,241.3z"/>
												<path class="st10" d="M406.1,330.5c2.9-18.7,6.3-89.4,6.3-89.4l-24.9-3.3c0.1-0.4,0.2-0.6,0.2-0.6l-3.9,0.2l-1.2-0.2
													c0,0,0,0.1,0,0.2l-7.4,0.3c0-0.3-0.1-0.5-0.1-0.5l-2.9,0.6l-17.7,0.7c-1.5-9.3-6.4,49.2,0.9,101.8c0,0,0,0,0,0
													c-0.1,8.2-0.1,16.3,1.3,24.3c2.2,13,3.1,36.7,4.6,46.6h14.2c0.8-16.1,1.7-65.9,1.1-78.3c-0.1-1.8-0.1-4.2-0.2-7.1
													c0.9-10.8,3.2-36.6,4.8-54.3c1.5,21.8,3.9,58.5,3.9,58.8c0,1,0,1.9-0.1,2.6c-0.5,12.4-0.8,62.1-0.3,78.3h15.7
													c1.9-9.9,2.3-33.6,4.5-46.6C406.7,353.5,406,342.2,406.1,330.5z"/>
												<path class="st23" d="M387.8,237.9c0.9,32.4,2.5,73.5,1.7,86.3c6.4,1.1,12.2,0.8,17.4-0.3c2.7-24.9,5.5-82.7,5.5-82.7
													L387.8,237.9z"/>
												<path class="st22" d="M361,426c1.9-2.5,2.5-7.1,2.7-10.1h10.6c0.8,3.2,4.8,18.7,4,21c-0.9,2.6-20.6,2.5-23.3,0
													C352.4,434.5,358,429.9,361,426z"/>
												<path class="st8" d="M378.1,433.3c0.2,1.7,0.3,3.1,0.1,3.6c-0.9,2.6-20.6,2.5-23.3,0c-1-1-0.8-2.3,0.1-3.7
													C358,435.5,376.3,435.7,378.1,433.3z"/>
											</g>
											<path class="st23" d="M387.7,237.2l-3.9,0.2l-1.2-0.2c0,0,0,0.1,0,0.2l-7.4,0.3c0-0.3-0.1-0.5-0.1-0.5l-2.9,0.6
												l-17.7,0.7c-0.7-4.1-2,5.1-2.6,21.2c24.5,7.7,50.3,0.5,59.8-2.8c0.5-9.4,0.8-15.7,0.8-15.7l-24.9-3.3
												C387.6,237.4,387.7,237.2,387.7,237.2z"/>
											<g>
												<path class="st20" d="M427,162.9c0,0-11.1-17.3-26.1-18.4c-10.2-0.7-21.5,0.4-31.4,4.2c-5.2,23.6-13.4,73.8-17.3,97.2
													c32.3,13.5,63.3,9.5,63.3,9.5s1-52.2,4.7-69.1C423.9,169.4,427,162.9,427,162.9z"/>
											</g>
											<g>
												<path class="st24" d="M356.7,219.1c-1.1,6.3-2.1,9.5-3,14.8c20.2,6.1,40.2,0.7,60.8-3.3c0.4-10,2.4-15,3.3-25.8
													C398.4,212.8,377.8,216.8,356.7,219.1z"/>
											</g>
											<path class="st24" d="M369.5,148.7c-5.2,23.6-13.4,73.8-17.3,97.2c1.5,0.6,3,1.2,4.6,1.8c5.4-26.6,14.9-62.2,19.6-76.4
												c4.6-14.1,10-23.3,12.2-26.7C382.1,145,375.5,146.3,369.5,148.7z"/>
											<path class="st8" d="M389.6,143c0,0-9.3,10-15.2,28.1c-6.3,19.3-26.5,78-28.2,100.3s-3.5,38.7-3.5,38.7l-5.6-1.7
												c0,0,4.7-56.6,12.3-84.6c7.7-28,11.6-52.2,14.5-63.1c2.9-10.9,3.6-10.5,4-11.5C368.3,148.2,384.7,143.3,389.6,143z"/>
											<path class="st8" d="M404.9,143.7c0,0,2.3,5.5-3.3,12.4c-6.5,8.1-12.3,26.6-14,40.8c-1.6,14.3,8.6,96.7,7.5,117.1
												c29.5,5.1,40.2-9.3,40.2-9.3s-17-46.1-16.3-67.8c0.7-21.7,3.2-60.7,5.6-67.4s4.2-4.7,4.2-4.7S422.3,149.4,404.9,143.7z"
												/>
											<path class="st19" d="M344.3,221.5c0,0-2.7,0.4-4.9-0.2c-2.3-0.6-7-2.7-8.5-2.4c-1.5,0.3-0.6,2.2,1.2,3
												c1.8,0.8,2.8,1.4,2.8,1.4s-9.6,1-13.3,0.4c-2.7,0.2-1.5,2.1,0.5,2.5c2,0.3,9,0.4,9,0.4s-7.6,0.7-10.2,0.6
												c-2.6-0.1-2.7,0.7-2.3,1.7c0.3,1,11.8,0.8,12.5,0.7c-4.3,1.9-10.3,1.9-11.1,2.2c-0.8,0.3-1.1,1.6,0.2,2.1
												c1.3,0.5,10-0.5,11-0.9c-2.7,1.4-6.8,2-7.6,2.4c-0.7,0.4-0.3,1.8,2.2,1.4c2.4-0.4,11.1-2.4,13.8-3.9
												c2.7-1.5,6.5-2.4,6.5-2.4L344.3,221.5z"/>
											<path class="st20" d="M370,210.1c-13.1,5.2-27.4,10.8-27.4,10.8l2.7,11.3c0,0,11.2-2,24.7-5.6V210.1z"/>
											<path class="st21" d="M429,169.4c0,0-2.9,21.4-16.6,41.6c-11.3,16.7-62.6,22.1-62.6,22.1l-3.7-14.2
												c0,0,42.1-15.9,45.2-17c5.7-1.9,16.7-28.1,21.1-35.6C416.9,158.7,430.9,158.2,429,169.4z"/>
											<path class="st8" d="M429,169.4c0,0-6.4,17.9-20.1,38.1c-11.3,16.7-60.5,20.4-60.5,20.4l-2.3-9c0,0,42.1-15.9,45.2-17
												c5.7-1.9,16.7-28.1,21.1-35.6C416.9,158.7,430.9,158.2,429,169.4z"/>
										</g>
										<g>
											<path class="st19" d="M390.6,131.4c0,0,0.5,9.9-3,14.1c-1.3,1.6-1.3,7.4,3,8.9c2.9,1,12.9,1.8,14.1-4.1
												c0,0,1.2-3.2,0.1-6.6c-1.1-3.4,1.3-17,1.3-17L390.6,131.4z"/>
											<path class="st25" d="M404.9,136c0.4-4.6,1.3-9.3,1.3-9.3l-15.5,4.7c0,0,0.3,6.5-1.4,11.2
												C395.5,142.8,400.7,140.1,404.9,136z"/>
											<path class="st19" d="M385.8,105.1c0,0-3,7.7-4,15c-1,7.4,1.6,14.6,4.4,17c2.8,2.4,12.7,1.9,17.1-6
												c4.4-7.9,4.1-18.5,4.1-18.5L385.8,105.1z"/>
											<path class="st8" d="M383.5,127c0,0,1.9,2.9,7.3,1.6C388.1,133.3,383.8,134.7,383.5,127z"/>
											<path class="st10" d="M399.9,107.3c0,0-1.6,12.1,7.6,16.6c1.2,0.6-2.5,3.1-2,4c0.2,0.3-0.7,9.1-0.7,9.1
												c13.9-10.9,14.3-24.2,14.3-24.2s1.9-12.3-7.4-15.8C405.5,94.6,399,100.9,399.9,107.3z"/>
											<path class="st10" d="M403.1,111.4c0,0-3.2,1.2-12.3-0.9c-8.1-1.9-10.5-4.6-12.1-10.6c-0.7-1.6,2.3-0.2,14-5.4
												c6.4-2.9,17.4-3,21.1,2.8C414.9,99.9,420.8,109.2,403.1,111.4z"/>
											
												<ellipse transform="matrix(0.9905 -0.1375 0.1375 0.9905 -12.7537 55.4583)" class="st10" cx="395.2" cy="120.1" rx="0.7" ry="1"/>
											
												<ellipse transform="matrix(0.2977 -0.9547 0.9547 0.2977 157.542 450.2273)" class="st10" cx="384.8" cy="118" rx="0.9" ry="0.7"/>
											<path class="st10" d="M398.7,120c0,0-1.1-4-4.3-4.3c-1.5,0-1.5,1.6-0.7,1.7C394.5,117.5,397.3,118,398.7,120z"/>
											<path class="st10" d="M382.3,115.4c0,0,2-1.7,3.8-1.1c0.7,0.3,0.2,1.6-0.7,1.4C384.6,115.7,383.1,115.3,382.3,115.4z"/>
											<path class="st19" d="M405,122c0,0,2.4-4.8,5.9-3.8c3.5,1.1-1.7,11.3-6,9.5C403.3,125.1,405,122,405,122z"/>
										</g>
									</g>
								</g>
							</g>
						</g>
						<path class="st8" d="M381.8,120.2c0,0-0.4,2.7,8.2,3.2c8.6,0.5,15.6-2.4,15.6-2.4s-5.2,7.3-2.5,10.6
							c-4.1,7.5-11.1,8.1-15.1,7.2C383.9,137.9,379.2,129.6,381.8,120.2z"/>
					</g>
					<g>
						<g>
							<path class="st26" d="M372.6,418.7h-6.8c-0.3,0-0.5-0.2-0.5-0.5c0-0.3,0.2-0.5,0.5-0.5h6.8c0.3,0,0.5,0.2,0.5,0.5
								C373.1,418.4,372.8,418.7,372.6,418.7z"/>
						</g>
						<g>
							<path class="st26" d="M372.6,421.2h-6.8c-0.3,0-0.5-0.2-0.5-0.5s0.2-0.5,0.5-0.5h6.8c0.3,0,0.5,0.2,0.5,0.5
								S372.8,421.2,372.6,421.2z"/>
						</g>
						<g>
							<path class="st26" d="M372.6,423.8h-6.8c-0.3,0-0.5-0.2-0.5-0.5s0.2-0.5,0.5-0.5h6.8c0.3,0,0.5,0.2,0.5,0.5
								S372.8,423.8,372.6,423.8z"/>
						</g>
						<g>
							<path class="st26" d="M372.6,426.4h-6.8c-0.3,0-0.5-0.2-0.5-0.5c0-0.3,0.2-0.5,0.5-0.5h6.8c0.3,0,0.5,0.2,0.5,0.5
								C373.1,426.2,372.8,426.4,372.6,426.4z"/>
						</g>
						<g>
							<path class="st26" d="M372.7,429.4c-0.1,0-0.2,0-0.3-0.1c-2.5-1.9-8.1-1-8.2-1c-0.3,0-0.5-0.1-0.6-0.4c0-0.3,0.1-0.5,0.4-0.6
								c0.2,0,6.1-1,8.9,1.2c0.2,0.2,0.3,0.5,0.1,0.7C372.9,429.4,372.8,429.4,372.7,429.4z"/>
						</g>
						<g>
							<path class="st26" d="M371.8,430.9c-0.1,0-0.2,0-0.3-0.1c-2.8-1.8-8.7-0.6-8.7-0.6c-0.3,0.1-0.5-0.1-0.6-0.4
								c-0.1-0.3,0.1-0.5,0.4-0.6c0.3-0.1,6.4-1.3,9.5,0.7c0.2,0.2,0.3,0.5,0.1,0.7C372.2,430.8,372,430.9,371.8,430.9z"/>
						</g>
					</g>
					<g>
						<g>
							<path class="st26" d="M387.9,418.7h6.8c0.3,0,0.5-0.2,0.5-0.5c0-0.3-0.2-0.5-0.5-0.5h-6.8c-0.3,0-0.5,0.2-0.5,0.5
								C387.4,418.4,387.6,418.7,387.9,418.7z"/>
						</g>
						<g>
							<path class="st26" d="M387.9,421.2h6.8c0.3,0,0.5-0.2,0.5-0.5s-0.2-0.5-0.5-0.5h-6.8c-0.3,0-0.5,0.2-0.5,0.5
								S387.6,421.2,387.9,421.2z"/>
						</g>
						<g>
							<path class="st26" d="M387.9,423.8h6.8c0.3,0,0.5-0.2,0.5-0.5s-0.2-0.5-0.5-0.5h-6.8c-0.3,0-0.5,0.2-0.5,0.5
								S387.6,423.8,387.9,423.8z"/>
						</g>
						<g>
							<path class="st26" d="M387.9,426.4h6.8c0.3,0,0.5-0.2,0.5-0.5c0-0.3-0.2-0.5-0.5-0.5h-6.8c-0.3,0-0.5,0.2-0.5,0.5
								C387.4,426.2,387.6,426.4,387.9,426.4z"/>
						</g>
						<g>
							<path class="st26" d="M387.8,429.4c0.1,0,0.2,0,0.3-0.1c2.5-1.9,8.1-1,8.2-1c0.3,0,0.5-0.1,0.6-0.4c0-0.3-0.1-0.5-0.4-0.6
								c-0.2,0-6.1-1-8.9,1.2c-0.2,0.2-0.3,0.5-0.1,0.7C387.5,429.4,387.6,429.4,387.8,429.4z"/>
						</g>
						<g>
							<path class="st26" d="M388.6,430.9c0.1,0,0.2,0,0.3-0.1c2.8-1.8,8.7-0.6,8.7-0.6c0.3,0.1,0.5-0.1,0.6-0.4
								c0.1-0.3-0.1-0.5-0.4-0.6c-0.3-0.1-6.4-1.3-9.5,0.7c-0.2,0.2-0.3,0.5-0.1,0.7C388.3,430.8,388.4,430.9,388.6,430.9z"/>
						</g>
					</g>
				</g>
				<g>
					<g>
						<rect x="251.4" y="335.1" class="st8" width="59.7" height="1.2"/>
					</g>
					<g>
						<rect x="251.4" y="344.5" class="st8" width="59.7" height="1.2"/>
					</g>
					<g>
						<rect x="251.4" y="353.8" class="st8" width="59.7" height="1.2"/>
					</g>
					<g>
						<rect x="251.4" y="363.2" class="st8" width="59.7" height="1.2"/>
					</g>
				</g>
			</g>
			<g>
				<g>
					<g>
						<path class="st8" d="M129,90.2l-1.6-1.2c2.2-3.1,3.6-4.8,3.7-4.8l1.5,1.3C132.6,85.5,131.2,87.1,129,90.2z"/>
					</g>
					<g>
						<path class="st8" d="M130.8,384.4c-2.1-3.4-4.2-6.9-6.2-10.3l1.7-1c2,3.4,4.1,6.9,6.2,10.3L130.8,384.4z M118.7,363.6
							c-1.9-3.5-3.8-7.2-5.5-10.7l1.8-0.9c1.7,3.5,3.6,7.1,5.5,10.6L118.7,363.6z M108,342c-1.6-3.7-3.2-7.4-4.7-11.1l1.9-0.7
							c1.5,3.7,3,7.4,4.7,11L108,342z M99,319.6c-1.3-3.8-2.6-7.6-3.8-11.4l1.9-0.6c1.2,3.8,2.4,7.6,3.8,11.4L99,319.6z M91.9,296.6
							c-1-3.9-2-7.8-2.8-11.7l2-0.4c0.8,3.9,1.8,7.8,2.8,11.6L91.9,296.6z M86.9,273c-0.7-4-1.2-8-1.7-11.9l2-0.2
							c0.5,3.9,1,7.9,1.7,11.8L86.9,273z M84,249c-0.3-4-0.5-8.1-0.6-12.1l2,0c0.1,4,0.3,8,0.6,12L84,249z M85.4,225l-2,0
							c0.1-4,0.3-8.1,0.6-12.1l2,0.1C85.7,217,85.5,221,85.4,225z M87.1,201.1l-2-0.2c0.5-4,1.1-8,1.7-11.9l2,0.3
							C88.2,193.2,87.6,197.2,87.1,201.1z M91.2,177.5l-2-0.4c0.9-3.9,1.8-7.8,2.9-11.7l1.9,0.5C93,169.7,92,173.6,91.2,177.5z
							 M97.4,154.4l-1.9-0.6c1.2-3.8,2.6-7.6,4-11.4l1.9,0.7C100,146.8,98.6,150.6,97.4,154.4z M105.8,132l-1.8-0.8
							c1.6-3.7,3.3-7.4,5-11l1.8,0.9C109.1,124.7,107.4,128.3,105.8,132z M116.4,110.5l-1.8-1c2-3.6,4-7.1,6.1-10.4l1.7,1.1
							C120.4,103.5,118.3,107,116.4,110.5z"/>
					</g>
					<g>
						<path class="st8" d="M140.8,399.5c-1.1-1.7-2.3-3.3-3.4-5l1.7-1.1c1.1,1.6,2.2,3.3,3.4,4.9L140.8,399.5z"/>
					</g>
				</g>
				<g>
					<g>
						<g>
							<path class="st27" d="M173.3,106.9c0,10.5-8.5,19-19,19h-28.7c-10.5,0-19-8.5-19-19V78.2c0-10.5,8.5-19,19-19h28.7
								c10.5,0,19,8.5,19,19V106.9z"/>
						</g>
					</g>
					<g>
						<g>
							<path class="st8" d="M147.1,112.9c-5.4,0-9.8-0.8-13-2.5c-2.6-1.2-4.4-1-4.6-1l-1.4,0.2l0-1.4V89.1l1.2,0c0,0,0,0,0,0
								c0.3,0,6,0,9.4-2.9c3.6-3,5.6-6.9,7-9.6c1.2-2.4,2-4.1,3.5-4.4c1.2-0.3,2.4,0.3,3.3,1.7c1.2,1.9,1.7,5.6,0.2,8.4
								c-0.7,1.4-1.3,2.5-1.7,3.3c0.8,0,1.7,0,2.6,0c1.3,0,2.5,0,3.3-0.1c2-0.2,3.7,1.4,4.2,3.6c0.3,1.3,0,2.6-0.7,3.5
								c0.8,0.9,1.4,2.1,1.5,3.5c0,0.9-0.2,2.1-1.4,3.3c1,1.3,1.2,2.5,1.1,3.4c-0.2,1.3-0.9,2.5-2.2,3.5c0.4,1.3,0.3,2.5-0.3,3.6
								c-0.8,1.4-2.3,2.4-4.2,2.6C153.4,112.6,150.5,112.9,147.1,112.9z M130.6,106.9c1,0.1,2.6,0.4,4.6,1.2
								c2.9,1.5,6.9,2.3,11.9,2.3c3.2,0,6-0.3,7.4-0.5c1.1-0.1,2-0.6,2.4-1.3c0.4-0.7,0.3-1.5-0.1-2.4l-0.5-1.1l1.1-0.6
								c1.1-0.6,1.8-1.4,1.9-2.1c0.1-0.9-0.6-1.7-1.2-2.2l-1.2-1l1.3-0.9c0.9-0.7,1.4-1.4,1.4-2.2c0-1-0.8-2-1.6-2.5l-1.9-1.3
								l2.2-0.9c0.7-0.3,0.8-1.3,0.7-1.8c-0.1-0.6-0.5-1.6-1.4-1.6c-1,0.1-2.2,0.1-3.6,0.1c-2.4,0-4.6-0.1-4.7-0.1l-2-0.1l0.9-1.7
								c0,0,0.8-1.5,2.6-5c1-2,0.7-4.6-0.1-6c-0.3-0.4-0.5-0.6-0.6-0.6c-0.4,0.2-1.3,1.9-1.9,3.1c-1.5,3-3.5,7.1-7.6,10.4
								c-3.1,2.6-7.6,3.2-9.8,3.4V106.9z"/>
						</g>
						<g>
							<path class="st8" d="M130.5,112.9h-12.4V84.9h12.4V112.9z M120.6,110.4h7.5V87.3h-7.5V110.4z"/>
						</g>
					</g>
				</g>
				<g>
					<g>
						<circle class="st16" cx="84.6" cy="298.9" r="34.1"/>
						<path class="st16" d="M107.3,319c0,0-3.2,14.7,9.8,18.9c-10.2,7-26.6-2.1-30.8-8.1C82.2,323.7,107.3,319,107.3,319z"/>
					</g>
					<g>
						<circle class="st8" cx="98.4" cy="289.3" r="2.4"/>
						<circle class="st8" cx="88.8" cy="289.3" r="2.4"/>
						<circle class="st8" cx="79.2" cy="289.3" r="2.4"/>
						<circle class="st8" cx="69.6" cy="289.3" r="2.4"/>
					</g>
					<g>
						<circle class="st8" cx="98.4" cy="307.2" r="2.4"/>
						<circle class="st8" cx="88.8" cy="307.2" r="2.4"/>
						<circle class="st8" cx="79.2" cy="307.2" r="2.4"/>
						<circle class="st8" cx="69.6" cy="307.2" r="2.4"/>
					</g>
				</g>
				<g>
					<g>
						<path class="st9" d="M118.3,207.9c0,3.5-2.9,6.4-6.4,6.4h-51c-3.5,0-6.4-2.9-6.4-6.4v-38.4c0-3.5,2.9-6.4,6.4-6.4h51
							c3.5,0,6.4,2.9,6.4,6.4V207.9z"/>
						<polygon class="st9" points="74,208.7 86.6,225.6 98.7,208.7 						"/>
					</g>
					<path class="st8" d="M93.5,178.1c-5.2-0.1-7.2,4.1-7.2,4.1s-2-4.2-7.2-4.1c-5.2,0.1-7.9,7.3-4,13.3c3,4.6,11.1,9.5,11.1,9.5
						s8.1-4.8,11.1-9.5C101.5,185.4,98.7,178.2,93.5,178.1z"/>
				</g>
				<g>
					<g>
						<g>
							<path class="st27" d="M170.6,408.9c0,9.7-7.8,17.5-17.5,17.5h-26.4c-9.7,0-17.5-7.8-17.5-17.5v-26.4
								c0-9.7,7.8-17.5,17.5-17.5h26.4c9.7,0,17.5,7.8,17.5,17.5V408.9z"/>
						</g>
					</g>
					<g>
						<g>
							<path class="st8" d="M140,402.6L140,402.6c-2.2,0-4.1-1.8-4.1-4.1v-18.1c0-2.2,1.8-4.1,4.1-4.1h0c2.2,0,4.1,1.8,4.1,4.1v18.1
								C144,400.8,142.2,402.6,140,402.6z"/>
							<circle class="st8" cx="140" cy="410.5" r="4.5"/>
						</g>
					</g>
				</g>
			</g>
		</g>
	</g>
</g>
</svg>
