<svg enable-background="new 0 0 500 500" viewBox="0 0 500 500" xmlns="http://www.w3.org/2000/svg"><path d="m395.6 317.2c-30.7 33.1-76.7 38.6-119.3 40-48.2 1.7-100.1.3-142.2-26.3-85.7-54.1-90.2-209.5 2-260.9 23.7-13.2 52.9-16 78.7-7.7 20.7 6.7 39 20.2 60.2 25 18 4.1 36.7 1.7 55.1.3 117.1-8.5 126.9 163.4 65.5 229.6z" fill="#acdee8"/><circle cx="275.2" cy="60" fill="#acdee8" r="13.5"/><circle cx="405.4" cy="303.1" fill="#acdee8" r="30"/><circle cx="321.7" cy="83.5" fill="#acdee8" r="22.5"/><circle cx="98.2" cy="104.7" fill="#acdee8" r="16.3"/><circle cx="83.6" cy="312.1" fill="#acdee8" r="14.7"/><circle cx="62.2" cy="279.7" fill="#acdee8" r="6.7"/><circle cx="377.4" cy="75.6" fill="#acdee8" r="8.1"/><ellipse cx="167.9" cy="397.3" fill="#ccdde6" rx="67.1" ry="9.3"/><ellipse cx="259.7" cy="397.3" fill="#ccdde6" rx="67.1" ry="9.3"/><ellipse cx="343.2" cy="397.3" fill="#ccdde6" rx="67.1" ry="9.3"/><path d="m283.1 167.6c1 .4 3.8 1.8 5 1.4 1.9-.8.3-.4.5-2.2.7-4.2.5-8.8-.2-13-.5-3-1.4-6-2.5-8.9-1-2.6-3-4.7-3.5-7.4-.3-1.6-.3-3.3-.5-5-1.4-11.2-12.2-17.4-22.7-15-9 2.1-12.8 11.3-12.2 19.8.6 8.7 1.7 18.3 6.7 25.7 1.6 2.3 1.9 2.5 4.5 2.4s5.2-.4 7.9-.5c4.8 0 10.1.2 14.7 1.6.1.2 1.1.6 2.3 1.1z" fill="#c96125"/><path d="m263.4 386.5s-6.8 9.4-6.1 11.6c.7 2.3-.2 4.6 1.2 4.5 7.5-.3 14.9-.7 22.3-1.4.5-2.5 1-5.1 0-7.4-1.5-3.8-13.2-5.7-17.4-7.3z" fill="#3c464f"/><path d="m261.6 396.5c-1.4-1.4 0-6.2 2.4-9.9-.2-.1-.4-.1-.5-.2 0 0-6.8 9.4-6.1 11.6.7 2.3-.2 4.6 1.2 4.5 7.5-.3 14.9-.7 22.3-1.4.2-1.2.5-2.4.5-3.6-6.8 1.9-13.8 2.1-19.8-1z" fill="#292f36"/><path d="m245.4 386.5-2.3 8.5s-6.5 2-8.1 4-.2 3-.2 3l21.4.1 6.4-6.1-3.6-11.6z" fill="#3c464f"/><path d="m262.6 396-3.6-11.6-1.7.3c-.1 6.9-3.3 13.8-8.8 17.4h7.7z" fill="#292f36"/><path d="m264.2 243.8 2.9 88.9s-5.4 57.1-5.4 57.5c-.2 2.5 19.4 1.9 21.3 1.8 3.5-17.5 3.6-36 5-53.9l4-39.2-6.8-47.2z" fill="#40628f"/><path d="m268 322.7s16.9 6.8 21.3 3.2l-.3-13.9-21.1 3.2v7.5z" fill="#2d4a70"/><path d="m237.8 238.2-7.9 77.8 14.2 75.5 17.1-2.9 1.5-16.4-5.2-49.3 8.9-40.8-3.8-43.5z" fill="#40628f"/><path d="m230.5 320.5c2.3.9 17.3 4.4 20.8 0 1.1-1.4 1.8-67.9 1.8-67.9l12.1-11.3-14 .2h-10.9l-9.9 57v22z" fill="#2d4a70"/><path d="m253.2 169.6c-.4 5.4 2.9 10.9 7.8 13 3.2-2 6.4-4.1 9.1-6.8 2.6-2.7 4.6-6.3 4.8-10 .1-1.5-.1-3-.3-4.4-.7-4.9-1.3-9.8-2-14.7.2 1.2-7.7 1.7-8.5 1.8-4.5.5-6.2 1.2-6.1 6.2 0 5.1-4.4 9.5-4.8 14.9z" fill="#ffb980"/><path d="m257.3 157.6s1.3 1.7 7.1 1.2 7.1-7.1 7.1-7.1l1-5.1-12.3 4z" fill="#ff7657"/><path d="m252.2 163.5 6.3 15.7s18.9-14.7 18.9-14.7c-1.1.8.1 10.3.1 11.6.1 8.7.2 17.4.2 26.1.1 8.5-.2 17 .2 25.4.2 3.9 1.8 8.1-1.5 10.9-4.2 3.5-13.9 3.3-19 3.2-4.6-.1-18-.3-19.4-5-.5-1.7 1.1-5.7 1.4-7.4 1.7-8.6 3.3-17.2 5-25.9 2.7-13.3 5.3-26.6 7.8-39.9z" fill="#71a0c2"/><path d="m236.6 166.1s-13.8 53.2-14 56.4 14 28.6 14 28.6l7.5-81.2z" fill="#d7e3f2"/><path d="m255.6 159.3-19.1 6.8s-6.7 84.6-5.5 88.8c1.3 4.2-5.9 58.8-5.9 58.8s20.9 6.3 24.9 1.3l-2.6-115z" fill="#e0eeff"/><path d="m292.6 318.1c-3.1 1-6.3 1.6-9.6 1.7-2.8.2-5.7 0-8.5-.2-1.6-.2-15.4-2-15.4-3 0-.1-.2-119-.2-119s10.7-24.4 13.1-29.2 1.4-13.1 1.4-13.1l11.6 12.1 4 21.3 1.4 22.2s2.9 32.2 3.6 39.7v.3c1.4 15.5 2.7 30.9 4.1 46.4.4 4.1.8 8.2 1.1 12.3.5 5.6-1 6.6-6.6 8.5z" fill="#e0eeff"/><path d="m292.6 318.1c-3.1 1-6.3 1.6-9.6 1.7l-.4-.3 13.3-16.5-3.9-58.9 2.2 6.5v.3c1.4 15.5 2.7 30.9 4.1 46.4.4 4.1.8 8.2 1.1 12.3.3 5.6-1.2 6.6-6.8 8.5z" fill="#cbdcf2"/><path d="m279.2 189.9c.8 1.1 10.9 13.5 10.9 13.5l1.8 22.1-6.8-22.3z" fill="#cbdcf2"/><path d="m274.6 144.8c-2.8 2.2-1.6 6.7-4.8 9.2-3.1 2.5-7.8 3.2-11.2.9-9.2-6.1-11.8-34.4 4.5-31.9 6.7 1 11.5 9.1 9.8 15.5 3.2-5.1 6.2 1.3 3.7 5.2-.2.4-.5.7-1 .9-.3.1-.7-.1-1 .2z" fill="#ffb980"/><path d="m285.2 237.9-6.2 5.9 11 3 3.4-5z" fill="#ffb980"/><path d="m283 238.2 9 5.9s20.5-19.1 21.9-25.5-16.8-48.5-16.8-48.5l-11.9-2.8-2.7 26.7 7.7 10.5 5 17.5z" fill="#e0eeff"/><path d="m274 137.8c-1.3 1.5-2.4 3-2.1 4.9-.5-3.4-.5-8.8-3.7-11-1.3-.9-3-1.1-4.6-1.3-6.4-.8-10.3-.4-13.8-6.3 3.4-4 7.9-7.5 13.1-7.2 5.3.2 10.3 3 13.4 7.3 1.5 2.1 2.5 4.7 2.4 7.3-.1 2.2-2.7 4.1-4.7 6.3z" fill="#c96125"/><path d="m274.9 252.8 8.9 6.6 6.5.3-7.8 3.7z" fill="#cbdcf2"/><path d="m259 197.5 20.1-21.6-4.1-2.6 9.6-.6.6-5.4-11.4-10.2v7.4z" fill="#fff"/><path d="m249.1 192.7-3.7-18.9 1.9-1.9-5.7-1.2s12.9-11.6 15.8-13l-5.1 20.3z" fill="#fff"/><path d="m245.8 180.9c-.1 2.5-2.9 5.7-5.2 2.8-1.3-1.6.1-5.6 2.1-6 1.7-.3 3.1 1.5 3.1 3.2z" fill="#2c4970"/><path d="m256.8 157.5c-4.6 1.5-8.6 4.5-11.3 8.5s-4.6 10.2-3 15c.1.3.5.2.5-.1.1-2.4-.1-4.7.4-7.1.5-2.5 1.5-4.8 2.8-6.9 2.6-4 6.4-6.8 10.8-8.4.7-.2.4-1.2-.2-1z" fill="#2c4970"/><path d="m279.2 173.3c1.4-3.1 1.3-7 .4-10.2-.8-3-2.8-7.1-5.8-8.5-.2-.1-.5.1-.3.3.8 1.2 1.9 2.2 2.8 3.4 1 1.5 1.7 3.1 2.2 4.7 1 3.5.6 6.5-.2 10-3.1-.1-5.2 3.6-6.2 6-1.5 3.6-1.9 7.8-1 11.6-.2.3-.4.6-.4 1-.1 1 .8 2 1.9 1.7.7-.2 1.3-.9 1.2-1.6 0-.7-.6-1.3-1.2-1.6-.3-.1-.6-.1-.9 0-.3-2.8-.3-5.6.5-8.4.7-2.7 3.4-9.5 7.3-7.3 2.9 1.7 1.7 7.4 1.1 10.1s-1.7 5.1-2.8 7.6c-.2-.1-.4-.3-.6-.3-.7-.2-1.4.2-1.7.9-.2.6 0 1.4.5 1.7s1.1.2 1.6-.2c.1 0 .2-.1.3-.2 2.5-3.5 3.8-8.1 4.2-12.3.3-2.6.5-7.4-2.9-8.4z" fill="#2c4970"/><path d="m243.7 181.1c-.1 1.5-1.7 3.3-3 1.6-.7-.9.1-3.2 1.2-3.5 1-.1 1.8.9 1.8 1.9z" fill="#71a0c2"/><path d="m329.3 119.4c-.4-2.3.4-4.6 1.6-6.6 1.1-1.7 2.5-3.2 4.4-3.7 2.7-.7 5.7.9 6.8 3.4 1.2 2.5.7 5.6-1 7.8-2.9 4.1-10.5 5.7-11.8-.9z" fill="#3b281d"/><path d="m349 149.3c-3.4.9-7 .4-10.4-1.9-4.5-3-6.9-8-7.7-13.2-1-6 1.2-12.6 5.9-16.5s12-4.6 17.1-1.3c4.6 2.9 7.1 8.5 8.2 13.7 1.3 5.8-2.3 12.3-6.6 15.8-2.1 1.6-4.3 2.8-6.5 3.4z" fill="#4d3426"/><path d="m325.4 393.5c-5.2-3.3-.2-8.1 3-11.3 6.6 3.8 13.3 7.6 19.9 11.4-.1 0-7.2 3.2-8.1 3.5-6 2-8.5-.4-14.1-3.2-.2-.1-.4-.3-.7-.4z" fill="#292f36"/><path d="m372.5 191.4c-1.5 2-4.7 1.6-6.5-.2-1.7-1.7-2.3-4.3-2.8-6.7-1-4.7-1.7-9.5-2.7-14.3-.8-3.6-3.1-7.6-3.2-11.2 4 1.3 7.7 4.6 10.4 7.8 2.7 3.1 3.2 6.1 4.2 10 .8 3.2 2.7 11.6.6 14.6z" fill="#379e87"/><path d="m364.5 256.5c-.9 9.7-2.3 17.9-1.8 27.6.7 13.1-.3 26.2-2.9 39-1.7 8.1-4.6 15.8-5.8 24-.8 5.3-4.5 14.6-3.6 19.9 0 0-9.3-52.3-9.3-52.3l5.1-66.1z" fill="#379e87"/><path d="m330.4 388.4c-1.8 1.9-2.8 4.3-2.5 7.1.6 6.2 5.8 4.8 10 4.6 5.9-.3 11.9 1.6 17.9 1.8 1.4.1 11.2 0 11.5-.7.8-2.1-.8-4.5-2.7-5.5-2-1.1-4.3-1.2-6.5-1.7-5.5-1.1-6-6-10.4-8.6-5.2-2.9-13.2-1.3-17.3 3z" fill="#3c464f"/><path d="m318.7 255.4c-1.9 1.2 2.5 21.4 2.9 24.2 2.6 17 5.7 34.1 6.1 51.4.6 25.9-1.4 54.2-1.4 54.2s12.9 6.5 24.8-1c0 0-3.4-50-3.3-54.9.1-5-.6-45.3-.6-45.3v-28.6z" fill="#48b59d"/><path d="m319.9 261.8s23.7 4.9 28.7 3.6 15.3-2.7 15.3-2.7l.7-6.3-45.3-1.4z" fill="#48b59d" opacity=".45"/><path d="m325.3 163.1c-.9.6-1.8 1.2-2.6 1.8-4.5 3.3-1.6 8.9-2 13.7-.6 9.4-1.7 19.3-.6 28.6 1.3 10.6 2.7 17.9-.3 26.3s-5.3 25.8-4.2 25.5c6.3-1.4 15.8 1.5 22.3 1.8 11.1.6 21.9-1 33.1-.8-.5-15.2-2.6-30.6-1.8-45.9.4-7.7 1.2-41-1.5-44.6-2.8-3.6-11.7-13.2-11.7-13.2-.9-1-4.8-1.2-6.1-1.4-2.2-.4-4.9-1.3-7.1-1.1-2.2.1-4.3 1.8-6.2 2.9-3.9 2-7.7 4-11.3 6.4z" fill="#48b59d"/><path d="m329.2 196.1 4.2-21.2 6.5 28.4-16.1 14.1z" fill="#48b59d" opacity=".45"/><path d="m321.6 221.1s25.2-7.5 28.8-8.7c3.7-1.3 18.7 4.4 18.7 4.4v-11.5l-18.4-6.4-29.8 14.9z" fill="#48b59d" opacity=".45"/><path d="m317.1 193c-.3.4-.3 1.1-.5 2.4-.7 6.7-.4 12.6 1.1 19.1.3 1.1.6 2.3 1.5 3 1.3.9 3.1.4 4.5-.1 3.9-1.5 7.9-2.8 11.9-4.3 5.1-2 9.6-4.5 14.8-6.1-.5.1-1.9-5.3-2.8-5.7-1.8-.9-5.9 1.5-7.7 1.9-1 .2-12 1.7-12 1.8-1.4-3.9.6-8.9 1.9-12.6-3.3 0-6.5-.1-9.8 0-1.8.2-2.5.1-2.9.6z" fill="#a8652d"/><path d="m316.5 197.6 11.7 1.8 1.7-6.9-12.8.5z" fill="#96431f"/><path d="m323.6 163.8c-3.3 2.6-6.1 6-7.9 9.4-3.2 6-1.8 14.6-1.4 21.2 0 0 16.6 1.3 16.6 1.3.4 0 1.4-13.3 1.5-14.1.5-7.5.1-14.3-1.9-21.4-2.5.7-4.8 2-6.9 3.6z" fill="#48b59d"/><path d="m348.6 209.9 29 6.4 27.8-33-30.1-7.1z" fill="#40628f"/><path d="m357.3 198.7c2.2.1 4 .4 5.7 1.9.8.7 3 3.8 2.1 4.8-.7.8-6.4-.3-7.6-.4 1.3.4 2.7.8 4 1.1.6.2 1.4.6 1.2 1.2-.1.3-.5.5-.9.4-.4 0-.7-.2-1-.4-2.1-.9-4.7-.2-6.9-.3-3-.2-6.2-.3-9.1-.7.2-.9.3-1.9.6-2.8.8-2.6 2.8-4.2 5.3-4.8 2.9-.7 5.6-2.9 8.6-3.2-.6 1.2-1.3 2.2-2 3.2z" fill="#a8652d"/><path d="m383 214.5c-.4.1-2.3-1.3-2.7-1.6-.7-.5-3.1-1.9-3-2.9.1-.5 3.7.7 3.9.8-.6-.2-2.8-2.5-2.6-3.2.4-1.2 3.5.6 4.1.8-.7-.3-1.8-.9-2.2-1.7-1.3-2.5 3-1.1 4-.9-1-.6-3.1-1.9-1.7-3.1.7-.6 5.8-.6 6.2 0 0 .1.3.6.3.6-.4 4-1.8 10-6.3 11.2z" fill="#a8652d"/><path d="m354.2 149.3s.3 6.7 1.5 10.7l-4.7 7.9s-12.5-8.9-13.4-11.2c0 0 4.7-2.6 4-7.7-.6-5.3 2.4 5.2 12.6.3z" fill="#a8652d"/><path d="m354.2 151.7s-.1-7.7-.1-7.7l-12.6.7-.3 7-.3 6.3c1.8.7 3.6 1.4 5.1 2.6s3 2.4 4.3 3.9c-.1-.1 2.1-3.1 2.3-3.5.6-.9 1-2 1.4-3 .4-.9.3-1.4.2-2.3.1-1.3.1-2.6 0-4z" fill="#a8652d"/><path d="m341.2 153.6c3.2 2.2 7.2 4 9.7 2.8 1.3-.6 2.4-1.7 3.4-2.8l-.1-7.7-12.6.7z" fill="#96431f"/><path d="m350.6 119.5c8.8.3 9.1 10.3 8.9 18.7 0 2.8-.2 5.8-1.5 8.3-1.4 2.8-3.3 6-6.3 7.4-3.9 1.9-8.3-1.5-10.5-4.5-2.1-2.9-2.5-6.5-3.2-9.9-1.6-7.6-1.4-20.4 12.6-20z" fill="#a8652d"/><path d="m337.8 134.5s-.4-3.4-3.1-2.2c-2.6 1.2.8 8.8 3.8 7.8 3-.9-.7-5.6-.7-5.6z" fill="#a8652d"/><path d="m349.1 122.2c4.1-.5 7.6 1.4 11.1 3.1 1.5-7.3-9.3-10.9-15-10.2-4.9.7-5.6 4.1-7.4 7.9-1.4 2.9-1.9 7.8-1.6 10.9.8 8.2 4.2-3.1 5-5.7 1.2-3.8 3.6-5.5 7.9-6z" fill="#4d3426"/><path d="m341.6 141.6c.3-.7.7-1.2 1.2-1.6 1.1-.9 3.4-1.3 4.8-1.6 1.7-.4 3.5-.5 5.3-.2 5.5 1.1 6.7 3.4 6.7 3.4s-1.3 7.6-2.3 8.7c-1.5 1.9-3.1 3.9-5.6 4.6-4.9 1.4-8.9-3.6-12.1-6.4.6-1.5 1.1-2.7 1.3-4.3.1-.8.3-1.7.7-2.6z" fill="#48b59d"/><path d="m358.3 140.4c-.4 2.2-1.3 6.6-2 7.4-1.5 1.9-3.1 3.9-5.6 4.6-4.2 1.2-7.7-2.3-10.6-5.1-.1.4-.3.8-.5 1.2 3.3 2.8 7.2 7.9 12.1 6.4 2.4-.7 4-2.7 5.6-4.6 1-1.1 2.3-8.7 2.3-8.7s-.3-.5-1.3-1.2z" fill="#379e87"/><path d="m341.9 140.3c-1.2-1.6-2.6-3.2-3.7-5-.8-1.3-1.4-2.7-2.9-3.4" style="fill:none;stroke:#a3a3a3;stroke-width:.5;stroke-linecap:round;stroke-linejoin:round;stroke-miterlimit:10"/><path d="m337.1 140.2c1 2.6 2 5.1 3 7.7" style="fill:none;stroke:#a3a3a3;stroke-width:.5;stroke-linecap:round;stroke-linejoin:round;stroke-miterlimit:10"/><path d="m137.5 236.2s-5.9 25.2-3.2 32-.3 7 .6 15.7-2.8 18.6.7 23c4.3 5.5 2.7 13.8 3.1 20.1.6 10 2.4 20.1 3.6 30.1 4.9.3 10.1 1 15 .8 1-4.4 7.6-12.9 5.5-17.1-1.9-3.9-.2-17.4-.1-18.5.1-1.2 1.5-13 1.6-15.5s-3.4-22.4-1.5-26 3.3-9.7 3.3-9.7 1.3 25.6 2 31.2c.5 4.1-1.5 8.1-1.2 12.2.2 2.9 1.5 4.8 2.3 7.5 2.9 9.2 4 19.4 5.9 28.8.7 3.3 1.9 7.1 5.1 7.9 1 .2 2 .1 3 .1 3.6-.3 7.2-.7 10.7-1 .9-6.4 1.9-12.8 2.9-19.1.8-4.9 2.8-11.6.4-16.4-2.3-4.7 1-21.3 0-24.1-1-2.7-2.4-21.4-2.5-26.1s-1.8-26.7-1.8-26.7l-2.1-10.9z" fill="#e0eeff"/><path d="m155 399.4-33.1.4s.1-8.8 4.7-9.1 11.9-4.6 11.9-4.6c.3-13.2.9-26.5 1.2-39.6 6.4-2 13.3-2.1 19.8-.3 1.1.3 2.3.8 3 1.7 1.1 1.6-.8 7.7-1.1 9.8-.6 4.2-1.1 8.3-1.7 12.5-.8 6-2.3 12.5-2.1 18.6.2 3.6-2.6 10.6-2.6 10.6z" fill="#3c464f"/><path d="m162.5 348c-.7-1-1.9-1.4-3-1.7-3.8-1.1-7.8-1.5-11.8-1.2 2.4.2 4.7.6 7 1.2 1.1.3 2.3.8 3 1.7 1.1 1.6-.8 7.7-1.1 9.8-.6 4.2-1.1 8.3-1.7 12.5-.8 6-2.3 12.5-2.1 18.6.2 3.6-2.7 10.6-2.7 10.6l-28.3.4v.1l33.1-.4s2.8-7 2.7-10.6c-.3-6.1 1.3-12.6 2.1-18.6.5-4.2 1.1-8.3 1.7-12.5.3-2.3 2.2-8.4 1.1-9.9z" fill="#292f36"/><path d="m173.7 349.8c0-.5 0-1 0-1.5 7.5-3.3 16.5-3.2 23.8.4.5.3-1.8 15.3-1.9 16.8-.5 6.9-.9 13.7-1.4 20.6 0 0 3.9 4.7 5.5 6.1s.2 7.6.2 7.6l-22.5.1s-1-5.1.5-9.7-1.1-17.1-1.1-17.1c-.6-3.3-1.2-6.5-1.7-9.8-.8-4.8-1.4-8.7-1.4-13.5z" fill="#3c464f"/><path d="m183 391.4c.7-.9 1.6-1.6 2.5-2.1 2.1-1.2 4.5-1.8 6.9-2.3-2.2-2-5.3-2.9-8.2-2.6-.4-2.4-2.4-3.7-2.8-6.4-.3-1.6-.5-3.3-.8-4.9-.6-3.3-1.2-6.5-1.7-9.8-.9-4.8-1.4-8.8-1.4-13.5 0-.5 0-1 0-1.5 3-1.4 6.3-2.1 9.6-2.3-4.5-.3-9.2.5-13.3 2.3v1.5c0 4.7.6 8.7 1.4 13.5.6 3.3 1.2 6.5 1.7 9.8 0 0 2.5 12.5 1.1 17.1-1.5 4.6-.5 9.7-.5 9.7h3.7c-.5 0-.1-4.5 0-5.1.3-1.2.9-2.4 1.8-3.4z" fill="#292f36"/><path d="m182.1 144.7c2.3-.6 15.8 5.1 18.4 10.9s6.2 12.2 5.7 15.7c-.4 3.5 3 12 4.8 16.8s-.1 5 1.5 12.5c.8 5 1.5 10 1.9 15.1.2 2.2.6 4.4.7 6.6.1 2.9-1.7 6.4-2.6 9.2-1.2 3.7-2.5 7.6-2.2 11.5-2.9-.5-5.8-.9-8.7-1.4-.6-4-1.2-8.1-1.9-12.1-.2-1.2-.4-2.5-.8-3.7-.6-1.8-1.8-3.4-2.7-5.1-.9-1.8-1-3.6-1.5-5.5s-1.1-3.8-1.6-5.8c-1.5-6 0-14.4 0-14.4l-2.7-11.9-6.1-18.2c.2.1-6.5-19-2.2-20.2z" fill="#e0eeff"/><path d="m206 211.9c1.4.4 2.9-.8 3.4-2.2s.2-2.9 0-4.4c-2.5-14.8-5-29.7-7.6-44.5 1.2 6.8 5.6 14 7.4 20.9 2.1 7.8 3.5 15.8 4.2 23.8.5 5.1 1.9 10.6 1.2 15.8s-4.4 11.3-3.7 16.6c-.4-3.4-.7-24.8-4.9-26z" fill="#cbdcf2"/><path d="m154.3 149.6c-13.6 0-26 13.4-25.8 27.1.1 5.3-8.5 15.5-7.3 17.9s-2.3 13.9 0 15.6c2.3 1.8 4.3 6.1 4.3 6.1l10.4-2.3s2.3-19.2 1.4-20.6 4.6-8.8 5.5-11.7c.9-3 5.9-8.9 6.6-10.5s6.7-25.8 6.7-25.8" fill="#e0eeff"/><path d="m135.7 181.8c0-1.9.1-3.8.7-5.5 1.7-5.3 6.9-11 10-15.5.5 6.8-1.2 13.3-3.2 19.7-1.3 3.9-6 11.6-5.5 15.7-.5-4.4-1.9-9.6-2-14.4z" fill="#cbdcf2"/><path d="m187.7 143.9c-1.1-9.5-.3-19.3-2.8-28.6-1.3-4.8-2.5-6.8-7-8.8-4.4-1.9-9.3-2.4-13.9-1.2-5.7 1.4-12.8 5.8-13.5 12.1-.9 7.9 1.2 15.9.4 23.7-.7 7.1-5 14.2-6.6 21.1-2 8.4-3.5 17-4.6 25.6-.5 4.2-4.2 51-3.6 51 18.2.3 36.5.5 54.7.8 1-16.4 2-32.7 2.9-49.1.8-13 .7-23.6-3.8-35.9-1-3.4-1.7-7-2.2-10.7z" fill="#e0eeff"/><path d="m194 228.2c-.4-11.6-.9-23.4-1.1-35-.1-3.7.5-7.3.1-11-.5-5.2-4.4-11.9-3.6-17-.3 2.4-5.1 40.2-6.7 39.6 4.1 1.6 5.9 6.7 5.3 11.1s-3.2 8.2-5.6 11.9c1.6 6.9 4.3 13.4 6 20.2 2.1 8.2 1.9 17.8 2.7 26.3.3 3.1.6 6.3 1 9.4.4 4.2.9 8.5.7 12.7-.2 5.5-1.4 10.9-3.5 15.9 4.6.2 6 6.2 6.1 10.8.2 7.8.4 15.5.6 23.3 1.4-10.9 2.4-21.5 2.7-32.5.1-2.7.2-5.4.3-8.2.8-12-1.9-23.8-3.9-35.6-2.2-13.6-.7-28-1.1-41.9z" fill="#cbdcf2"/><path d="m177.7 140.6c.3-1.5.8-2.7 1.7-3.5-8.4 7.2-12.2 6.6-23 5.7-2.3 6.9 4.2 9.8 10 9.4 2.8-.2 6.8-1.2 8.8-3.3 1.8-1.9 1.9-5.4 2.5-8.3z" fill="#cbdcf2"/><path d="m129.5 226.5c.2.5.4 1 .6 1.4 2.2 3.5 5.8 4.2 9.3 6 .5.3 1.3.5 1.7.1.4-.5 0-1.2-.5-1.7-1.1-1.2-2.2-2.4-3.4-3.6 1.1.7 2.2 1.5 3.3 2.2.4.2.8.5 1.2.4.6-.2.8-1 .5-1.6s-.9-.9-1.5-1.3c-.6-.3-1.2-.8-1.3-1.4l3.6.6c-1-1.6-2.1-3-3.4-4.3.2.6.7 1.2 1.3 1.4s1.3 0 1.8-.4c.2-.2.4-.4.5-.7 1.1-2.5-4-6-5.1-8-2.1-3.8-2.8-9.8-8.1-10.4-4.4-.4-9.7 5.6-7.1 9.7 1 1.5 2.8 2.2 4.1 3.4 2.1 1.8 1.6 5.4 2.5 8.2z" fill="#48b59d"/><path d="m201.1 245.2c.1 1.9.1 3.9-.2 5.6-.2 1.1-3.1 10.3-2.6 10.3 2.3 0 4.4-1.8 4.8-4.1-.5 2.1.2 5.5.5 7.7.3 2.6-.2 5.3-.5 7.9.6.2 1.4-.1 1.8-.6s.6-1.2.8-1.9c.4-1.4.8-2.9 1.2-4.3-.3 1.9-.5 3.7-.8 5.6-.4 3.1 2.4.8 3.3-.3 1.7-2.1 2.2-4.6 2.5-7.2.7-6 .6-12 .2-18-.3-4.3 1.9-10.7.5-14.4-.9-2.2-2.9-4-5.2-4.6-2.7-.7-6.1.5-7 3.1-.4 1.2-.4 2.5-.3 3.7.2 3.6.8 7.7 1 11.5z" fill="#48b59d"/><path d="m166 117c1.3.3 2.6.6 3.8.9 3 .8 4.6.8 5.6 3.9.9 2.9.6 6.2.6 9.2-.1 8.1-6.6 15.7-12.1 15.3-4.9-.3-8.2-5.9-9-13.9-.3-3.4-1.9-9.8.3-12.8 2.6-3.6 6.8-3.4 10.8-2.6z" fill="#ffc880"/><path d="m154.9 132.5s5.5-4.7 10.3-4.5c4.8.3 10.7 4.5 10.7 4.5s.9 14-8.6 14.2c-9.4.1-12-4.8-12.4-14.2z" fill="#e0eeff"/><path d="m150.5 250.3c2.9 4.1 2.6 12.2 3.7 17.1 1.4 6.2 3 11.3-1 17.2-1.5 2.2-3.7 4.5-3.2 7.1.8 3.8 6 5.3 7.8 8.7 4.4 8.4 2.9 22.2 3.3 31.4 1.9-9.7 4.6-21.8 3-31.7-1.2-7.6-4.7-14.8.6-22.1 6.5-8.8-9-20.3-14.2-27.7z" fill="#cbdcf2"/><path d="m174.4 214.7c-2.5 3.5-3.7 7-8.5 9-5.9 2.4-11.3.5-16.1-3.4 9.5 2 19.9-1.1 26.7-8-.9.7-1.5 1.5-2.1 2.4z" fill="#cbdcf2"/><path d="m178.6 174.2c-4 10.2-16.6 10.8-25.4 6.7 4.4-.7 23.4-1.5 25.4-6.7z" fill="#cbdcf2"/><path d="m185.7 146.7c1-1.7 1.7-3.5 1.7-5.4 0-.9 0-1.8 0-2.7 0-.6-.6-2.6-.3-3.1-1.5 3.1-2.8 6.4-4.4 9.3-1.5 2.6-2.9 5.2-4.4 7.8 3-1 5.7-3.1 7.4-5.9z" fill="#cbdcf2"/><path d="m154.5 149.9c-2.1-1.5-3.4-4.1-3.5-6.6 0 .9-1.3 2.8-1.7 3.7-.3.7-1.5 3.2-1.2 3.8.7 1.1 5.2-.8 6.4-.9z" fill="#cbdcf2"/><g fill="#fff"><path d="m225.2 127.9 2.7 4.9 4.9 2.7-4.9 2.7-2.7 4.9-2.7-4.9-5-2.7 5-2.7z"/><path d="m400.9 226.6 2.7 5 4.9 2.7-4.9 2.7-2.7 4.9-2.7-4.9-5-2.7 5-2.7z"/><path d="m100.9 182.2 2.7 5 4.9 2.7-4.9 2.7-2.7 4.9-2.7-4.9-5-2.7 5-2.7z"/><path d="m213.2 289.2 2.7 5 4.9 2.7-4.9 2.7-2.7 4.9-2.7-4.9-4.9-2.7 4.9-2.7z"/><path d="m221.3 160.8 1.4 2.5 2.5 1.3-2.5 1.4-1.4 2.4-1.3-2.4-2.5-1.4 2.5-1.3z"/><path d="m309.9 144.1 1.3 2.5 2.5 1.3-2.5 1.4-1.3 2.4-1.4-2.4-2.5-1.4 2.5-1.3z"/><path d="m389.4 160.7 1.3 2.4 2.5 1.4-2.5 1.3-1.3 2.5-1.4-2.5-2.4-1.3 2.4-1.4z"/><path d="m389.4 252 1.3 2.5 2.5 1.3-2.5 1.4-1.3 2.4-1.4-2.4-2.4-1.4 2.4-1.3z"/><path d="m309.9 296.9 1.3 2.4 2.5 1.4-2.5 1.3-1.3 2.5-1.4-2.5-2.5-1.3 2.5-1.4z"/><path d="m122.2 237.5 1.4 2.5 2.4 1.3-2.4 1.4-1.4 2.5-1.3-2.5-2.5-1.4 2.5-1.3z"/></g></svg>