<svg viewBox="0 0 357.79 327.38" xmlns="http://www.w3.org/2000/svg" xmlns:xlink="http://www.w3.org/1999/xlink"><clipPath id="a" transform="translate(-71.1 -46.14)"><path d="m412.86 152.24a162.07 162.07 0 0 0 -16.71-32l1.45-23.92c6.83-26.66-15-38.62-32.19-38.62-9.68 0-18 6.48-23.4 12.13a162.82 162.82 0 0 0 -147-7.39c-.9-2.83-1.7-5.2-2.31-6.89-4.29-11.8-26.82-16.09-26.82-16.09-44 5.36-36.48 66.52-36.48 66.52l-20.4 33.25s-15-36.48-17.17-46.14-16.09-3.22-22.53 1.07 8.58 59 10.73 79.39c1.49 14.11 12.73 19 19.52 20.62a164.46 164.46 0 0 0 -.85 16.73 162.54 162.54 0 1 0 325.08 0q0-4.06-.2-8.06c3.09-1 5.81-3.72 7.75-9.24 4.83-13.79-9.49-31.83-18.47-41.36z"/></clipPath><clipPath id="b" transform="translate(-71.1 -46.14)"><path d="m135.31 77.48-.75 10s7.64-2.43 6.57-6.12-5.82-3.88-5.82-3.88z"/></clipPath><circle cx="190.13" cy="164.76" fill="#33658a" opacity=".38" r="162.54"/><g clip-path="url(#a)"><path d="m77.82 122.71.13 1a38.16 38.16 0 0 0 11.49-2.44l-.51-2.3c-.06-.35-.11-.64-.11-.69.72-.39 3.09-2.19 4.13-9.18 1.23-8.3 1.52-8.5 0-8.68s-3.28 7.1-4.88 8.1c-.11-.74-.22-1.42-.36-2-.52-3.27-2.64-16.13-4-15.71-1.49.48-2.23 2 .63 14l-.95.09c-.89-5.44-2.69-15.36-3.85-15-1.57.52-2.35 2.26.66 15.35l-.93.13c-.86-5-2.4-13-3.44-12.62-1.46.47-2.2 2 .43 13.16l-.95.22c-.82-4.61-2.12-11-3-10.68-1.35.43-2 1.82.36 12-.22 1.67 3.9 12.12 5.15 15.25z" fill="#33658a" transform="translate(-71.1 -46.14)"/><path d="m217.16 243.85v-.86a32.4 32.4 0 0 0 -9.91 1.09l.24 2v.6c-.64.27-2.8 1.59-4.26 7.41-1.74 6.91-2 7.05-.72 7.34s3.37-5.72 4.81-6.43c0 .64.07 1.22.13 1.72.16 2.81.87 13.85 2 13.61 1.3-.28 2.06-1.54.65-11.86h.81c.29 4.67 1 13.21 2 13 1.37-.31 2.18-1.71.74-13h.79c.3 4.27.94 11.14 1.84 10.95 1.27-.27 2-1.48.74-11.15l.82-.11c.3 4 .87 9.45 1.65 9.28 1.18-.25 1.87-1.36.72-10.19.34-1.48-2.21-10.66-3.05-13.4z" fill="#33658a" transform="translate(-71.1 -46.14)"/><path d="m195.55 122.94s30.5-4.95 26.22 99.4v16.2s-10.54 8.16-18.28.47-13.38-110.53-7.94-116.07z" fill="#fff" transform="translate(-71.1 -46.14)"/><path d="m206.11 241s-1.59 5.81 4.37 5.81 9.54-.83 9.94-2.08-.4-4.57-.4-4.57z" fill="#fff" transform="translate(-71.1 -46.14)"/><path d="m202.57 210.31a26 26 0 0 0 -.43-7.78l-3.14-78.69s-56.84-6.76-58.82-2.38c0 0-11.92 1.59-15.5 13.12s-.79 62.4-.79 62.4-3 16.31 1.13 20.65c-.5 9.42-3.82 73.13-2.72 82.69 1.19 10.33-2.38 69.16-2.38 69.16s23.05 7.95 40.54 1.59l-3.18-84.66s-1.59-13.91-.4-14.71 3.58 8.35 4 13.91 11.53 85.45 11.53 85.45 23.85 3.18 33.78-4.37z" fill="#fff" transform="translate(-71.1 -46.14)"/><path d="m206.11 366.68-3.54-156.37a26 26 0 0 0 -.43-7.78l-1.92-47.53q-.91 10.35-2.24 20.66c-.09 12.77-.13 25.54-.07 38.32.09 20.09.91 40.19.86 60.28 0 19.78-1.12 39.51-2 59.26-.51 12.09 2 24.85.15 36.94a23.51 23.51 0 0 0 9.19-3.78z" fill="#33658a" opacity=".2" transform="translate(-71.1 -46.14)"/><path d="m156.42 273.29-.77-1.74c-2.43 34.54-11.2 67.94-19.65 101.45 7.52.91 16.53 1 24.41-1.91l-3.18-84.66s-1.07-9.31-.81-13.14z" fill="#33658a" opacity=".2" transform="translate(-71.1 -46.14)"/><path d="m132.58 124.63s-17.49 11.92-31 37.76c0 0 .4-33-8.35-42.92 0 0-16.3 2.38-17.49 7.55s4.77 65.18 22.65 62 37.76-25.83 37.76-25.83 7.16-34.19-3.57-38.56z" fill="#fff" transform="translate(-71.1 -46.14)"/><path d="m113.44 179.26c-4.74 1.2-10.07 1.87-14.82.39s-7.16-5.18-9.11-9.71c-5.84-13.57-5.52-29.65-13.86-42.1-.65 8.82 5.55 64.24 22.75 61.16 8.32-1.48 17.06-7.17 24-12.83a57.41 57.41 0 0 1 -8.96 3.09z" fill="#33658a" opacity=".2" transform="translate(-71.1 -46.14)"/><path d="m167.76 151.69c14.06-2.45 24.51-13.11 31.3-25.44l-.1-2.41s-56.84-6.76-58.82-2.38a21.2 21.2 0 0 0 -11.21 5.83c5.39 15.35 22.77 27.2 38.83 24.4z" fill="#33658a" opacity=".2" transform="translate(-71.1 -46.14)"/><ellipse cx="85.92" cy="34.18" fill="#f7b19c" rx="23.43" ry="22.16"/><path d="m188.23 71c-4-23.85-26.63-24.24-26.63-24.24-30.6 4.77-29 36.57-27.82 43.32s-1.19 36.17-1.19 36.17c26.23 38.16 66.37-2.38 66.37-2.38s-6.76-29.05-10.73-52.87zm-35.78 27.8s-17.09.79-17.89-17.49c0 0-.79-18.28 20.27-20.67 0 0 16.69-.79 20.67 13.91s-5.56 27.45-23.05 24.25z" fill="#fff" transform="translate(-71.1 -46.14)"/><path d="m76.94 124.63s-4-3.18-1.19-4.77 13.91-5.17 15.1-4.77 2.38 4.37 2.38 4.37z" fill="#fff" transform="translate(-71.1 -46.14)"/><path d="m158 60.49h-1.85c0-.36.26-8.86 4.79-14.31l1.42 1.18c-4.16 4.9-4.36 13.05-4.36 13.13z" fill="#33658a" opacity=".4" transform="translate(-71.1 -46.14)"/><path d="m133.28 87.82h42s7 35.23-26.95 28.45c.04 0-17.75-.68-15.05-28.45z" fill="#33658a" transform="translate(-71.1 -46.14)"/><path d="m160.92 113.74c-14.72.74-25.15-10.47-27.81-23.76-1.59 25.64 15.26 26.3 15.26 26.3 12.79 2.55 19.76-.85 23.49-6.09a23.16 23.16 0 0 1 -10.94 3.55z" fill="#33658a" opacity=".4" transform="translate(-71.1 -46.14)"/><path d="m171.93 88.88s17-6.29 18.56-9.43c0 0 1 5.23 1 6.27s-19.86 8.36-19.86 8.36-3.11-5.7.3-5.2z" fill="#33658a" transform="translate(-71.1 -46.14)"/><path d="m158.61 109.77s24.57-1 36.06-13.59l-1-3.14s-14.11 11-26.66 11.5c-.01 0-11.01 2.09-8.4 5.23z" fill="#33658a" transform="translate(-71.1 -46.14)"/><path d="m167 74.68s-11.27-4-15.73-1.81l-.27 2.69 15.75 2.19z" fill="#2f4858" transform="translate(-71.1 -46.14)"/><path d="m69.47 25.6-.21 3.06-5.34-.09.21-3.06z" fill="#2f4858"/><path d="m138.6 80.72h12.89v.93h-12.89z" fill="#2f4858" transform="matrix(.08385176 -.99647824 .99647824 .08385176 -19.13 172.77)"/><path d="m151.2 83.83s5.19-6.07 12.06-.66c0 0-6.43 7.45-12.06.66z" fill="#fff" transform="translate(-71.1 -46.14)"/><ellipse cx="156.97" cy="83.25" fill="#2f4858" rx="2.62" ry="2.36" transform="matrix(.99849867 -.05477591 .05477591 .99849867 -75.42 -37.42)"/><path d="m163.26 83.17s-7.19-3.24-12.06.66c0 0 4.73-6.91 12.06-.66z" fill="#2f4858" transform="translate(-71.1 -46.14)"/><g clip-path="url(#b)"><path d="m128.69 82s5.3-5 11 .56c.02-.02-6.54 6.14-11-.56z" fill="#fff" transform="translate(-71.1 -46.14)"/><g fill="#2f4858"><ellipse cx="136.16" cy="82.33" rx="1.77" ry="1.95" transform="matrix(.05059294 -.99871936 .99871936 .05059294 -24.07 168)"/><path d="m139.71 82.54s-6.22-3.63-11-.56c-.02.02 4.94-5.82 11 .56z" transform="translate(-71.1 -46.14)"/></g></g><path d="m169.58 79s17-2.8 18.65-8a24.48 24.48 0 0 1 1.2 5.81s-13.23 6.62-20.73 8.38z" fill="#f26419" transform="translate(-71.1 -46.14)"/><path d="m62.17 41.68 17.34-18.09 3.53.44-17.64 19.41z" fill="#fff" opacity=".44"/><path d="m77.75 42.11 12.78-16.75 4.15 2-13.68 16.12z" fill="#fff" opacity=".44"/><path d="m168.25 72.27c-22.1-7.35-35.6-.73-35.6-.73-6.45 20.62 5.53 18.72 5.53 18.72a15.68 15.68 0 0 1 13.93-.64c8.17 6.71 14.32 1.06 14.32 1.06 8.85-7.83 1.82-18.41 1.82-18.41zm-4 17s-5.28 4.85-12.3-.91a13.46 13.46 0 0 0 -12 .55s-10.29 1.63-4.75-16.07c0 0 11.59-5.68 30.56.63.02.03 6.06 9.11-1.54 15.83z" fill="#f26419" transform="translate(-71.1 -46.14)"/><path d="m154.13 156.58c1.23 0 2.49.07 3.78.07 15.06 0 34.37-2.79 57.33-11.88l-.68-1.72c-24.23 9.6-44.48 12.18-60.37 11.63.49-16 1.12-27.51 1.56-29.62a41.85 41.85 0 0 0 .64-8.19c-.62-.09-1.24-.21-1.86-.31a40.88 40.88 0 0 1 -.59 8.12c-.5 2.42-1.14 14.06-1.63 29.92-25.56-1.31-39.3-10.67-39.52-10.82l-1.07 1.51c.38.27 9.44 6.57 26.81 9.7a106 106 0 0 0 13.71 1.53c-1.14 39.07-1.28 101.57 3.7 117.23l1.77-.56c-4-12.63-4.37-55.28-4.23-79.59.08-13.27.33-26.09.65-37.02z" fill="#33658a" opacity=".4" transform="translate(-71.1 -46.14)"/><path d="m76.54 121.12h17.1v1.85h-17.1z" fill="#33658a" opacity=".4" transform="matrix(.95334886 -.30187076 .30187076 .95334886 -103.98 -14.76)"/><path d="m96.45 173.38c-2.36-8.26 5.53-14.58 5.86-14.84l1.15 1.46c-.07.06-7.24 5.82-5.23 12.88z" fill="#33658a" opacity=".4" transform="translate(-71.1 -46.14)"/><path d="m297.07 263.68 23.28-.55-16.08-62.09z" fill="#fff" opacity=".7"/><path d="m342.53 143s-26.53-4.73-22.81 95.16v15.54s9.17 7.82 15.9.45 11.64-105.82 6.91-111.15z" fill="#fff" transform="translate(-71.1 -46.14)"/><path d="m333.34 256s1.38 5.56-3.8 5.56-8.3-.79-8.64-2 .35-4.37.35-4.37z" fill="none" stroke="#f7b19c" stroke-miterlimit="10" transform="translate(-71.1 -46.14)"/><path d="m389.79 90.5c0-9.56-8.73-17.32-19.51-17.32s-19.51 7.75-19.51 17.32a15.53 15.53 0 0 0 .13 1.94 3.41 3.41 0 0 0 -.13.38l2.82 18.57s10.06 12.14 13.68 12.85 14.08.71 16.49-1.43c1.88-1.67 4.5-20.4 5.56-28.56a15.48 15.48 0 0 0 .47-3.75z" fill="#f7b19c" transform="translate(-71.1 -46.14)"/><path d="m389 73.61c.84-9.14-12.53-7.55-12.53-7.55-2.51-7.15-13-2.38-13-2.38-9.58-4.37-16.26 6.32-16.26 6.32-10.86 1.19-7.52 13.51-7.52 13.51-8.36 5.17 0 13.91 0 13.91-6.27 5.17 1.67 13.12 1.67 13.12.84 7.55 10.44 6.36 10.44 6.36 5-1.59.42-12.32.42-12.32 3.76-2.78.42-9.14.42-9.14 4.6-1.59 1.67-6.76 1.67-6.76 5-.4 6.27-9.54 6.27-9.54a6 6 0 0 0 8.36-2.78c3.71 3.26 7 2.25 8.76 1.28a3.28 3.28 0 0 1 1.2-.83l.06-.06s0 0 0 0a2.93 2.93 0 0 1 2.86.57c5 3.82 6.87 8.9 7.57 14.48a6 6 0 0 0 .84.42c3.34-1.59 2.09-3.58 2.09-3.58 5.44-6.28-3.32-15.03-3.32-15.03z" fill="#33658a" transform="translate(-71.1 -46.14)"/><path d="m353.55 115.71-.4 23.45s14.31 6 24.24.4l.4-22.26s-22.65-8.3-24.24-1.59z" fill="#f7b19c" transform="translate(-71.1 -46.14)"/><path d="m377.55 131 .24-13.66s-22.65-8.35-24.24-1.59l-.18 10.8c7.21 5.08 15.36 7.17 24.18 4.45z" fill="#f7b19c" opacity=".52" transform="translate(-71.1 -46.14)"/><path d="m353.15 139.16-11.09 6.73 4.33 83.89s35.77 9.54 57.23-2.38l-6-84.66-19.14-6.05s-7.04 9.62-25.33 2.47z" fill="#2f4858" transform="translate(-71.1 -46.14)"/><path d="m404.08 227.58s11.27 141 6.76 142.33-18.79 5.16-22.17-4.3l-13.14-100.19-10.53 107.07s-16.91 3.87-20.67-3.44 5.67-141.47 5.67-141.47 51.83-5.58 54.08 0z" fill="#2f4858" transform="translate(-71.1 -46.14)"/><path d="m396.33 351.9c-3.87-14.28-7.78-28.57-11.24-43-2.48-10.32-4.82-20.69-7.91-30.84l11.49 87.51c2 5.58 7.78 6.52 13.11 6.09q-2.78-9.85-5.45-19.76z" fill="#2f4858" opacity=".44" transform="translate(-71.1 -46.14)"/><path d="m405.94 251.85c-.18-2.49-.36-4.84-.52-7h-56.6c-.14 2.18-.3 4.54-.46 7z" fill="#2f4858" opacity=".39" transform="translate(-71.1 -46.14)"/><path d="m355.49 139.16 1.73 168.52-32.92 1.65 11.76-163.41s15.03-10.69 19.43-6.76z" fill="#fff" transform="translate(-71.1 -46.14)"/><path d="m397.67 142.74a47.11 47.11 0 0 0 -4.51-3.32c-3.33-1.08-6.82-1.87-10.23-2.74a3.65 3.65 0 0 0 -1.46 1.85l25.41 170.47 16.18-5.47z" fill="#fff" transform="translate(-71.1 -46.14)"/><path d="m397.67 142.74s29.41 27.42 30.6 50.08c0 0-2.38 9.54-13.12 6s-23.04-37.82-23.04-37.82-4.77-18.26 5.56-18.26z" fill="#fff" transform="translate(-71.1 -46.14)"/><path d="m364.3 93.84-.1.13c1.67 1.54 6.43 5.12 11 .86-.01.01-8.36-.11-10.9-.99z" fill="#2f4858" transform="translate(-71.1 -46.14)"/><path d="m389.75 93.59c-3 .66-6.31 1.14-6.31 1.14a6.58 6.58 0 0 0 6 1.15 13.52 13.52 0 0 0 .31-2.29z" fill="#2f4858" transform="translate(-71.1 -46.14)"/><path d="m359.95 89.42s8.59-2.45 13-1c0 0 1.66-1.46.34-2.45s-10.68-1.6-14.16 1.91c-.05.04-.8.47.82 1.54z" fill="#2f4858" transform="translate(-71.1 -46.14)"/><path d="m389.87 86.18c-3-1-6.57-1.63-9-.51 0 0-.85.14.29 1.71a42.41 42.41 0 0 1 8.58 1.68c.09-.96.14-1.92.13-2.88z" fill="#2f4858" transform="translate(-71.1 -46.14)"/><path d="m381.32 93.98h.93v8.48h-.93z" fill="#2f4858" opacity=".56" transform="matrix(.97618255 -.21695077 .21695077 .97618255 -83.32 39.05)"/><path d="m336.73 90.3s12 15 22.68 14.78c0 0-.31 2.55-1.23 2.55s-8.89 3.31-21.45-13.25c0-.01-2.45-2.55 0-4.08z" fill="#fff" transform="translate(-71.1 -46.14)"/><path d="m341.36 110.58s16.22 10.78 23 12.62 1.23.61 1.23.61l.31 3.06s-23.9-7.16-24.54-16.29z" fill="#fff" transform="translate(-71.1 -46.14)"/><path d="m360.46 104s22.37-4.73 29.48-.59c0 0 2.14 17-4.41 23.65 0 0-20.33 7.69-28.13-6.5.01-.04-6.77-15.42 3.06-16.56z" fill="#fff" transform="translate(-71.1 -46.14)"/><path d="m376.18 126.08a28.8 28.8 0 0 1 -20.46-10.76 33.1 33.1 0 0 0 1.69 5.19c7.79 14.19 28.13 6.5 28.13 6.5a12.92 12.92 0 0 0 2.59-4 20.9 20.9 0 0 1 -11.95 3.07z" fill="#33658a" opacity=".2" transform="translate(-71.1 -46.14)"/><path d="m281.88 88.4-5.52 4.9 8.27 5.21 4.91-5.21z" fill="#fff"/><path d="m305.78 89.32 6.13 10.11 3.37-8.27-7.35-3.68z" fill="#fff"/><path d="m389.69 190.87a.46.46 0 0 1 -.43-.49l2.88-44.93-7.42-1.88 2.49-5.66a.46.46 0 0 1 .85.37l-2.06 4.65 7.11 1.8-2.93 45.7a.46.46 0 0 1 -.49.44z" fill="#33658a" opacity=".49" transform="translate(-71.1 -46.14)"/><path d="m377.27 174.59s32.19 29 41.54 26.53 12.37-8.72 8.34-13.54-43.09-21.58-43.09-21.58z" fill="#f7b19c" transform="translate(-71.1 -46.14)"/><path d="m403.33 191.27a149.25 149.25 0 0 1 -15.33-7.63c10.25 8.27 25 19 30.85 17.48 5.69-1.49 9-4.39 9.86-7.52-7.16 4.32-18.29.57-25.38-2.33z" fill="#f7b19c" opacity=".38" transform="translate(-71.1 -46.14)"/><path d="m356.63 189.78a.46.46 0 0 1 -.45-.36l-9.53-43.24 4.81-2.06-4.33-4.34a.46.46 0 1 1 .65-.65l5.29 5.31-5.36 2.3 9.36 42.5a.46.46 0 0 1 -.35.55z" fill="#33658a" opacity=".49" transform="translate(-71.1 -46.14)"/><path d="m390.75 168.64-6.64-3.64c-.14-1.29-1.14-3.12-3-6.26-3.68-6.1-3.59-6.39-4.69-5.68s1.68 6.42 1.17 7.94c-.47-.43-.91-.81-1.31-1.12-2.1-1.86-10.44-9.15-11.07-8.17s-.36 2.55 8 8.82l-.57.57c-3.64-3.1-10.14-8.67-10.64-7.8-.75 1.19-.32 2.75 8.71 9.71l-.54.59c-3.24-2.79-8.56-7.19-9.06-6.42-.7 1.09-.37 2.48 7.38 8.39l-.5.65c-3-2.58-7.31-6-7.74-5.38-.65 1-.35 2.29 6.72 7.7.56.93 5.86 4 9.31 5.94l6.79 5.6z" fill="#fff" transform="translate(-71.1 -46.14)"/><path d="m402.06 158.87c.36 1.08 1.44 15.87 1.44 15.87l11.91 5.77z" fill="#33658a" opacity=".2" transform="translate(-71.1 -46.14)"/><path d="m303.06 202.29h67.3v1.85h-67.3z" fill="#2f4858" opacity=".3" transform="matrix(.16814529 -.98576222 .98576222 .16814529 8.68 454.83)"/><path d="m325 244.36-.26-.82a32.4 32.4 0 0 0 -9.25 3.73l.77 1.85c.1.29.18.52.19.56-.55.44-2.26 2.29-2.1 8.28.19 7.12 0 7.33 1.29 7.26s1.7-6.42 2.89-7.49c.2.6.4 1.16.59 1.62.91 2.66 4.58 13.1 5.61 12.56s1.56-2-2.58-11.59l.78-.21c1.55 4.42 4.5 12.45 5.42 12 1.24-.67 1.63-2.23-2.81-12.74l.75-.25c1.45 4 3.91 10.48 4.73 10 1.15-.61 1.55-2-2.3-10.94l.76-.32c1.36 3.74 3.39 8.86 4.09 8.49 1.06-.56 1.44-1.82-2.06-10-.06-1.42-5.04-9.56-6.51-11.99z" fill="#0b3954" transform="translate(-71.1 -46.14)"/><path d="m247.4 295.74-2.78 77.78 22.92-.69s2.78-13.89 6.25-52.78l7.64 50.69 22.22-2.74s-4.17-62.5-10.42-88.89-39.58 3.44-45.83 16.63z" fill="#2f4858" transform="translate(-71.1 -46.14)"/><path d="m271 347.6c.83-7.3 1.77-16.39 2.77-27.55l4.15 27.55h24.13c-1.76-20.63-4.88-51.81-8.84-68.52-6.25-26.39-39.58 3.47-45.83 16.67l-1.85 51.86z" fill="#2f4858" opacity=".44" transform="translate(-71.1 -46.14)"/><path d="m255 157.67-14.73 6.87 14.73 50.58s16.69 7.86 30 0l7.37-52.54-16.2-6.87z" fill="#33658a" transform="translate(-71.1 -46.14)"/><path d="m256 141.47s0 14.73-1.47 18.17c0 0 14.24 5.89 21.11-1l-2.46-16.2s-16.24-4.44-17.18-.97z" fill="#2f4858" transform="translate(-71.1 -46.14)"/><path d="m265.8 86.48a22.34 22.34 0 0 0 -22.88 21.78c0 .74 0 1.48.05 2.21h-.11s1.07 36.37 23.62 37.91c0 0 19.6 2 21.1-39a22.34 22.34 0 0 0 -21.78-22.9z" fill="#f7b19c" transform="translate(-71.1 -46.14)"/><path d="m257.83 129.38c-9.76-7.57-13.66-22.53-9.95-34.61a22.24 22.24 0 0 0 -5 13.5c0 .74 0 1.48.06 2.21h-.11s1.07 36.37 23.62 37.91c0 0 11.32 1.13 17.42-16.33-7.21 4.77-18.02 3.53-26.04-2.68z" fill="#f7b19c" opacity=".48" transform="translate(-71.1 -46.14)"/><path d="m244.39 122.06c2.29 10.79 8 25.36 22.1 26.33 0 0 15.27 1.5 19.88-26.33z" fill="#fff" transform="translate(-71.1 -46.14)"/><path d="m263 144.23c-7.16-1.21-12.42-6.33-15.8-12.59 3.31 8.31 9.1 16.06 19.26 16.75 0 0 9.08.88 15.35-11.48-4.7 5.27-11.3 8.57-18.81 7.32z" fill="#86bbd8" opacity=".58" transform="translate(-71.1 -46.14)"/><path d="m285.69 126c9.34-3.21 5-17.23 5-17.23 2.63-9.05-5.26-16.06-5.26-16.06-2.65-11.62-17.54-10.71-17.54-10.71-9.64-4.71-18.4 4-18.4 4-11.39 2-10.22 13.43-10.22 13.43-6.13 5-1.17 15.47-1.17 15.47-.29 11.39 7 11.68 7 11.68s2.63-.29.29-7c0 0 1.17-6.42-.88-9.63 0 0 2.92-4.67 2.34-8.17s4.09-4.09 4.67-7.59c0 0 7.88-.88 9.34-3.5 0 0 6.42 2 9.34 0 0 0 5 5.26 8.17 4.09 0 0 2 8.17 5.55 8.17 0 0-1.46 5 .88 8.17 0 0-3.5 11.39.88 14.89" fill="#33658a" transform="translate(-71.1 -46.14)"/><path d="m252.57 203.5s-22.15 96.56-24.11 130.94c0 0 18.66 8.84 39.28 7.37s29.46-4.91 40.26-3.44 12.28-1.47 12.28-1.47l-33.35-136.39z" fill="#33658a" transform="translate(-71.1 -46.14)"/><path d="m319.75 334.74c-.77.17-1.54.32-2.32.46-23 4-51.25-4.28-63.55-25.37-8.35-14.32-8.49-33-7.24-49.07 1-12.26 3.08-24.35 5-36.47v-16.86c-4.15 18.42-21.49 96.77-23.22 127 0 0 18.66 8.84 39.28 7.37s29.46-4.91 40.26-3.44 12.28-1.47 12.28-1.47z" fill="#33658a" opacity=".4" transform="translate(-71.1 -46.14)"/><path d="m291.94 162.57s13.12 6 20.14 38.49 16.39 30.24 13.58 43.07c0 0-9.37 6.87-13.12 3.67s-11.7-29.8-14.98-40.8-9.84-18.33-12.18-26.57.47-19.7 6.56-17.86z" fill="#33658a" transform="translate(-71.1 -46.14)"/><path d="m244.04 200.59.45 4.87 12.39-4.2-3.03-3.76z" fill="#33658a"/><path d="m259.56 118.14a7.49 7.49 0 0 0 -4.22-1.24 6 6 0 0 0 -2.09.45 10.6 10.6 0 0 0 -1 .47l-.95.59-.26.16-.18-.15a25.25 25.25 0 0 1 -2.12-2 25.27 25.27 0 0 1 2.55 1.47h-.43a7.38 7.38 0 0 1 2-1.34 5.63 5.63 0 0 1 2.43-.5 5.53 5.53 0 0 1 4.23 2.12z" fill="#2f4858" transform="translate(-71.1 -46.14)"/><path d="m270.53 117.65a7.49 7.49 0 0 1 4.22-1.24 6 6 0 0 1 2.09.45 10.6 10.6 0 0 1 1 .47l.95.59.26.16.18-.15a25.25 25.25 0 0 0 2.12-2 25.27 25.27 0 0 0 -2.55 1.47h.43a7.38 7.38 0 0 0 -2-1.34 5.63 5.63 0 0 0 -2.43-.5 5.53 5.53 0 0 0 -4.23 2.12z" fill="#2f4858" transform="translate(-71.1 -46.14)"/><path d="m247.88 112.88s5-2.34 9.63-1.75v-1.46s-6.13-2.34-9.63 3.21z" fill="#2f4858" transform="translate(-71.1 -46.14)"/><path d="m281.55 111.43s-5.09-2-9.72-1.2l-.08-1.46s5.99-2.67 9.8 2.66z" fill="#2f4858" transform="translate(-71.1 -46.14)"/><path d="m237.23 101.52 2.63 48.17s22.77 10.22 52-2.63l-1.49-48.46z" fill="#fff" opacity=".36" transform="translate(-71.1 -46.14)"/><path d="m264.45 135.31q10.32-11.75 21.14-23.07c1.66-1.75 3.36-3.47 5-5.2l-.25-8.44-5.62.31c-14.86 16.33-29.57 32.81-45 48.6l.12 2.18a46.3 46.3 0 0 0 9.16 2.63c5.83-4.97 10.4-11.26 15.45-17.01z" fill="#fff" opacity=".36" transform="translate(-71.1 -46.14)"/><path d="m263.82 153.52q13.74-14.85 27.3-29.87l-.19-6.26-1.31 1.37c-7.41 7.83-14.8 15.72-21.78 23.94-3.12 3.67-6.15 7.35-9.43 10.77 1.71.08 3.51.1 5.41.05z" fill="#fff" opacity=".36" transform="translate(-71.1 -46.14)"/><path d="m238.69 97.14s29.49 4.38 48.47-4.38c0 0 3.21 2.92 3.21 5.84 0 0-22.48 11.39-53.14 2.92 0 0-.58-3.79 1.46-4.38z" fill="#f26419" transform="translate(-71.1 -46.14)"/><path d="m288.38 97.58a126.21 126.21 0 0 1 -14.46 3.23 86.19 86.19 0 0 1 -36.75-.88 8.71 8.71 0 0 0 .07 1.59c30.66 8.47 53.14-2.92 53.14-2.92a4.92 4.92 0 0 0 -.28-1.55z" fill="#f26419" opacity=".66" transform="translate(-71.1 -46.14)"/><path d="m237.23 101.52 2.63 48.17s12.44 5.05 24 3.82l-20.63-5.11z" fill="#33658a" opacity=".35" transform="translate(-71.1 -46.14)"/><path d="m211.84 246.13.23-.83a32.4 32.4 0 0 1 9.38 3.39l-.7 1.87c-.09.29-.16.53-.17.57.56.42 2.35 2.2 2.4 8.2.07 7.13.29 7.32-1 7.3s-1.93-6.35-3.16-7.38c-.17.61-.35 1.17-.53 1.64-.82 2.69-4.1 13.26-5.15 12.76s-1.64-2 2.15-11.68l-.79-.18c-1.38 4.47-4 12.61-5 12.15-1.26-.62-1.71-2.17 2.34-12.83l-.76-.22c-1.3 4.08-3.53 10.61-4.36 10.21-1.17-.56-1.62-1.92 1.9-11l-.77-.3c-1.23 3.78-3.06 9-3.78 8.63-1.08-.52-1.5-1.77 1.7-10.08-.03-1.42 4.65-9.73 6.07-12.22z" fill="#2f4858" transform="translate(-71.1 -46.14)"/><path d="m150.63 202-.27 4.88-12.53-3.75 2.89-3.86z" fill="#33658a"/><path d="m242.4 163.22s-12.89 6.43-18.72 39.2-15.28 30.82-12 43.54c0 0 9.61 6.53 13.24 3.18s10.62-30.19 13.49-41.3 9.16-18.67 11.2-27-1.19-19.68-7.21-17.62z" fill="#33658a" transform="translate(-71.1 -46.14)"/><g fill="#86bbd8"><path d="m288.64 189.34h-.11a.46.46 0 0 1 -.34-.56l2.22-9.42a.46.46 0 1 1 .9.21l-2.22 9.43a.46.46 0 0 1 -.45.34z" transform="translate(-71.1 -46.14)"/><path d="m266.2 165.74a21.88 21.88 0 0 0 15.56-6.47.46.46 0 0 0 -.64-.67c-13.42 12.88-29.74 1.73-29.9 1.62a.46.46 0 0 0 -.53.76 30.27 30.27 0 0 0 15.51 4.76z" transform="translate(-71.1 -46.14)"/><path d="m247.07 190.45h.08a.46.46 0 0 0 .38-.53l-1.66-10a.46.46 0 1 0 -.91.15l1.66 10a.46.46 0 0 0 .45.38z" transform="translate(-71.1 -46.14)"/><path d="m300.2 316.47a46.41 46.41 0 0 1 -24.3-2.44l-7.35-120.72a5.72 5.72 0 0 1 4.26 1.44.46.46 0 0 0 .61-.7 6.58 6.58 0 0 0 -4.93-1.67l-1.57-25.73a.46.46 0 1 0 -.92.06l1.57 25.78a12 12 0 0 0 -4.72 2.1.46.46 0 0 0 .58.72 10.91 10.91 0 0 1 4.2-1.9l7.37 120.27c-17.6-6.79-29.58-21.22-29.75-21.43a.46.46 0 0 0 -.72.58c.17.21 12.46 15 30.53 21.86l1.52 25a.46.46 0 0 0 .46.44.46.46 0 0 0 .43-.49l-1.47-24.64a49.37 49.37 0 0 0 16.66 3 43.91 43.91 0 0 0 7.74-.68.46.46 0 1 0 -.16-.91z" transform="translate(-71.1 -46.14)"/><path d="m266 320.36a29 29 0 0 1 -16.9-12 .46.46 0 1 0 -.81.45 29.9 29.9 0 0 0 17.47 12.42h.12a.46.46 0 0 0 .12-.91z" transform="translate(-71.1 -46.14)"/><path d="m221.26 247.59-10-2.39a.46.46 0 0 0 -.56.34.46.46 0 0 0 .34.56l10 2.39h.11a.46.46 0 0 0 .11-.91z" transform="translate(-71.1 -46.14)"/><path d="m325.39 243.49a.46.46 0 0 0 -.58-.3l-9.8 3.1a.46.46 0 0 0 .14.9h.14l9.8-3.1a.46.46 0 0 0 .3-.6z" transform="translate(-71.1 -46.14)"/></g></g></svg>