<svg enable-background="new 0 0 454 407" viewBox="0 0 454 407" xmlns="http://www.w3.org/2000/svg"><path d="m401.4 393.2s-6.8 3.2-4 7.9 18.1-3.1 20.6-6 .8-4.7.3-4.7z" fill="#ffbe9d"/><path d="m401.6 385.3c-2.6.4-8.4 4.3-3.4 7.8s22.5-1.9 24.7-3.3c2.2-1.5-.1-6.7-.1-6.7l1.7-1.3c3.6-3-.5-8.2-.5-8.2 7-3.3 6.3-13.2 5.6-14.1-2-2.6-8.9-9.3-8.9-9.3-5.6-4.5-42.1-10.6-42.1-10.6l-18.5-.7c-15.9-3.8-14.8 20-14.8 20l10.1 7c.9 4.1 2.8 7.9 5.5 11.1 4.4 4.8 11.8 8.3 18.7 7.4 6.3-.8 22 1 22 .9" fill="#ffbe9d"/><path d="m419.2 373.1c-1.3.3-3.2.6-5.6.8-1.2.1-2.5.2-3.9.3s-2.9 0-4.4.2c-1.6.1-3.2.6-4.5 1.4-1.4.9-2.2 2.6-2.1 4.2.1.8.6 1.6 1.2 2.1s1.4.9 2.2 1.2c1.6.5 3.2.8 4.8.9 2.8.2 5.5.2 8.3 0 2.4-.2 4.3-.4 5.6-.6.7-.1 1.4-.2 2.1-.2-.7.2-1.3.3-2 .4-1.3.2-3.2.5-5.6.8-2.8.3-5.6.4-8.4.2-1.7-.1-3.3-.4-4.9-.9-.9-.3-1.7-.7-2.4-1.3-.8-.6-1.3-1.5-1.4-2.5-.1-1.9.8-3.8 2.4-4.8 1.4-.9 3.1-1.5 4.8-1.5 1.6-.1 3.1-.1 4.5-.1s2.7-.1 3.9-.2c2.4-.2 4.3-.4 5.6-.6.7-.1 1.4-.2 2.1-.2-.9.2-1.6.3-2.3.4z" fill="#eb996e"/><path d="m420.5 361.7c-1.3.3-3.2.6-5.6.8s-5.2.5-8.3.5c-1.6-.1-3.2.1-4.7.7-1.5.8-2.2 2.5-1.8 4.2.4 1.6 1.4 3.1 2.9 3.9 1.4.8 2.9 1.4 4.5 1.5 2.8.1 5.5.1 8.3-.2l5.6-.4c.7-.1 1.4-.1 2.1 0-.7.2-1.4.3-2.1.3l-5.6.6c-2.8.4-5.6.5-8.4.4-1.7-.1-3.3-.7-4.8-1.5-1.6-1-2.8-2.5-3.2-4.4-.2-.9-.1-1.9.3-2.8s1-1.6 1.9-2c1.6-.6 3.3-.9 5-.7 3.1 0 6-.2 8.3-.4 2.4-.2 4.3-.5 5.6-.6.7-.1 1.4-.2 2.1-.2-.7.1-1.4.2-2.1.3z" fill="#eb996e"/><path d="m415.3 359.4c.8-1.6 2-2.6 2.1-2.5-.4 1-.9 2-1.5 2.9-.4 1-.9 2-1.4 2.9-.2-1.2.1-2.3.8-3.3z" fill="#eb996e"/><path d="m370.9 362.5s6 1.3 15.4-2.5c9.5-3.8 10.2-12.2 11.3-13.6s25.3-5.4 26.9-9.9-.5-4.9-.9-6-42.5 7.5-42.5 7.5l-14.9 2" fill="#ffbe9d"/><path d="m371.1 362.7h1c1.2 0 2.5 0 3.7-.1 1.9-.2 3.9-.6 5.8-1.1 2.5-.7 4.9-1.6 7.2-2.9 2.7-1.6 4.9-3.9 6.3-6.7.8-1.6 1.4-3.2 2-4.9.1-.2.2-.5.3-.7.2-.2.4-.4.7-.5.4-.2.9-.3 1.3-.5.9-.3 1.8-.5 2.7-.8 3.7-1 7.6-1.9 11.6-3.1 2-.6 4-1.2 6-2 1-.4 1.9-.9 2.9-1.4.5-.3.9-.6 1.3-1 .3-.4.6-.8.7-1.3.4-1 .4-2 .2-3-.2-.5-.4-.9-.8-1.3-.2-.2-.4-.5-.5-.7.1-.1-.3.1.2-.1-.1.1-.1.2-.1.2h-.1-.5c-2.1.1-4.2.5-6.3.8-4.1.7-8 1.4-11.8 2.1l-20 3.8c-1.4.3-2.8.6-4.1.8l-3.7.5-5.9.7-3.7.4-1 .1c-.1 0-.2 0-.3 0l.3-.1 1-.2 3.7-.6 5.8-.8 3.6-.5c1.3-.2 2.6-.5 4-.8 5.7-1.2 12.4-2.5 19.9-4 3.8-.7 7.7-1.4 11.8-2.1 2-.3 4.1-.7 6.3-.8h.4.3c.1 0 .2.1.2.2.1.2.1.2.1.2.1.2.3.4.4.6.4.4.7.9.9 1.5.3 1.1.2 2.3-.2 3.4-.1.3-.1.5-.3.8-.1.3-.3.5-.5.8-.4.4-.9.8-1.4 1.1-.9.6-1.9 1.1-3 1.5-2 .8-4 1.5-6 2.1-4 1.2-7.9 2.1-11.6 3.1-.9.2-1.8.5-2.7.8-.4.1-.8.3-1.3.4-.2.1-.3.2-.4.3-.1.2-.2.4-.3.6-.6 1.7-1.2 3.3-2 4.9-1.5 2.9-3.8 5.2-6.6 6.8-2.3 1.2-4.8 2.2-7.3 2.8-1.9.5-3.9.9-5.8 1-1.3.1-2.5.1-3.8 0l-.6-.3-.3-.2z" fill="#eb996e"/><path d="m400.8 386.3c-.9.4-1.7.9-2.4 1.5-.8.6-1.4 1.5-1.6 2.5 0 1.1.6 2.2 1.6 2.7 1.1.6 2.4.8 3.6.7 4.6-.3 9.2-.9 13.7-1.8 1.7-.4 3.1-.8 4.1-1 .5-.2 1-.3 1.5-.4-.5.3-.9.5-1.4.6-.9.4-2.3.8-4 1.3-4.5 1.1-9.1 1.8-13.7 2-1.4.1-2.8-.2-4-.8-1.2-.7-1.9-2-1.9-3.3.2-1.2.9-2.2 1.9-2.9.8-.6 1.6-1.1 2.5-1.5 1.3-.6 2.7-1 4.1-1.2.5-.1 1-.1 1.5-.1-1.9.4-3.7.9-5.5 1.7z" fill="#eb996e"/><path d="m366.3 333.7-12.3 46.8s-89.3-27.4-97-33-30-53-30-53 3.5-7-2.8 7-30 30-30 30l4.4 71.6-196.5.3s16.2-145.2 16.2-161.9 12.5-50.3 28.6-64.9c16.1-14.7 69.1-20.3 69.1-20.3l79.8 7 10.3 5.6s27.9 9.8 34.9 18.1 28.7 40.5 32.9 60.8 22.8 50.9 22.8 50.9z" fill="#ff9f00"/><path d="m21.7 224.3s-7.8 96.3-10.6 131.2 15.4 35.8 15.4 35.8l163.4 3.8s-3-4.5-7-25c-4.1-20.9 9.6-21.1 9.6-21.1l-46.6-3.9c-9.4-6.9-19.4 0-19.4 0l-39.4-7.6c1.9-5.6-.6-17.5-.6-17.5l8.8-16.3s1.9-39.4 0-45.7-28.5-75-30.7-75.7c-31-9.6-42.9 42-42.9 42z" fill="#ff9f00"/><g fill="#263238"><path d="m96 297.3.9-2.5c.4-1.1.9-2.4 1.3-4 .5-1.6 1.1-3.3 1.6-5.3s1.1-4.3 1.7-6.6 1-4.9 1.5-7.6c2-11.7 2.5-23.6 1.4-35.4-.3-2.7-.6-5.3-1-7.7-.2-1.2-.3-2.4-.6-3.5-.2-1.1-.4-2.2-.6-3.2-.4-2-.9-3.9-1.3-5.4-.4-1.6-.8-3.1-1.1-4.1s-.5-1.9-.7-2.5c-.1-.3-.2-.6-.2-.9.1.3.2.6.3.9.2.6.5 1.4.8 2.5.4 1.1.8 2.4 1.2 4.1s.9 3.4 1.3 5.4c.2 1 .4 2.1.7 3.2.2 1.1.4 2.2.6 3.5.4 2.4.7 5 1 7.7.6 5.9.7 11.9.5 17.8-.3 5.9-.9 11.9-1.9 17.7-.5 2.6-1.1 5.2-1.6 7.6s-1.2 4.6-1.7 6.6-1.2 3.8-1.7 5.3c-.5 1.6-1 2.9-1.4 4l-1 2.5c-.1.3-.2.6-.4.8.2-.3.3-.6.4-.9z"/><path d="m39.1 372.3c.3-.4.6-.9 1-1.5.4-.7 1-1.5 1.7-2.3.7-.9 1.4-1.9 2.4-3 .9-1.1 1.9-2.2 3.1-3.5s2.4-2.5 3.8-3.8c3-2.8 6.1-5.3 9.4-7.6s6.9-4.3 10.5-6.1c1.7-.8 3.3-1.5 4.8-2.2s3-1.1 4.3-1.6 2.5-.8 3.6-1.2c1.1-.3 2-.6 2.8-.7l1.8-.4c.2-.1.4-.1.6-.1-.2.1-.4.2-.6.2l-1.7.5c-.8.2-1.7.4-2.7.8-1.1.4-2.3.8-3.6 1.3-1.3.4-2.7 1.1-4.3 1.7s-3.1 1.4-4.8 2.2c-3.6 1.8-7 3.9-10.4 6.1-3.3 2.3-6.4 4.8-9.4 7.6-1.4 1.3-2.6 2.5-3.8 3.7s-2.2 2.3-3.1 3.4c-.9 1-1.7 2.1-2.4 2.9-.7.9-1.3 1.6-1.7 2.3l-1.1 1.4c-.3.3-.4.5-.4.5 0-.2.1-.4.2-.6z"/><path d="m26 362.5c.4-.4.8-.9 1.3-1.3.5-.5 1.1-1.1 1.7-1.6 1.6-1.4 3.3-2.6 5-3.7 2.2-1.3 4.5-2.5 6.9-3.4s4.9-1.6 7.4-2c2.1-.4 4.1-.6 6.2-.6.9-.1 1.7 0 2.4 0 .6 0 1.2.1 1.8.2.5 0 1 .1 1.5.3 0 .1-2.2-.1-5.7 0-2.1.1-4.1.3-6.1.7-2.5.5-4.9 1.2-7.2 2-2.3.9-4.6 2-6.8 3.3-1.8 1.1-3.4 2.2-5 3.5-2.7 2.2-4.2 3.9-4.3 3.8.2-.4.6-.8.9-1.2z"/><path d="m41.5 339.6c.5-.4 1.1-.8 1.7-1.1.7-.5 1.5-.9 2.3-1.3 1-.5 1.9-1 3-1.4 1.1-.5 2.3-.9 3.5-1.3 5.5-1.7 11.3-2.1 17-1.2 1.2.2 2.4.5 3.6.8 1.1.3 2.1.6 3.1 1 .9.3 1.7.6 2.5 1l1.8.9c.5.2 1 .5 1.5.9-.1.2-2.1-1.1-5.9-2.4-1-.3-2-.6-3.1-.9s-2.3-.5-3.6-.7c-5.6-.8-11.3-.4-16.7 1.1-1.2.4-2.4.7-3.5 1.2-1 .4-2 .8-2.9 1.3-3.5 1.7-5.4 3.3-5.5 3.2.3-.4.7-.8 1.2-1.1z"/><path d="m135.2 390.5c-.2-.7-.4-1.4-.5-2.2l-.3-1.4c-.1-.5-.1-1-.2-1.6-.3-2.6-.3-5.2-.1-7.8.5-6.4 2.2-12.6 4.8-18.3 1.1-2.4 2.4-4.6 3.9-6.7.3-.4.6-.9.9-1.3l.9-1.1c.5-.6 1-1.1 1.5-1.7.4-.5.9-.9 1.4-1.3-1.6 1.8-3.1 3.6-4.4 5.6-1.4 2.1-2.7 4.4-3.8 6.7-1.3 2.9-2.3 5.8-3.1 8.8s-1.3 6.1-1.6 9.3c-.2 2.6-.3 5.1-.1 7.7.2 2.4.6 4.7 1.2 7-.2-.5-.4-1.1-.5-1.7z"/><path d="m163.2 344.7c0-.3.1-.6.1-1.1.1-1 .3-2.4.5-4.2.4-3.7 1-8.9 1.7-15.3 1.4-12.9 3.2-30.8 4.7-50.5s2.3-37.7 2.7-50.7c.2-6.5.4-11.7.5-15.4.1-1.8.1-3.2.1-4.2 0-.5 0-.8 0-1.1-.1 0-.1-.1-.1-.1 0-.1 0-.2.1-.2s.2 0 .2.1 0 .2-.1.2v1.1 4.2c0 3.6-.1 8.9-.3 15.4-.3 13-1.1 30.9-2.5 50.7s-3.3 37.7-4.8 50.6c-.8 6.5-1.4 11.7-2 15.3-.3 1.8-.5 3.1-.6 4.1-.1.4-.2.8-.2 1.1 0 .1 0 .2-.1.4.1-.2.1-.3.1-.4z"/><path d="m227.9 293.4c.4-1.3 1.1-3.1 2-5.4 1.8-4.5 4.5-10.5 7.9-17.2 3.4-6.6 6.6-12.4 8.9-16.7l2.7-5c.3-.6.7-1.2 1.1-1.8-.2.7-.5 1.3-.8 1.9-.5 1.2-1.4 3-2.5 5.1-2.3 4.4-5.3 10.2-8.7 16.8s-6.2 12.6-8.1 17.1c-.9 2.2-1.7 4-2.2 5.3-.2.7-.5 1.3-.9 1.9.2-.6.4-1.3.6-2z"/><path d="m241.4 270.6c2.5-.9 5.9-2.3 9.5-4.1s6.8-3.6 9-5c1.2-.8 2.4-1.6 3.7-2.2-.3.3-.5.5-.9.8-.6.5-1.4 1.1-2.5 1.9-5.7 3.9-12 7-18.6 9.2-1.3.4-2.3.7-3 .9-.4.1-.8.2-1.1.2 1.2-.7 2.5-1.2 3.9-1.7z"/><path d="m255.4 314.2c.8-.7 2-1.5 3.5-2.5 4-2.6 8.3-4.7 12.7-6.4 4.5-1.7 9.1-2.9 13.8-3.5 1.8-.3 3.3-.4 4.3-.4.5-.1 1.1-.1 1.6 0-.5.1-1 .2-1.6.3-1 .1-2.5.3-4.2.6-9.3 1.6-18.2 4.9-26.3 9.9-1.5.9-2.8 1.7-3.6 2.3-.4.3-.9.6-1.4.8.4-.5.8-.8 1.2-1.1z"/><path d="m118.4 157.5c.1.7.3 1.6.5 2.9.4 2.5.9 6.2 1.7 10.7.9 5.2 2.2 10.4 3.6 15.6 1.8 6.3 4.5 12.2 7.9 17.8 1.9 3 4.1 5.7 6.5 8.3h-.5c3.2-4.3 7.4-7.7 12.2-10.1 2.1-1 4.2-1.8 6.4-2.3 1.9-.4 3.9-.7 5.8-.7 2.8-.1 5.6.4 8.2 1.3.7.3 1.4.6 2.1.9.2.1.5.2.7.4 0 .1-1-.4-2.8-1.1-2.6-.9-5.4-1.2-8.2-1.1-1.9.1-3.8.3-5.7.8-2.2.5-4.3 1.3-6.3 2.3-4.7 2.3-8.8 5.7-11.9 9.9l-.2.3-.3-.3c-2.5-2.6-4.6-5.4-6.6-8.4-3.4-5.6-6.1-11.7-7.9-18-1.5-5.1-2.7-10.4-3.5-15.7-.8-4.5-1.2-8.2-1.5-10.7-.1-1.2-.3-2.2-.3-2.9 0-.3-.1-.7-.1-1 .1.4.2.7.2 1.1z"/></g><path d="m185.2 164.2-42.8-22.7-13.1-.4-12.2 16.1z" fill="#ff9f00"/><path d="m176.3 201.7c2.3-.7 4.5-1.7 6.6-3 3.1-2.1 6.9-2.8 10.6-2.1 4.6 1 8.3 4.2 10 8.6l-.6.1c0-.5 0-1 0-1.5-.2-9.9-.1-18.9-.4-25.4-.1-3.2-.3-5.9-.5-7.7s-.3-2.8-.3-2.8c.1.2.1.5.2.7.1.5.2 1.2.4 2.1.3 1.8.5 4.4.7 7.7.4 6.5.4 15.5.6 25.4v1.5 2l-.7-1.8c-1.6-4.2-5.1-7.3-9.5-8.3-1.9-.4-3.8-.4-5.7 0-1.6.4-3.2 1-4.6 1.9-2.1 1.3-4.4 2.3-6.8 2.9-.7.2-1.3.3-2 .3-.2 0-.5 0-.7 0 0-.1 1-.2 2.7-.6z" fill="#263238"/><path d="m129.3 61.9c.7-27.6 23.6-49.5 51.2-48.8l.8.1c27.2 2.2 48.1 25 48 52.3-.1 23.9-.4 49.9-1.6 62.5-2.6 26.9-29.8 28.9-29.8 28.9s0 7.1-.3 14.1c-.2 6.3-3.1 12.3-7.8 16.6l-16.1 14.4-19.5-11c-7.4-4.2-13.9-9.6-19.4-16-3.6-4.2-5.5-9.6-5.5-15.1v-96.6c0-.5 0-.9 0-1.4z" fill="#ffbe9d"/><path d="m197.3 163.4c-27.1.2-33.8-19.9-33.8-19.9 17.2 12.9 34.3 12.9 34.3 12.9z" fill="#eb996e"/><path d="m220.2 83.5c0-2-1.7-3.7-3.7-3.7-2.1-.1-3.9 1.5-4 3.6v.1c0 2 1.6 3.7 3.7 3.7s3.8-1.6 4-3.7z" fill="#263238"/><path d="m221.1 74.1c-1.6-1.4-3.7-2.3-5.8-2.4-2.2-.2-4.4.3-6.3 1.4-1.4.9-2 1.7-1.8 2 .4.5 3.6-1.3 7.8-.9s6.9 2.7 7.4 2.3c.2-.4-.1-1.3-1.3-2.4z" fill="#263238"/><path d="m180.8 81.8c0-2-1.6-3.7-3.7-3.7-2.1-.1-3.9 1.5-4 3.6v.1c0 2 1.6 3.7 3.7 3.7s3.9-1.5 4-3.7z" fill="#263238"/><path d="m180.4 71.5c-1.6-1.4-3.7-2.3-5.8-2.4-2.2-.2-4.4.3-6.3 1.4-1.4.8-2 1.7-1.8 2 .4.6 3.6-1.3 7.8-.9s6.9 2.7 7.4 2.3c.2-.4-.2-1.3-1.3-2.4z" fill="#263238"/><path d="m200.9 106.3c.6 0 1.2 0 1.8-.1.8-.2 1.5-.7 1.9-1.4.4-1.4.4-2.9-.2-4.2-.7-2.7-1.5-5.4-2.3-8.3-3.4-11.8-6.5-21.3-7-21.1-.5.1 1.9 9.8 5.3 21.6.9 2.9 1.7 5.7 2.5 8.3.5 1 .6 2.1.4 3.2-.2.7-1.3.8-2.3.8-4.2.2-6.8.4-6.8.7-.1.1 2.5.3 6.7.5z" fill="#263238"/><path d="m180.8 110.4c.1 2.5 1.2 4.9 3 6.7 1.9 1.8 4.4 2.9 7 3.1 2 .1 3.2-.4 3.2-.7 0-.6-4.8-.5-8.4-4s-3.2-8-3.9-8c-.3 0-.9 1-.9 2.9z" fill="#263238"/><path d="m181.7 55.2c-4.6-2.1-10-2-14.5.4-1.7 1-2.4 2-2.2 2.5.6 1.1 4.6.1 9.5-.1s9 .7 9.5-.4c.3-.5-.5-1.5-2.3-2.4z" fill="#263238"/><path d="m220.8 61.7c-1.5-1.3-3.4-2.2-5.4-2.4-2-.3-4 .1-5.8 1.1-1.3.8-1.9 1.7-1.6 2.2.6 1 3.5.6 7 .9 3.4.3 6.2 1.5 7 .7.2-.4-.1-1.4-1.2-2.5z" fill="#263238"/><path d="m159.8 34.7c-3.2-3.9-8.4-12.8-12.7-15.3s-9.5.1-13.8 2.7c-4.5 2.7-7.5 7.5-7.9 12.7-1.6 19.4 2.1 26.7 2 45.3-.1 1.2.1 2.5.7 3.6 2.3 3.5 6.5 5.2 10.6 4.3 7.6-1.7 7.3-7.5 9-15.1 1.8-7.6 2.2-15.4 3.9-23l.1-.5c1.2-5.4 4.5-10 9.1-13.1l.2-.1" fill="#263238"/><path d="m136.2 102.8c-.1.5-18.8 3.4-17.8-15.1s18.5-11.7 19-11.5c-.1 0-1.2 26.1-1.2 26.6z" fill="#ffbe9d"/><path d="m130.2 96.3c-.9.6-2 .7-3 .3-2.6-.9-4.4-4.4-4.3-8.2 0-1.8.5-3.5 1.4-5 .6-1.4 1.9-2.5 3.5-2.7.6 0 1.3.2 1.8.6.3.3.6.7.7 1.2.1.8-.2 1.1-.3 1.1s0-.4-.2-.9c-.3-.7-1.1-1.1-1.9-1-1.2.3-2.1 1.2-2.5 2.3-.7 1.4-1.1 3-1.1 4.6-.1 3.3 1.4 6.5 3.3 7.3.8.3 1.6.4 2.4.1.6-.2.8-.5.9-.4.1-.1 0 .3-.7.7z" fill="#eb996e"/><path d="m146.3 22c-1 3.4-1.4 6.9-1.3 10.4.2 3.6 2.1 6.9 5.1 8.8 3.2 1.8 7.9-4.9 13.8-6.4 8.1-2.1 20.9 4.1 28.5 7.6s14.6 8.3 22.4 11.6c7.7 3.3 16.6 5.1 24.6 2.4 3.1-1.1 6.3-3.3 6.9-6.5s-3.1-6.8-5.9-5c5.6 1.7 12.1-3.4 11.7-9.2s-7.4-10.1-12.7-7.7c4-.2 6.6-5.1 5.4-9s-5.2-6.3-9.2-6.9-8.1.3-12 1.3-7.9 2.2-11.9 2c-6-.2-11.5-3.3-17-5.7-8.7-3.7-20.3-9.1-29.7-7-9.3 2.1-22.6 11.7-18.7 19.3" fill="#263238"/><path d="m241.1 28.9c-.6 1-1.3 1.9-2.2 2.7-7.8 7.9-19.8 9.7-29.6 4.5-6.5-3.5-11.5-9.6-17.1-15.4-5.6-5.7-12.2-10-18.9-11.3s-13.2.5-16.9 3.9c-3.1 2.7-5 6.5-5.3 10.6 0 1.5.1 3 .3 4.5-.1 0-.2-.4-.5-1.1-.3-1.1-.5-2.3-.5-3.5.1-4.4 2-8.6 5.2-11.6 4-3.8 10.9-5.9 18.1-4.6s14.1 5.9 19.9 11.7c5.7 5.8 10.6 11.9 16.7 15.2 5.3 3 11.6 3.7 17.5 2.2 4-1 7.7-3 10.8-5.7 2.2-2 3.1-3.4 3.2-3.3-.1.1-.2.5-.7 1.2z" fill="#455a64"/><path d="m134.5 66.7c-.4-3.2-1.3-6.2-2.5-9.2-1.6-3.8-2.5-7.8-2.6-11.9-.2-4.2 1-8.3 3.4-11.8 2.1-2.8 5-4.8 8.4-5.6 2.2-.6 4.6-.5 6.8.2 1.5.6 2.2 1.1 2.1 1.3-.1.1-.8-.3-2.3-.6-2.1-.4-4.2-.3-6.2.3-3 .9-5.5 2.8-7.3 5.3-2.1 3.2-3.1 7-2.9 10.8 0 8.2 4.7 15 4.6 21 .1 2.3-.4 4.6-1.5 6.6-.8 1.4-1.6 1.9-1.7 1.9-.3-.1 2.3-2.9 1.7-8.3z" fill="#455a64"/><path d="m128.8 83.5 11.2 12.1c1 1.1.9 2.8-.1 3.8l-3 2.8c-1.1 1-2.8.9-3.8-.1l-11.2-12.1c-1-1.1-.9-2.8.1-3.8l3-2.8c1.1-1.1 2.8-1 3.8.1z" fill="#263238"/><path d="m18.2 246.1c0 .5-.1 1.2-.1 2.2-.1 1.9-.3 4.8-.5 8.4-.5 7.4-1.1 18.2-2 31.9s-1.9 30.3-3.1 49.3c-.3 4.7-.6 9.6-.9 14.7-.2 2.5-.3 5.1-.4 7.6-.1 1.3-.1 2.6 0 3.9 0 1.3.1 2.6.2 3.9.2 1.3.2 2.7.5 4s.5 2.6.9 3.9.7 2.6 1.3 3.9 1 2.5 1.7 3.8c1.3 2.5 3 4.7 5 6.7s4.5 3.5 7.1 4.4l123.1-.1h39l-.3.4c-1.2-4.2-2.4-8.4-3.5-12.6-.6-2.1-1.2-4.2-1.7-6.3-.6-2.1-1.1-4.2-1.5-6.3-.6-4.2-.2-8.6 1.1-12.6.6-2 1.7-3.9 3.1-5.5 1.4-1.7 3.3-2.8 5.4-3.1v.6l-46.5-4h-.1-.1c-2.8-2.1-6.2-3.1-9.7-3-3.3.2-6.6 1.2-9.4 3l-.1.1h-.1l-39.4-7.6h-.3l.1-.3c.4-1.5.7-3 .7-4.5.1-1.5 0-3-.1-4.5-.2-2.9-.6-5.7-1.2-8.5v-.1c3.2-5.9 6.1-11.3 8.8-16.2v.1c.7-14.5.9-25.9.9-33.7 0-3.9-.1-6.9-.3-8.9 0-.8-.1-1.5-.3-2.3-.1-.5-.1-.8-.1-.8s.1.3.2.8c.2.7.3 1.5.3 2.3.2 2 .4 5 .4 8.9.1 7.8-.1 19.2-.7 33.8v.1c-2.7 5-5.6 10.4-8.7 16.3v-.2c.6 2.8 1 5.7 1.2 8.5.1 1.5.2 3 .1 4.5 0 1.6-.2 3.1-.7 4.6l-.2-.3 39.4 7.4h-.2c2.9-1.8 6.3-2.9 9.7-3.1 3.6-.1 7.2.9 10.1 3.1h-.1l46.5 3.9 2.5.2-2.6.4c-2 .4-3.7 1.4-5 3s-2.3 3.4-2.9 5.3c-1.3 4-1.7 8.2-1.1 12.4.3 2.1.8 4.2 1.5 6.2.6 2.1 1.2 4.2 1.7 6.3 1.2 4.2 2.4 8.4 3.5 12.6l.1.4h-.4-39-123.2-.1c-5.7-1.9-9.8-6.4-12.5-11.3-.7-1.2-1.3-2.5-1.7-3.8s-1-2.6-1.3-3.9-.6-2.7-.9-4l-.5-4c-.1-1.3-.2-2.6-.2-4-.1-1.3-.1-2.6 0-3.9.1-2.6.2-5.2.4-7.7.3-5 .7-9.9 1-14.7 1.3-19 2.3-35.6 3.2-49.3s1.6-24.5 2.2-31.9c.3-3.7.5-6.5.6-8.4.1-.9.1-1.7.2-2.2s.1-.7.1-.7-.1 0-.1.5z" fill="#263238"/><path d="m54.5 177.3c.4.2 1 .5 1.7.9 2.1 1.2 4.1 2.5 6 4 6.2 5 11.4 11.2 15.4 18.1 3.9 6.9 7.3 14.1 9.9 21.6 1.1 2.9 1.9 5.2 2.4 6.8.2.8.5 1.4.6 1.9.1.2.1.4.2.7-.1-.2-.2-.4-.3-.6l-.7-1.8-2.6-6.7c-2.8-7.4-6.2-14.5-10.1-21.4-4-6.8-9.1-13-15.1-18-1.8-1.5-3.8-2.9-5.8-4.2-.8-.4-1.5-.9-2.2-1.4.2-.1.4 0 .6.1z" fill="#263238"/><path d="m103.2 225c2.5 20.9 2.7 37.1-1.3 53.6-1.4 5.9-2.8 12.3-6 18.7-1.6 6.8-4.1 13.3-7.6 19.4-.7 1-1.3 2.1-1.7 3.2 0 0 .9 7.8 1.2 10.1.1 2.5-.1 5.1-.6 7.6 0 0 6.6 1.3 8.5 1.6 9.1 1.6 18.3 2.7 27.4 4.3 1.3.4 2.7.3 4-.4 1.1-1.1 1.4-2.8.6-4.2-.8-1.3-1.8-2.5-3.1-3.4-9.5-8.6-13.9-21.6-15.2-34.3s.3-25.6.8-38.4c.6-12.9-1.8-25.8-7-37.6" opacity=".3"/><path d="m203.1 206.7c-.5-3.9-3.2-7.3-6.9-8.6s-7.7-1.2-11.4.1-7.1 3.1-10.4 5.2c3.8.8 7.7-.3 11.5.1 4.8.6 9 3.5 11.2 7.8.5 1.1 1.4 2.5 2.5 2 .5-.3.9-.8 1.1-1.4.7-1.9 1.5-3.8 2.2-5.7" opacity=".3"/><path d="m172.5 201.3c-9.4-2.8-19.6-1.6-28 3.4-1.4.8-2.6 1.8-3.7 3-1 1.2-1.5 2.8-1.4 4.4-6.2-4-9.7-11.1-12-18s-4-14.3-7.6-20.7c.2 9.3.8 18.8 3.5 27.7s7.7 17.4 15.2 22.9c.4.4 1 .6 1.5.6.9-.1 1.3-1.2 1.6-2.1 1.2-4.6 2.4-9.5 5.4-13.2 3-3.4 7-5.7 11.4-6.6s8.9-1.3 13.3-1.3" opacity=".3"/><path d="m187.1 382.8 12.2 1.3c3.4 2.1 7 3.8 10.7 5 6.2 2.1 9.5.2 16.7-4.9 5.1-3.6 13-1.3 13-1.3s15.3 7 23.8 9c4 .9 5-1.2 4.7-3.2-.3-2.2-1.7-4.1-3.7-5.1-6.4-3.4-24.5-12.8-27.1-13 .7-1.9 2.5-3.1 4.5-3.1 4.8-.1 9.5.1 14.3.7 4.4.7 10.8 7.3 13.8 10.6 1 1.1 2.6 1.6 4 1.1 1.5-.5 2.6-1.9 2.7-3.5l.1-1.4c0-.7-.1-1.5-.5-2.1l-.9-1.6c.6.9 1.5 1.5 2.6 1.6 1.9.2 3.5-1.2 3.7-3.1 0-1-.1-1.9-.4-2.8l-.2-.7.5-.2c2.5-1 3.8-3.9 2.8-6.4-.2-.6-.6-1.1-1.1-1.4-4.6-3.1-28.2-18.8-34.6-19.8-7.1-1.3-41.9 11.3-41.9 11.3h-15.4c-15.8 4.4-4.3 33-4.3 33z" fill="#ffbe9d"/><path d="m239 355.1c1.6-.4 3.2-.7 4.8-.8 10.9-1 21.7 3.6 28.5 12.2 1 1.3 1.9 2.6 2.7 4 .3.5.6 1 .8 1.6-1.2-1.8-2.5-3.6-3.9-5.3-6.9-8.3-17.4-12.7-28.1-12-4 .3-6.5 1-6.5.9.5-.3 1.1-.5 1.7-.6z" fill="#eb996e"/><path d="m241.4 346.9c.4-.2.8-.4 1.3-.5 1.6-.5 3.3-.8 5-.9 5.7-.2 11.3 1.4 16.2 4.4 4.8 3 9.1 6.8 12.7 11 1.4 1.6 2.6 2.9 3.3 3.9.4.5.8 1 1.1 1.5-.5-.4-.9-.8-1.3-1.3l-3.5-3.7c-3.7-4.1-8-7.8-12.7-10.8-6.7-4.5-15-5.7-22.7-3.3z" fill="#eb996e"/><path d="m257 403.1-46.1.5c0-3.4 2.8-8.4 6.2-8.4l41.9-.2 35.9-105.7c1.9-5.6 7.1-9.3 13-9.3h130.1c1.8 0 3.5.3 5.2 1 7 2.9 10.4 10.9 7.5 17.9l-41.8 104.8z" fill="#263238"/><path d="m392.2 316.6c-2 6.5 3.8 11.4 3.8 11.4s15.9 4.5 18.3 4.3 7.2-1.3 8.8-8.9-2.4-12.5-4.6-15c-.7-.7-1.4-1.4-2.3-1.9-2.5-1.6-5.4-2.4-8.4-2.3-8.6.4-13.7 6.8-15.6 12.4z" fill="#ff9f00"/><path d="m407.2 324.2c-3.6-1.2-7.4-.8-10.7 1-.6 1.7-.7 3.5-.3 5.3.5 2.3 4.8 3.9 7.8 4.6s6.8.9 8.8-.1 2.6-5 2.6-5c-1.9-2.9-4.9-4.9-8.2-5.8z" fill="#f5f5f5"/><path d="m411.7 305c4.1 1 6.6 5.2 5.6 9.3s-5.2 6.6-9.3 5.6-6.6-5.2-5.6-9.3c1.1-4.1 5.2-6.6 9.3-5.6z" fill="#fff" opacity=".4"/><path d="m423.3 322.4c.3-2.6 0-5.2-.8-7.7-1.7 1.6-2.7 3.8-2.8 6.1-.1 2.4.7 4.7 2.2 6.5.7-1.6 1.2-3.2 1.4-4.9z" fill="#fff" opacity=".4"/><path d="m393 314.7c1.1-2.3 2.5-4.3 4.3-6.1.7 2.1.5 4.4-.5 6.4-1 2.1-2.8 3.8-5 4.7.1 0-.3-1.5 1.2-5z" fill="#fff" opacity=".4"/><path d="m357.1 337.8c4.7 0 8.5 3.8 8.5 8.5s-3.8 8.5-8.5 8.4c-4.7 0-8.5-3.8-8.4-8.5 0-4.7 3.8-8.4 8.4-8.4z" fill="#f5f5f5"/></svg>